<?xml version="1.0" encoding="UTF-8"?>
<svg id="Capa_2" data-name="Capa 2" xmlns="http://www.w3.org/2000/svg" viewBox="0 0 125.44 125.22">
  <defs>
    <style>
      .cls-1 {
       	fill: #ffcdd4;
      }
    </style>
  </defs>
  <g id="Capa_1-2" data-name="Capa 1">
    <g>
      <g>
        <path class="cls-1" d="M10.93,13.23c4.01-5.7,11.23-7.71,17.81-8.52,7.45-.91,15.18.83,22.23,3.08,14.19,4.52,27.17,12.1,41.84,15.24,9.82,2.1,26.46,3.2,31.71-7.82,2.05-4.3.42-9.32-2.78-12.54-3.42-3.45-8.44-3.39-12.33-.82-3.89,2.57-5.09,7.75-1.91,11.33,3.3,3.73,10.41,3.81,13.07-.65,2.17-3.64-1.01-7.75-4.95-7.05-4.35.78-5.08,5.97-.11,6.47,1.2.12,1.19-1.75,0-1.88-2.16-.22-2.14-1.55-.9-2.39.68-.46,1.54-.59,2.34-.58,3.51.02,2.64,4.59.58,5.97-4.95,3.33-12.41-1.9-9.85-7.6,1.25-2.77,4.42-4.55,7.35-4.73,3.68-.23,6.74,2.58,8.37,5.59,3.73,6.9-2.01,13.07-8.19,15.37-6.85,2.55-15.14,1.73-22.14.36-7.4-1.46-14.51-4.21-21.49-7C58.16,9.72,45.21,3.36,30.39,3.66c-7.42.15-16.3,2.36-20.62,8.89-.48.73.67,1.38,1.16.68h0Z"/>
        <path class="cls-1" d="M15.56,8.23c5.4-4.33,13.29-3.14,19.19-.62,5.95,2.54,9.12,7.46,11.21,13.35,1.58,4.46,2.41,9.81,5.43,13.57,2.48,3.1,6.18,5.52,10.21,5.91,3.96.38,7.38-1.16,9.63-4.44,1.99-2.9,2.62-6.85.34-9.73-4.29-5.43-14.7-1.41-12.28,5.8.87,2.6,3.67,3.97,6.25,3.54,2.75-.46,4.54-3.54,3.28-5.99-.57-1.1-2.21-.13-1.66.97,1.44,2.88-3.06,3.44-4.46,2.76-1.54-.75-2.2-2.67-1.83-4.25.42-1.77,1.77-3.02,3.42-3.64,3.37-1.26,7.28.96,7.67,4.55.52,4.77-3.9,9.04-8.37,9.42-4.25.36-8.4-2.13-11.08-5.24-3.13-3.63-3.91-9.12-5.49-13.52-1.48-4.13-3.53-7.95-6.9-10.83-6.37-5.44-18.25-8.19-24.78-1.84-.16.15.07.36.23.23h0Z"/>
        <path class="cls-1" d="M67.25,39.34c1.79-2.01,4.91-3.17,7.52-3.34,1.79-.12,3.51.57,4.19,2.32.72,1.85-1.86,4.4-3.24,2.46-.43-.61-.14-1.17.53-1.24.58-.06,1.02-.77.51-1.23-1.91-1.74-3.56,1.32-2.71,3.04,1.48,3,5.72,1.79,6.34-1.18.65-3.12-2.49-5.06-5.13-5.04-3.05.03-6.31,1.7-8.11,4.12-.05.06.06.14.11.09h0Z"/>
        <path class="cls-1" d="M74.32,16.3c6.88,4.28,15.64-.78,14.49-9.02-.84-6.06-7.11-7.63-11.47-3.68-1.85,1.67-2.34,4.14-1.23,6.36,1.28,2.56,5.57,4.06,7.84,1.87,1.73-1.68,2.07-6.16-1.23-6.05-1.56.05-4.04,2.83-1.5,3.06.54.05.89-.64.62-1.08-.16.59-.13.7.09.35.17-.22.51-.34.75-.42.91-.31.74,1.24.67,1.66-.13.8-.8,1.27-1.5,1.51-2.04.7-4.12-.98-4.58-2.87-.73-2.98,3.28-5.18,5.66-5.38,4.78-.41,5.49,5.61,4.54,9.01-1.6,5.73-8.45,5.86-13.08,4.53-.1-.03-.15.11-.07.16h0Z"/>
        <path class="cls-1" d="M91.96,22.7c3.8.94,9.5,1.55,11.05,5.88.95,2.66-1.33,5.2-3.88,5.41-1.28.11-2.65-.41-3.15-1.67-.71-1.78,2.28-4.37,3.05-1.88.16.52-.27.35-.68.59.33.57.67,1.14,1,1.72.6-.41.62-.23-.04-.2.5-.02.83-.46.72-.95-.17-.77-1.07-.98-1.68-.57-1.06.71-.1,2.39,1,1.72.63-.38,1.26-.22,1.59-1.01.34-.82.05-1.98-.48-2.67-1.41-1.79-3.66-1.3-5.04.23-1.08,1.2-1.07,3.43.09,4.59,1.35,1.33,3.21,1.53,4.99,1.11,3.93-.92,4.78-5.8,2.51-8.66-2.17-2.75-7.65-4.77-11.07-3.82-.08.02-.09.15,0,.17h0Z"/>
        <path class="cls-1" d="M106.38,6.65c-1.01,2.05-4.2,2.25-5.92,1.15-.99-.63-1.16-1.92-.63-2.9.36-.67,1.07-1.19,1.78-1.43.93-.32,1.29.92.41,1.22-1.65.56.04,2.72.93,1.6.02-.02.04-.05.05-.07.32-.4.32-.81,0-1.22-.02-.02-.04-.05-.05-.07-.14.53-.28,1.07-.42,1.6,1.27-.46,1.78-1.14,1.85-2.53.05-1.05-1.15-2.12-2.13-2.2-2.4-.19-4.44,2.36-4.21,4.63.22,2.17,2.32,3.24,4.27,3.41,2.19.2,3.92-.98,4.29-3.11.02-.12-.15-.21-.21-.09h0Z"/>
      </g>
      <g>
        <path class="cls-1" d="M12.61,9.61C2.44,16.33,2.79,32.16,4.81,42.66c2.79,14.49,10.52,27.58,15.02,41.55,2.38,7.41,3.81,15.1,3.38,22.91-.34,6.36-2.44,13.97-8.89,16.65-6.71,2.79-14.87-3.65-13.23-10.79.63-2.73,3.08-5.13,5.71-5.89,3.04-.88,5.47,1.43,6.72,3.94,1.66,3.33-.24,9.16-4.7,8.08-1.58-.38-1.83-2.23-1.53-3.54.35-1.54,2.52-3.47,2.85-.21.12,1.19,2,1.2,1.88,0-.35-3.44-3.8-5-5.81-1.8-1.4,2.24-.89,6,1.77,7.04,4.11,1.6,7.3-1.67,7.93-5.53.64-3.95-1.8-8.35-5.72-9.44-3.95-1.1-7.51,1.91-9.18,5.2-2.24,4.4-.5,9.15,3.2,12.06,3.73,2.93,8.79,3.07,12.73.56,4.15-2.63,6.19-7.88,6.91-12.52,2.76-17.95-6.01-35.03-12.63-51.12-3.42-8.31-6.22-16.92-6.59-25.97-.33-8.01,1.68-18.15,8.67-23.06.7-.49.05-1.64-.68-1.16h0Z"/>
        <path class="cls-1" d="M8.05,15.17c-6.18,6.36-3.73,17.87,1.42,24.25,2.83,3.5,6.49,5.6,10.64,7.2,4.4,1.69,9.44,2.44,13.37,5.14,3.58,2.45,5.97,6.83,6.01,11.17.04,4.83-4.28,8.7-8.98,8.88-3.84.15-5.94-3.97-5.12-7.32.42-1.72,1.68-3.03,3.31-3.66,1.48-.57,2.91-.13,4.07.88,1.68,1.48.92,6.8-2.14,5.27-1.1-.55-2.07,1.09-.97,1.66,1.88.97,3.53.33,4.89-1.18,1.54-1.71,1.46-3.95.48-5.89-1.91-3.79-7.06-3.37-9.59-.63-2.03,2.21-2,5.63-.84,8.22,1.34,2.98,4.47,4.06,7.51,3.54,3.97-.68,7.29-3.83,8.22-7.69.93-3.85-.69-7.98-2.99-11.01-2.86-3.77-7.02-5.17-11.35-6.57-5.43-1.76-10.99-3.35-15.05-7.6-5.54-5.8-7.96-17.83-2.66-24.43.13-.16-.08-.39-.23-.23h0Z"/>
        <path class="cls-1" d="M39.31,66.98c-4.01,2.98-6.93,13.18.74,13.27,3.29.04,3.97-4.52,1.67-6.21-1.7-1.25-5.17.55-3.35,2.55.46.51,1.18.07,1.23-.51.05-.49.18-.68.7-.7,2.13-.05.99,3.39-.89,3.6-2.23.26-3.25-2.13-3.35-3.9-.16-2.69,1.32-6.21,3.34-8,.06-.05-.02-.16-.08-.11h0Z"/>
        <path class="cls-1" d="M16.19,74.23c1.34,4.63,1.22,10.17-3.58,12.71-3.58,1.89-10.1.75-9.96-4.17.08-2.58,2.23-5.66,4.98-5.7,2.07-.03,3.36,2.12,3.38,3.95,0,.74-.36,1.45-.94,1.89-.33.25-2.27.76-2.37-.06-.04-.33.16-.65.31-.91.39-.66.44.14-.2-.27.43.27,1.12-.08,1.08-.62-.23-2.55-2.78-.08-3.03,1.25-.56,3.11,4.03,3.53,5.71,1.8,2.33-2.41,1.31-6.17-1.23-7.97-2.1-1.48-4.67-.8-6.44.8-4.29,3.86-2.77,10.54,2.91,11.63,8.42,1.62,13.96-7.33,9.56-14.42-.05-.09-.19-.03-.16.07h0Z"/>
        <path class="cls-1" d="M22.58,91.8c-.97,3.5,1.08,8.33,3.52,10.8,2.75,2.79,7.4,1.68,8.84-1.85,1.42-3.48-1.7-8.05-5.45-5.58-1.42.94-2.29,3.61-.71,4.85.65.51,1.88,1.25,2.76.88.98-.41.79-.9,1.27-1.7.67-1.11-1.01-2.06-1.72-1-.41.61-.2,1.51.57,1.69.49.11.93-.22.95-.72-.03.66-.21.64.2.04-.57-.33-1.14-.67-1.72-1-.15.27-.22.52-.31.82-.81-.3-1.18-1.01-1.11-2.15.45-.79,1.13-1.18,2.03-1.16,1.59-.04,2.25,1.57,2.34,2.87.2,2.77-2.38,4.83-5.04,4.39-4.59-.76-5.38-7.62-6.25-11.15-.02-.09-.15-.08-.17,0h0Z"/>
        <path class="cls-1" d="M6.79,106.43c2.12-.37,3.09-1.9,3.12-4.02.03-2.01-1.15-4.11-3.22-4.51-2.36-.46-4.66,1.62-4.85,3.91-.1,1.22.99,2.02,1.99,2.38,1.34.48,2.39-.77,2.77-1.82-.47.19-.94.38-1.4.57.02.01.03.02.05.04.22.16.65.16.87,0,.02-.01.03-.02.05-.04,1.43-1.09-.86-2.67-1.4-1.08-.21.61-1.18.84-1.27-.05-.07-.73.64-1.44,1.12-1.88.99-.91,2.5-.66,3.26.38,1.22,1.65.8,4.95-1.15,5.92-.12.06-.03.23.09.21h0Z"/>
      </g>
    </g>
  </g>
</svg>