<?xml version="1.0" encoding="UTF-8"?>
<svg id="Capa_2" data-name="Capa 2" xmlns="http://www.w3.org/2000/svg" viewBox="0 0 472.26 154.9">
  <defs>
    <style>
      .cls-1 {
        fill: none;
        stroke: #a63d4c;
        stroke-miterlimit: 10;
      }

      .cls-2 {
        fill: #a63d4c;
      }
    </style>
  </defs>
  <g id="Capa_1-2" data-name="Capa 1">
    <g>
      <g>
        <g>
          <path class="cls-2" d="M212.25,109.08h8.66c9.81,0,15.28-7.86,17.23-13.16v13.96h-53.63l26.86-34.54c6.98-8.92,9.45-13.34,9.45-16.34,0-6.1-2.74-10.16-9.19-10.16s-14.75,5.83-14.75,14.58c0,3.71,1.68,10.51,3.53,12.55h-8.57c-4.06,0-6.71-3.18-6.71-7.07,0-11.57,9.63-20.85,26.5-20.85,12.1,0,26.5,7.69,26.5,21.29.44,4.15-2.03,9.01-4.51,12.19l-21.38,27.56Z"/>
          <path class="cls-2" d="M269.15,48.03c18.82,0,24.56,13.16,25.36,15.02,7.33,17.67-3.36,46.82-25.18,46.82h-19.08v-13.87c1.77,4.59,4.33,13.16,12.37,13.16,11.13,0,13.69-8.39,13.69-19.35-2.12.88-4.68,1.41-7.16,1.41-14.67,0-26.5-10.25-26.5-21.91s11.84-21.29,26.5-21.29ZM269.15,90.44c4.51,0,5.04-16.61,5.04-21.12,0-10.78-.8-20.5-5.04-20.5s-5.04,9.72-5.04,20.5.79,21.12,5.04,21.12Z"/>
        </g>
        <g>
          <path class="cls-2" d="M218.89,154.69h2.28c2.58,0,4.02-2.07,4.53-3.46v3.67h-14.11l7.06-9.09c1.84-2.35,2.49-3.51,2.49-4.3,0-1.6-.72-2.67-2.42-2.67s-3.88,1.53-3.88,3.83c0,.98.44,2.77.93,3.3h-2.25c-1.07,0-1.77-.84-1.77-1.86,0-3.04,2.53-5.48,6.97-5.48,3.18,0,6.97,2.02,6.97,5.6.12,1.09-.53,2.37-1.19,3.21l-5.62,7.25Z"/>
          <path class="cls-2" d="M240.84,146.76c0,4.49-3.11,8.13-6.97,8.13s-6.97-3.65-6.97-8.13,3.11-8.13,6.97-8.13,6.97,3.65,6.97,8.13ZM235.19,146.76c0-4.37-.6-7.92-1.32-7.92s-1.32,3.56-1.32,7.92.58,7.92,1.32,7.92,1.32-3.56,1.32-7.92Z"/>
          <path class="cls-2" d="M249.3,154.69h2.28c2.58,0,4.02-2.07,4.53-3.46v3.67h-14.11l7.06-9.09c1.84-2.35,2.49-3.51,2.49-4.3,0-1.6-.72-2.67-2.42-2.67s-3.88,1.53-3.88,3.83c0,.98.44,2.77.93,3.3h-2.25c-1.07,0-1.77-.84-1.77-1.86,0-3.04,2.53-5.48,6.97-5.48,3.18,0,6.97,2.02,6.97,5.6.12,1.09-.54,2.37-1.19,3.21l-5.62,7.25Z"/>
          <path class="cls-2" d="M263.41,154.9c-4.44,0-6.11-2.04-6.11-4.07s1.23-3,2.74-3h1.12c-1.07.58-1.32,2.28-1.32,3.37,0,2.84,2.46,3.49,3.58,3.49s2.74-1.42,2.74-4.25c0-4.23-1.56-4.72-4.58-4.72h-3.74v-7.09h11.57v3.65c-.49-1.39-1.93-3.44-4.51-3.44h-1.44v6.44h.81c3.86,0,5.42,2.88,5.42,5.02,0,3.09-2.42,4.6-6.28,4.6Z"/>
        </g>
        <g>
          <path class="cls-2" d="M19.48,67.42v25.73h-8.9L.33,71.57v3.9c0,7.2,6.43,10.77,6.43,17.68H0v-25.73h8.9l10.26,21.58v-3.9c0-7.21-6.4-10.77-6.4-17.68h6.73Z"/>
          <path class="cls-2" d="M38.89,84.14c0,4.96-4.04,9.01-9.04,9.01s-9.04-4.04-9.04-9.01,4.04-8.97,9.04-8.97,9.04,4.01,9.04,8.97ZM32.16,84.14c0-4.78-1.29-8.64-2.32-8.64s-2.32,3.86-2.32,8.64,1.29,8.67,2.32,8.67,2.32-3.9,2.32-8.67Z"/>
          <path class="cls-2" d="M55.21,79.58c-.22.7-.48,1.36-.73,1.98l-5.04,11.58h-6.87l-4.04-17.97h6.87l3.9,17.39,2.87-6.47c.48-2.65,1.1-8.42-1.62-10.92h3.82c1.8,0,1.54,2.21.85,4.41Z"/>
          <path class="cls-2" d="M56.86,78.26c2.57-.48,4.81-1.51,6.69-3.09v17.97h-6.69v-14.89ZM57.27,72.64c-.55-1.4-.66-3.27.55-4.38,1.25-1.14,3.6-1.14,4.82.07,1.1,1.07,1.03,2.68.7,4.04-.62,2.68-3.97,3.75-6.29,4.3.4-.66.62-1.36.62-1.99,0-.73-.15-1.43-.4-2.06Z"/>
          <path class="cls-2" d="M79.54,88.66c0,2.94-3.23,4.74-6.18,4.74-4.67,0-8.67-4.52-8.67-9.48s3.79-8.75,8.71-8.75c2.72,0,5.15,1.21,5.15,4.12s-2.21,6.69-5.81,7.17c1.8,1.69,3.53,2.13,4.82,2.13.96,0,1.65-.26,1.95-.48.04.18.04.37.04.55ZM68.96,79.14c0,2.24,1.47,4.78,3.05,6.54,1.14-2.32,1.62-4.45,1.62-6.1,0-2.24-.88-3.68-2.46-3.68-1.69,0-2.21,1.58-2.21,3.23Z"/>
          <path class="cls-2" d="M109.65,82.19v10.95h-6.69v-13.64c0-2.02-.81-3.09-2.13-3.09-1.43,0-2.21,1.25-3.01,2.17.55,1.03.88,2.24.88,3.6v10.95h-6.69v-13.64c0-2.02-.81-3.09-2.21-3.09-.99,0-1.51.55-2.06,1.14v15.59h-6.69v-14.89c2.57-.48,4.81-1.51,6.69-3.09v1.91c.73-.77,2.21-1.91,4.41-1.91s4.3,1.21,5.48,3.12c1.32-1.69,2.87-3.12,5.4-3.12,3.68,0,6.62,2.94,6.62,7.02Z"/>
          <path class="cls-2" d="M129.68,84.14c0,4.78-2.61,9.01-9.04,9.01h-9.52v-22.61c2.57-.51,4.81-1.54,6.69-3.12v9.3c.92-.88,1.8-1.54,3.9-1.54,5.18,0,7.98,4.01,7.98,8.97ZM122.99,84.62c0-4.67-1.4-8.75-3.01-8.75-.73,0-2.17.77-2.17,2.35v10.29c0,2.1.07,4.3,1.8,4.3,2.21,0,3.38-3.9,3.38-8.2Z"/>
          <path class="cls-2" d="M142.03,81.02c-.37-2.06-3.31-2.43-4.19-.74v12.87h-6.69v-14.89c2.57-.48,4.81-1.51,6.69-3.09v4.52c.7-3.05,3.23-4.52,6.25-4.52l-2.06,5.84Z"/>
          <path class="cls-2" d="M157.87,88.66c0,2.94-3.23,4.74-6.18,4.74-4.67,0-8.67-4.52-8.67-9.48s3.79-8.75,8.71-8.75c2.72,0,5.15,1.21,5.15,4.12s-2.21,6.69-5.81,7.17c1.8,1.69,3.53,2.13,4.82,2.13.96,0,1.65-.26,1.95-.48.04.18.04.37.04.55ZM147.29,79.14c0,2.24,1.47,4.78,3.05,6.54,1.14-2.32,1.62-4.45,1.62-6.1,0-2.24-.88-3.68-2.46-3.68-1.69,0-2.21,1.58-2.21,3.23Z"/>
        </g>
        <g>
          <path class="cls-2" d="M335.1,93.15h-9.48l9.48-25.4h-5.29c-4.12,0-6.4,3.24-7.17,5.44v-5.77h22.02l-9.56,25.73Z"/>
          <path class="cls-2" d="M350.1,83.19c-1.91,0-3.42-1.51-3.42-3.38s1.51-3.38,3.42-3.38,3.34,1.51,3.34,3.38-1.51,3.38-3.34,3.38ZM350.1,93.15c-1.91,0-3.42-1.51-3.42-3.42s1.51-3.34,3.42-3.34,3.34,1.51,3.34,3.34-1.51,3.42-3.34,3.42Z"/>
          <path class="cls-2" d="M377.55,80.28c0,7.09-4.92,12.87-11.03,12.87s-11.03-5.77-11.03-12.87,4.93-12.87,11.03-12.87,11.03,5.77,11.03,12.87ZM368.62,80.28c0-6.91-.96-12.54-2.1-12.54s-2.09,5.62-2.09,12.54.92,12.53,2.09,12.53,2.1-5.62,2.1-12.53Z"/>
          <path class="cls-2" d="M401.44,80.28c0,7.09-4.92,12.87-11.03,12.87s-11.03-5.77-11.03-12.87,4.93-12.87,11.03-12.87,11.03,5.77,11.03,12.87ZM392.51,80.28c0-6.91-.96-12.54-2.1-12.54s-2.09,5.62-2.09,12.54.92,12.53,2.09,12.53,2.1-5.62,2.1-12.53Z"/>
          <path class="cls-2" d="M430.85,84.18c0,4.96-2.79,8.97-7.98,8.97-2.09,0-2.98-.66-3.9-1.54v9.3c-1.87-1.58-4.12-2.61-6.69-3.09v-22.64h6.69v1.91c.55-.96,1.36-1.91,3.57-1.91,4.15,0,8.31,3.34,8.31,9.01ZM424.16,83.7c0-4.3-1.18-7.94-2.98-7.94-1.21,0-2.21,1.73-2.21,2.39v11.95c0,1.14.96,2.35,2.17,2.35,1.62,0,3.01-4.08,3.01-8.75Z"/>
          <path class="cls-2" d="M460.92,82.19v10.95h-6.69v-13.64c0-2.02-.81-3.09-2.13-3.09-1.43,0-2.21,1.25-3.01,2.17.55,1.03.88,2.24.88,3.6v10.95h-6.69v-13.64c0-2.02-.81-3.09-2.21-3.09-.99,0-1.51.55-2.06,1.14v15.59h-6.69v-14.89c2.57-.48,4.82-1.51,6.69-3.09v1.91c.74-.77,2.21-1.91,4.41-1.91s4.3,1.21,5.48,3.12c1.32-1.69,2.87-3.12,5.4-3.12,3.68,0,6.62,2.94,6.62,7.02Z"/>
        </g>
        <g>
          <path class="cls-2" d="M183.02,15.72c2.06,3.46,12.75,8.42,16.47,8.42,1.03,0,1.21-.4,1.21-.96,0-1.29-2.5-2.79-9.34-5.62-3.86-1.62-8.27-4.15-8.27-9.01,0-9.52,8.53-9.34,20-7.68l-2.98,8.42c-3.68-4.23-8.75-6.47-10.7-6.95-1.99-.48-3.01-.55-3.53-.04-1.36,1.32,2.72,4.23,6.21,5.77,5.18,2.28,10.7,4.78,10.7,10.07,0,5.81-3.79,8.53-9.26,8.53-2.94,0-6.58-.37-10.51-2.06v-8.9Z"/>
          <path class="cls-2" d="M220.88,26.27h-9.15c-5.51,0-7.87-1.58-7.87-4.67,0-5.18,6.62-5.81,10.33-6.14v-.51c0-.81-.11-1.99-2.1-1.99-1.36,0-3.6.55-6.14,3.2,0-7.83,5.77-7.94,6.8-7.94,5.04,0,8.12,2.65,8.12,6.4v11.65ZM210.55,6.38l-.18-.26,2.79-3.12c.44-.51,1.25-.48,1.62.07.4.51.22,1.29-.4,1.54l-3.82,1.76ZM214.19,15.79c-2.46.33-3.57,2.57-3.57,5.81,0,2.54.29,4.34,2.1,4.34,1.25,0,1.47-.96,1.47-1.99v-8.16Z"/>
          <path class="cls-2" d="M240.91,17.3c0,4.78-2.61,9.01-9.04,9.01h-9.52V3.7c2.57-.51,4.81-1.54,6.69-3.12v9.3c.92-.88,1.8-1.54,3.9-1.54,5.18,0,7.98,4.01,7.98,8.97ZM234.22,17.78c0-4.67-1.4-8.75-3.01-8.75-.73,0-2.17.77-2.17,2.35v10.29c0,2.1.07,4.3,1.8,4.3,2.21,0,3.38-3.9,3.38-8.2Z"/>
          <path class="cls-2" d="M258.7,26.27h-9.15c-5.51,0-7.87-1.58-7.87-4.67,0-5.18,6.62-5.81,10.33-6.14v-.51c0-.81-.11-1.99-2.09-1.99-1.36,0-3.6.55-6.14,3.2,0-7.83,5.77-7.94,6.8-7.94,5.04,0,8.12,2.65,8.12,6.36v11.69ZM252.01,15.79c-2.46.33-3.57,2.57-3.57,5.81,0,2.54.29,4.34,2.1,4.34,1.25,0,1.47-.96,1.47-1.99v-8.16Z"/>
          <path class="cls-2" d="M278.73,26.31h-6.69v-1.91c-.55.96-1.36,1.91-3.57,1.91-4.15,0-8.31-3.34-8.31-9.01,0-4.96,2.79-8.97,7.98-8.97,2.09,0,2.98.66,3.9,1.54V3.66c2.57-.48,4.78-1.51,6.69-3.09v25.73ZM272.04,11.38c0-1.14-.96-2.35-2.17-2.35-1.62,0-3.01,4.08-3.01,8.75,0,4.3,1.14,7.94,2.94,7.94,1.29,0,2.24-1.8,2.24-2.39v-11.95Z"/>
          <path class="cls-2" d="M298.29,17.3c0,4.96-4.04,9.01-9.04,9.01s-9.04-4.04-9.04-9.01,4.04-8.97,9.04-8.97,9.04,4.01,9.04,8.97ZM291.56,17.3c0-4.78-1.29-8.64-2.32-8.64s-2.32,3.86-2.32,8.64,1.29,8.67,2.32,8.67,2.32-3.9,2.32-8.67Z"/>
        </g>
      </g>
      <g>
        <line class="cls-1" y1="55.06" x2="157.87" y2="55.06"/>
        <line class="cls-1" y1="109.87" x2="157.87" y2="109.87"/>
      </g>
      <g>
        <line class="cls-1" x1="314.39" y1="55.06" x2="472.26" y2="55.06"/>
        <line class="cls-1" x1="314.39" y1="109.87" x2="472.26" y2="109.87"/>
      </g>
    </g>
  </g>
</svg>