<?xml version="1.0" encoding="UTF-8"?>
<svg id="Capa_2" data-name="Capa 2" xmlns="http://www.w3.org/2000/svg" viewBox="0 0 310.52 324.19">
  <defs>
    <style>
      .cls-1 {
        fill: #fce0e5;
      }

      .cls-2 {
        fill: #a63d4c;
      }
    </style>
  </defs>
  <g id="Capa_1-2" data-name="Capa 1">
    <g>
      <g>
        <g>
          <path class="cls-2" d="M111.64,201.65h-33.89v-77.67c0-3.35-1.67-6.14-5.16-6.83,2.51-.7,25.38-8.09,39.05-13.11v97.62Z"/>
          <path class="cls-2" d="M155.42,201.65c-26.63,0-36.68-12.27-36.68-24.4s7.39-17.99,16.46-17.99h6.69c-6.41,3.49-7.95,13.67-7.95,20.22,0,17.01,14.78,20.92,21.48,20.92s16.45-8.51,16.45-25.52c0-25.38-9.34-28.31-27.47-28.31h-22.45v-42.53h69.45v21.89c-2.93-8.37-11.57-20.64-27.05-20.64h-8.65v38.63h4.88c23.15,0,32.49,17.29,32.49,30.12,0,18.55-14.5,27.61-37.65,27.61Z"/>
          <path class="cls-2" d="M200.19,126.07l-.7-.98,10.6-11.85c1.67-1.95,4.6-1.81,6.14.28,1.53,1.95.84,4.88-1.53,5.86l-14.5,6.69Z"/>
          <path class="cls-2" d="M265.45,196.08c2.65,0,3.07-1.67,3.07-3.21,0-6.28-19.11-11.3-23.99-12.97-10.32-3.77-21.75-11.99-21.75-24.68,0-24.96,22.45-24.54,52.43-20.22l-7.81,22.03c-9.62-11.02-22.87-16.87-28.03-18.13-5.16-1.26-7.67-1.26-9.06.14-3.63,3.49,6.97,9.9,16.18,13.95,13.53,6,28.03,13.39,28.03,27.33,0,15.2-9.9,22.03-24.4,22.03-7.67,0-16.87-1.81-27.47-5.44v-23.29c5.3,9.06,33.05,22.45,42.81,22.45Z"/>
        </g>
        <g>
          <path class="cls-2" d="M25.46,218.25l-5.02,19.8c0,10.04,1.39,31.93,13.39,41.42h-14.5c-6.83,0-7.39-8.37-6.14-16.87,2.23-15.2,7.53-30.68,11.3-45.6-4.32-5.58-8.51-11.3-11.85-17.15-2.79-4.88-3.35-8.92-1.67-11.85,3.21-5.44,12.97-6.14,19.94-6.14h34.44l22.03,97.62h-34.44l-7.53-33.19c-3.49-6.55-7.81-12.83-17.29-24.82l-2.65-3.21ZM24.9,215.46l7.25-28.03-.98-4.32c-6.42,0-16.32.7-19.1,5.58-1.53,2.51-.98,6,1.67,10.6,3.07,5.44,7.11,10.88,11.16,16.18ZM44.42,241.96l-11.71-51.74-6.83,26.5,3.21,4.04c5.44,6.69,11.02,13.67,15.34,21.2Z"/>
          <path class="cls-2" d="M161.56,279.47h-25.38v-51.88c0-7.53-3.07-11.57-8.23-11.57-4.74,0-6.69,3.21-9.48,6v57.45h-25.38v-56.48c9.76-1.81,18.27-5.72,25.38-11.71v8.92c1.95-2.23,7.95-8.92,18.27-8.92,13.67,0,24.82,11.16,24.82,26.63v41.56Z"/>
          <path class="cls-2" d="M235.75,279.47h-25.38v-51.88c0-7.53-3.07-11.57-8.23-11.57-4.74,0-6.69,3.21-9.48,6v57.45h-25.38v-56.48c9.76-1.81,18.27-5.72,25.38-11.71v8.92c1.95-2.23,7.95-8.92,18.27-8.92,13.67,0,24.82,11.16,24.82,26.63v41.56Z"/>
          <path class="cls-2" d="M295.71,235.54l-19.1,43.93v34.72c-7.11-6-15.62-9.48-25.38-11.3v-23.43l-15.34-68.19h25.38l14.92,65.96,10.74-24.54c1.81-10.04,4.18-31.93-6.14-41.42h14.5c6.83,0,5.86,8.37,3.21,16.87-.84,2.51-1.81,5.02-2.79,7.39Z"/>
        </g>
        <g>
          <path class="cls-2" d="M18.13,292.54c1.08,0,2.08.27,3.02.81.94.54,1.67,1.28,2.21,2.21.54.94.81,1.94.81,3.02,0,.91-.21,1.79-.62,2.63-.41.85-.99,1.55-1.71,2.11s-1.52.94-2.39,1.14l4.23,4.97h-1.81l-4.08-4.82h-1.27v4.82h-1.37v-15.53h-2.04l.82-1.37h4.2ZM16.51,303.26h1.62c1.39,0,2.52-.46,3.38-1.39.86-.93,1.29-2.02,1.29-3.28,0-.93-.22-1.75-.67-2.46s-1.03-1.26-1.74-1.64c-.71-.38-1.47-.57-2.26-.57h-1.62v9.34Z"/>
          <path class="cls-2" d="M42.16,292.54h1.37v12.5c0,.78-.2,1.51-.6,2.19-.4.68-.94,1.22-1.62,1.62-.68.4-1.41.6-2.19.6s-1.51-.2-2.19-.6c-.68-.4-1.22-.94-1.62-1.62-.4-.68-.6-1.41-.6-2.19v-12.5h1.37v12.5c0,.78.29,1.48.86,2.1.57.62,1.3.93,2.17.93.8,0,1.5-.28,2.11-.85.61-.56.92-1.29.92-2.19v-12.5Z"/>
          <path class="cls-2" d="M62.61,298.63c.88.5,1.59,1.19,2.14,2.08.55.89.82,1.88.82,2.97s-.26,2.01-.77,2.9c-.51.89-1.21,1.59-2.1,2.1-.89.51-1.85.77-2.9.77h-3.65v-10.17h-2.06l.82-1.39h1.24v-5.34h4.5c.93,0,1.72.33,2.37.98.65.65.98,1.45.98,2.4,0,1.14-.46,2.05-1.39,2.71ZM57.52,297.91h3.13c.6,0,1.08-.2,1.44-.61.36-.41.55-.87.55-1.38,0-.6-.19-1.08-.58-1.45-.39-.37-.86-.56-1.4-.56h-3.13v4ZM57.52,299.28v8.8h2.29c1.26,0,2.31-.44,3.14-1.32.84-.88,1.26-1.91,1.26-3.08,0-.84-.2-1.6-.61-2.26-.41-.66-.95-1.18-1.63-1.57-.68-.38-1.4-.57-2.16-.57h-2.29Z"/>
          <path class="cls-2" d="M76.13,309.44v-16.9h1.37v16.9h-1.37Z"/>
          <path class="cls-2" d="M96.84,292.2c1.61,0,3.08.39,4.42,1.18,1.34.79,2.41,1.85,3.19,3.18.79,1.33,1.18,2.8,1.18,4.41s-.39,3.08-1.18,4.42c-.79,1.34-1.85,2.41-3.19,3.19-1.34.79-2.82,1.18-4.42,1.18s-3.08-.39-4.41-1.18c-1.33-.79-2.39-1.85-3.18-3.19-.79-1.34-1.18-2.82-1.18-4.42,0-1.18.22-2.3.67-3.38s1.08-2.03,1.9-2.85c.82-.82,1.76-1.45,2.83-1.89,1.07-.44,2.19-.66,3.37-.66ZM96.84,293.56c-1.33,0-2.56.33-3.7.98-1.14.65-2.05,1.56-2.71,2.72-.66,1.16-.99,2.39-.99,3.7s.33,2.58.99,3.73c.66,1.14,1.57,2.05,2.71,2.71,1.14.66,2.38.99,3.7.99s2.58-.33,3.73-.99c1.14-.66,2.05-1.57,2.71-2.71.66-1.14.99-2.39.99-3.73s-.33-2.54-.99-3.7c-.66-1.16-1.57-2.07-2.71-2.72-1.14-.65-2.39-.98-3.73-.98Z"/>
          <path class="cls-2" d="M135.53,292.54h3.28c1.19,0,2.3.22,3.32.66s1.91,1.04,2.67,1.8c.76.76,1.36,1.65,1.8,2.67s.66,2.12.66,3.32c0,1.52-.38,2.94-1.13,4.24-.75,1.3-1.78,2.33-3.08,3.08-1.3.75-2.71,1.13-4.24,1.13h-2.06v-15.53h-2.04l.82-1.37ZM138.82,308.08c1.29,0,2.48-.31,3.57-.94,1.08-.63,1.94-1.49,2.57-2.58.63-1.09.94-2.28.94-3.55,0-.96-.19-1.88-.57-2.77-.38-.89-.88-1.64-1.49-2.25-.61-.61-1.36-1.11-2.25-1.49-.89-.38-1.81-.57-2.77-.57h-.7v14.17h.7Z"/>
          <path class="cls-2" d="M165.26,292.54h1.37v12.5c0,.78-.2,1.51-.6,2.19-.4.68-.94,1.22-1.62,1.62-.68.4-1.41.6-2.19.6s-1.51-.2-2.19-.6c-.68-.4-1.22-.94-1.62-1.62-.4-.68-.6-1.41-.6-2.19v-12.5h1.37v12.5c0,.78.29,1.48.86,2.1.57.62,1.3.93,2.17.93.8,0,1.5-.28,2.11-.85.61-.56.92-1.29.92-2.19v-12.5Z"/>
          <path class="cls-2" d="M190.78,308.35c-1.44.94-3.05,1.42-4.82,1.42-1.18,0-2.3-.23-3.38-.68s-2.02-1.09-2.83-1.9c-.81-.81-1.44-1.76-1.89-2.85-.45-1.08-.67-2.21-.67-3.37s.22-2.31.67-3.39c.45-1.08,1.08-2.04,1.9-2.86s1.76-1.45,2.83-1.89c1.07-.44,2.19-.66,3.37-.66,1.61,0,3.08.39,4.42,1.18,1.34.79,2.41,1.85,3.19,3.19s1.18,2.82,1.18,4.42c0,2.6-.96,4.78-2.88,6.54l1.37,1.84-1.09.82-1.37-1.81ZM191.06,306.39c.75-.7,1.32-1.51,1.73-2.45.41-.94.61-1.93.61-2.97,0-1.31-.33-2.54-.99-3.7-.66-1.16-1.57-2.07-2.71-2.72-1.14-.65-2.39-.98-3.73-.98s-2.56.33-3.7.98c-1.14.65-2.05,1.56-2.71,2.72-.66,1.16-.99,2.39-.99,3.7s.33,2.58.99,3.73c.66,1.14,1.57,2.05,2.71,2.71,1.14.66,2.38.99,3.7.99,1.47,0,2.81-.39,4-1.17l-1.94-2.61,1.12-.84,1.91,2.61Z"/>
          <path class="cls-2" d="M212.75,292.54h1.37v12.5c0,.78-.2,1.51-.6,2.19-.4.68-.94,1.22-1.62,1.62-.68.4-1.41.6-2.19.6s-1.51-.2-2.19-.6c-.68-.4-1.22-.94-1.62-1.62-.4-.68-.6-1.41-.6-2.19v-12.5h1.37v12.5c0,.78.29,1.48.86,2.1.57.62,1.3.93,2.17.93.8,0,1.5-.28,2.11-.85.61-.56.92-1.29.92-2.19v-12.5Z"/>
          <path class="cls-2" d="M307.37,207.12c-2.77-3.77-7.06-5.84-12.08-5.84h-14.5c-1.36,0-2.68.28-3.89.79,4.91-5.43,7.61-12.82,7.61-21.75,0-8.12-3.17-14.56-7.77-19.73.03-.07,7.89-22.25,7.89-22.25,1-2.82.68-5.95-.87-8.51-1.55-2.56-4.17-4.3-7.13-4.73-11.47-1.65-19.29-2.36-26.14-2.36-31.18,0-37.72,17.66-37.72,32.48,0,4.12.81,8.08,2.37,11.79-1.58,1.78-2.51,4.12-2.51,6.62v23.29c0,1.59.38,3.12,1.06,4.49-.92-.07-1.84-.12-2.78-.12-3.37,0-7.52.52-11.92,2.27-.64-.53-1.35-.98-2.13-1.34-1.35-.63-2.79-.93-4.21-.93-.67,0-1.33.07-1.99.21,8.03-6.45,12.4-15.78,12.4-27.44,0-18.21-13.06-37.49-37.37-39.88v-18.82c11.37.87,15.78,12.52,16.26,13.89,1.42,4.06,5.25,6.7,9.43,6.7.55,0,1.12-.05,1.68-.14.91-.15,1.77-.43,2.58-.81,1.4.71,2.96,1.09,4.54,1.09,1.41,0,2.84-.3,4.19-.92l14.37-6.63c3.9-1.69,6.75-5.01,7.84-9.13,1.08-4.1.18-8.54-2.39-11.91-2.64-3.52-6.8-5.62-11.16-5.62-4,0-7.8,1.74-10.45,4.77l-1.18,1.32v-3.42c2.1-1.28,3.83-3.14,5.02-5.46,1.38-2.71,1.74-5.43,2-7.41.04-.33.1-.75.14-1.01,4.71-12.06,6.77-16.5,7.57-18.06.1-.07.2-.13.28-.19,2.31-1.57,6.61-4.48,7.47-10.2.38-2.49.17-6.29-2.96-10.2-2.47-3.09-5.88-4.79-9.58-4.79-1.5,0-2.97.29-4.34.83-.18-2.62-.95-6.03-3.53-8.79-2.19-2.34-5.15-3.63-8.34-3.63-1.91,0-3.77.46-5.5,1.33-1.52-2.09-3.53-3.76-5.86-4.86-.4-3.7-2.12-7.02-5.07-9.62-3.5-3.09-6.96-3.74-9.24-3.74-3.27,0-6.32,1.27-8.72,3.57-1.86-3.75-5.08-6.85-9.35-8.7-2.79-1.22-5.62-1.83-8.4-1.83-.25,0-.51,0-.76.01-1.49-3.59-4.33-7.13-9.28-10.26-1.64-1.04-3.49-1.55-5.34-1.55-2.3,0-4.59.79-6.44,2.34-4.53,3.81-6.87,7.73-7.84,11.53-.89.07-1.79.2-2.69.38-7.13,1.44-12.44,6.42-14.37,12.84-2.29-1.52-4.89-2.33-7.58-2.33-5.44,0-10.29,3.38-12.36,8.61-.74,1.89-1.1,3.88-1.07,5.92-2.12,1.29-3.91,3.11-5.2,5.34-.1.17-.19.33-.28.5-1.24-.37-2.52-.56-3.8-.56-3.67,0-7.09,1.6-9.39,4.38-1.54,1.87-3.16,4.95-2.94,9.56-.85-.18-1.71-.28-2.58-.28-4.34,0-8.23,2.35-10.4,6.29-2.54,4.59-2.07,8.46-1.22,10.9,1.85,5.35,6.44,7.36,8.74,8.33,2.69,3.45,7.96,14.51,9.77,18.31.66,1.38,1.23,2.59,1.7,3.54,1.2,2.44,2.8,4.43,4.69,5.9-1.18,1.72-1.83,3.81-1.75,6.01.13,3.58,2.15,6.72,5.15,8.38v46.25c-.78-.19-1.58-.3-2.41-.3H30.9c-9.46,0-22.71,1.15-28.56,11.06-.02.04-.05.08-.07.12-2.46,4.3-4.16,11.57,1.67,21.78,2.94,5.15,6.36,10.03,9.63,14.38-.82,3.05-1.69,6.15-2.59,9.36-2.98,10.6-6.07,21.56-7.69,32.59-1.55,10.54-.25,18.05,4,22.97.16.19.35.36.52.54-.97.75-1.81,1.67-2.46,2.75l-.82,1.37c-1.85,3.09-1.9,6.94-.13,10.07.22.39.47.77.74,1.12v9.48c0,5.52,4.48,10,10,10h1.37c.93,0,1.82-.13,2.68-.36.86.24,1.76.36,2.67.36h1.81c2.64,0,5.1-1.06,6.94-2.83.41.3.83.6,1.28.86,2.2,1.29,4.7,1.97,7.24,1.97s5.04-.68,7.24-1.97c.78-.46,1.49-1,2.16-1.58,1.83,2.16,4.57,3.54,7.63,3.54h3.65c2.82,0,5.48-.71,7.91-2.12.46-.26.88-.57,1.3-.87,1.81,1.84,4.33,2.98,7.12,2.98h1.37c3.12,0,5.91-1.43,7.75-3.68.66.52,1.36,1,2.1,1.43,2.89,1.7,6.08,2.57,9.49,2.57s6.59-.86,9.48-2.55c2.83-1.66,5.1-3.93,6.76-6.76,1.69-2.89,2.55-6.08,2.55-9.48s-.86-6.6-2.57-9.49c-.42-.7-.87-1.37-1.36-2.01h6.76c3.84,0,7.18-2.17,8.85-5.35.28.54.63,1.04,1.01,1.51-.51.53-.98,1.12-1.37,1.77l-.82,1.37c-1.85,3.09-1.9,6.94-.13,10.07.22.39.47.77.74,1.12v9.48c0,5.52,4.48,10,10,10h2.06c3.3,0,6.42-.83,9.25-2.48,1.22-.71,2.33-1.54,3.34-2.48,1.02,1.17,2.2,2.19,3.58,2.99,2.2,1.29,4.7,1.97,7.24,1.97s5.04-.68,7.24-1.97c1.35-.79,2.52-1.79,3.53-2.94,1.65,1.58,3.56,2.85,5.69,3.75,2.31.98,4.76,1.47,7.28,1.47.95,0,1.88-.07,2.79-.2,1.09.39,2.25.59,3.41.59,2.09,0,4.2-.65,6-2l1.09-.82c.49-.37.92-.79,1.33-1.22.6.49,1.22.96,1.9,1.35,2.2,1.29,4.7,1.97,7.24,1.97s5.04-.68,7.24-1.97c.78-.46,1.49-1,2.16-1.57,1.83,2.16,4.57,3.54,7.63,3.54h7.75c5.25,0,9.55-4.05,9.96-9.2,1.35,1.24,3.04,2.13,4.94,2.48,8.59,1.6,15.38,4.57,20.76,9.11,1.84,1.55,4.13,2.35,6.45,2.35,1.43,0,2.87-.31,4.21-.93,3.53-1.64,5.78-5.18,5.78-9.07v-32.64s18.33-42.14,18.35-42.2c1.24-3.01,2.23-5.64,3.03-8.03.02-.06.04-.13.06-.19,2.35-7.55,4.4-17.11-.68-24.01ZM155.27,190.4c-2.22-.03-11.32-.78-11.32-10.92,0-6.41,1.75-10.79,2.72-11.43,4-2.18,6.03-6.78,4.93-11.2,2.96.29,5.55.86,6.87,1.99,1.27,1.08,3.41,4.6,3.41,16.05,0,10.53-4.83,15.06-6.61,15.52ZM91.26,213.16c-3.32.62-6,2.84-7.3,5.77l-1.64-7.27h14.97c-1.93.61-3.94,1.12-6.02,1.51ZM182.08,206.68c-4.85,3.15-10.42,5.33-16.63,6.48-.79.15-1.54.39-2.25.71-.68-.83-1.39-1.63-2.14-2.39,8.07-.51,15.12-2.15,21.03-4.8ZM43.42,282.54h-.08s.03-.08.04-.12c.01.04.03.08.04.12ZM35.95,249.84l5.17,22.8c-.34-.36-.7-.7-1.1-1.01-5.52-4.37-9.09-15.88-9.54-30.44,2.26,3.23,3.98,5.97,5.47,8.65ZM271.03,209.11v-.04c-.14-.6-.34-1.18-.57-1.73.58-.35,1.15-.72,1.7-1.1-.26.45-.49.92-.68,1.41-.19.48-.33.97-.44,1.46ZM278.32,241.33l-5.4-23.89c.33.43.7.83,1.11,1.2,3.56,3.27,5.09,11.88,4.29,22.69Z"/>
          <path class="cls-2" d="M228.11,308.08h6.39v1.37h-7.75v-10.17h-2.06l.82-1.37h1.24v-5.37h7.75v1.37h-6.39v4h4.05v1.37h-4.05v8.8Z"/>
        </g>
      </g>
      <g>
        <g>
          <path class="cls-1" d="M111.64,201.65h-33.89v-77.67c0-3.35-1.67-6.14-5.16-6.83,2.51-.7,25.38-8.09,39.05-13.11v97.62Z"/>
          <path class="cls-1" d="M155.42,201.65c-26.63,0-36.68-12.27-36.68-24.4s7.39-17.99,16.46-17.99h6.69c-6.41,3.49-7.95,13.67-7.95,20.22,0,17.01,14.78,20.92,21.48,20.92s16.45-8.51,16.45-25.52c0-25.38-9.34-28.31-27.47-28.31h-22.45v-42.53h69.45v21.89c-2.93-8.37-11.57-20.64-27.05-20.64h-8.65v38.63h4.88c23.15,0,32.49,17.29,32.49,30.12,0,18.55-14.5,27.61-37.65,27.61Z"/>
          <path class="cls-1" d="M200.19,126.07l-.7-.98,10.6-11.85c1.67-1.95,4.6-1.81,6.14.28,1.53,1.95.84,4.88-1.53,5.86l-14.5,6.69Z"/>
          <path class="cls-1" d="M265.45,196.08c2.65,0,3.07-1.67,3.07-3.21,0-6.28-19.1-11.3-23.99-12.97-10.32-3.77-21.75-11.99-21.75-24.68,0-24.96,22.45-24.54,52.43-20.22l-7.81,22.03c-9.62-11.02-22.87-16.87-28.03-18.13-5.16-1.26-7.67-1.26-9.06.14-3.63,3.49,6.97,9.9,16.18,13.95,13.53,6,28.03,13.39,28.03,27.33,0,15.2-9.9,22.03-24.4,22.03-7.67,0-16.87-1.81-27.47-5.44v-23.29c5.3,9.06,33.05,22.45,42.81,22.45Z"/>
        </g>
        <g>
          <path class="cls-1" d="M25.46,218.25l-5.02,19.8c0,10.04,1.39,31.93,13.39,41.42h-14.5c-6.83,0-7.39-8.37-6.14-16.87,2.23-15.2,7.53-30.68,11.3-45.6-4.32-5.58-8.51-11.3-11.85-17.15-2.79-4.88-3.35-8.92-1.67-11.85,3.21-5.44,12.97-6.14,19.94-6.14h34.44l22.03,97.62h-34.44l-7.53-33.19c-3.49-6.55-7.81-12.83-17.29-24.82l-2.65-3.21ZM24.9,215.46l7.25-28.03-.98-4.32c-6.42,0-16.32.7-19.1,5.58-1.53,2.51-.98,6,1.67,10.6,3.07,5.44,7.11,10.88,11.16,16.18ZM44.42,241.96l-11.71-51.74-6.83,26.5,3.21,4.04c5.44,6.69,11.02,13.67,15.34,21.2Z"/>
          <path class="cls-1" d="M161.56,279.47h-25.38v-51.88c0-7.53-3.07-11.57-8.23-11.57-4.74,0-6.69,3.21-9.48,6v57.45h-25.38v-56.48c9.76-1.81,18.27-5.72,25.38-11.71v8.92c1.95-2.23,7.95-8.92,18.27-8.92,13.67,0,24.82,11.16,24.82,26.63v41.56Z"/>
          <path class="cls-1" d="M235.75,279.47h-25.38v-51.88c0-7.53-3.07-11.57-8.23-11.57-4.74,0-6.69,3.21-9.48,6v57.45h-25.38v-56.48c9.76-1.81,18.27-5.72,25.38-11.71v8.92c1.95-2.23,7.95-8.92,18.27-8.92,13.67,0,24.82,11.16,24.82,26.63v41.56Z"/>
          <path class="cls-1" d="M295.71,235.54l-19.1,43.93v34.72c-7.11-6-15.62-9.48-25.38-11.3v-23.43l-15.34-68.19h25.38l14.92,65.96,10.74-24.54c1.81-10.04,4.18-31.93-6.14-41.42h14.5c6.83,0,5.86,8.37,3.21,16.87-.84,2.51-1.81,5.02-2.79,7.39Z"/>
        </g>
        <g>
          <path class="cls-1" d="M18.13,292.54c1.08,0,2.08.27,3.02.81.94.54,1.67,1.28,2.21,2.21.54.94.81,1.94.81,3.02,0,.91-.21,1.79-.62,2.63-.41.85-.99,1.55-1.71,2.11s-1.52.94-2.39,1.14l4.23,4.97h-1.81l-4.08-4.82h-1.27v4.82h-1.37v-15.53h-2.04l.82-1.37h4.2ZM16.51,303.26h1.62c1.39,0,2.52-.46,3.38-1.39.86-.93,1.29-2.02,1.29-3.28,0-.93-.22-1.75-.67-2.46s-1.03-1.26-1.74-1.64c-.71-.38-1.47-.57-2.26-.57h-1.62v9.34Z"/>
          <path class="cls-1" d="M42.16,292.54h1.37v12.5c0,.78-.2,1.51-.6,2.19-.4.68-.94,1.22-1.62,1.62-.68.4-1.41.6-2.19.6s-1.51-.2-2.19-.6c-.68-.4-1.22-.94-1.62-1.62-.4-.68-.6-1.41-.6-2.19v-12.5h1.37v12.5c0,.78.29,1.48.86,2.1.57.62,1.3.93,2.17.93.8,0,1.5-.28,2.11-.85.61-.56.92-1.29.92-2.19v-12.5Z"/>
          <path class="cls-1" d="M62.61,298.63c.88.5,1.59,1.19,2.14,2.08.55.89.82,1.88.82,2.97s-.26,2.01-.77,2.9c-.51.89-1.21,1.59-2.1,2.1-.89.51-1.85.77-2.9.77h-3.65v-10.17h-2.06l.82-1.39h1.24v-5.34h4.5c.93,0,1.72.33,2.37.98.65.65.98,1.45.98,2.4,0,1.14-.46,2.05-1.39,2.71ZM57.52,297.91h3.13c.6,0,1.08-.2,1.44-.61.36-.41.55-.87.55-1.38,0-.6-.19-1.08-.58-1.45-.39-.37-.86-.56-1.4-.56h-3.13v4ZM57.52,299.28v8.8h2.29c1.26,0,2.31-.44,3.14-1.32.84-.88,1.26-1.91,1.26-3.08,0-.84-.2-1.6-.61-2.26-.41-.66-.95-1.18-1.63-1.57-.68-.38-1.4-.57-2.16-.57h-2.29Z"/>
          <path class="cls-1" d="M76.13,309.44v-16.9h1.37v16.9h-1.37Z"/>
          <path class="cls-1" d="M96.84,292.2c1.61,0,3.08.39,4.42,1.18,1.34.79,2.41,1.85,3.19,3.18.79,1.33,1.18,2.8,1.18,4.41s-.39,3.08-1.18,4.42c-.79,1.34-1.85,2.41-3.19,3.19-1.34.79-2.82,1.18-4.42,1.18s-3.08-.39-4.41-1.18c-1.33-.79-2.39-1.85-3.18-3.19-.79-1.34-1.18-2.82-1.18-4.42,0-1.18.22-2.3.67-3.38s1.08-2.03,1.9-2.85c.82-.82,1.76-1.45,2.83-1.89,1.07-.44,2.19-.66,3.37-.66ZM96.84,293.56c-1.33,0-2.56.33-3.7.98-1.14.65-2.05,1.56-2.71,2.72-.66,1.16-.99,2.39-.99,3.7s.33,2.58.99,3.73c.66,1.14,1.57,2.05,2.71,2.71,1.14.66,2.38.99,3.7.99s2.58-.33,3.73-.99c1.14-.66,2.05-1.57,2.71-2.71.66-1.14.99-2.39.99-3.73s-.33-2.54-.99-3.7c-.66-1.16-1.57-2.07-2.71-2.72-1.14-.65-2.39-.98-3.73-.98Z"/>
          <path class="cls-1" d="M135.53,292.54h3.28c1.19,0,2.3.22,3.32.66s1.91,1.04,2.67,1.8c.76.76,1.36,1.65,1.8,2.67s.66,2.12.66,3.32c0,1.52-.38,2.94-1.13,4.24-.75,1.3-1.78,2.33-3.08,3.08-1.3.75-2.71,1.13-4.24,1.13h-2.06v-15.53h-2.04l.82-1.37ZM138.82,308.08c1.29,0,2.48-.31,3.57-.94,1.08-.63,1.94-1.49,2.57-2.58.63-1.09.94-2.28.94-3.55,0-.96-.19-1.88-.57-2.77-.38-.89-.88-1.64-1.49-2.25-.61-.61-1.36-1.11-2.25-1.49-.89-.38-1.81-.57-2.77-.57h-.7v14.17h.7Z"/>
          <path class="cls-1" d="M165.26,292.54h1.37v12.5c0,.78-.2,1.51-.6,2.19-.4.68-.94,1.22-1.62,1.62-.68.4-1.41.6-2.19.6s-1.51-.2-2.19-.6c-.68-.4-1.22-.94-1.62-1.62-.4-.68-.6-1.41-.6-2.19v-12.5h1.37v12.5c0,.78.29,1.48.86,2.1.57.62,1.3.93,2.17.93.8,0,1.5-.28,2.11-.85.61-.56.92-1.29.92-2.19v-12.5Z"/>
          <path class="cls-1" d="M190.78,308.35c-1.44.94-3.05,1.42-4.82,1.42-1.18,0-2.3-.23-3.38-.68s-2.02-1.09-2.83-1.9c-.81-.81-1.44-1.76-1.89-2.85-.45-1.08-.67-2.21-.67-3.37s.22-2.31.67-3.39c.45-1.08,1.08-2.04,1.9-2.86s1.76-1.45,2.83-1.89c1.07-.44,2.19-.66,3.37-.66,1.61,0,3.08.39,4.42,1.18,1.34.79,2.41,1.85,3.19,3.19s1.18,2.82,1.18,4.42c0,2.6-.96,4.78-2.88,6.54l1.37,1.84-1.09.82-1.37-1.81ZM191.06,306.39c.75-.7,1.32-1.51,1.73-2.45.41-.94.61-1.93.61-2.97,0-1.31-.33-2.54-.99-3.7-.66-1.16-1.57-2.07-2.71-2.72-1.14-.65-2.39-.98-3.73-.98s-2.56.33-3.7.98c-1.14.65-2.05,1.56-2.71,2.72-.66,1.16-.99,2.39-.99,3.7s.33,2.58.99,3.73c.66,1.14,1.57,2.05,2.71,2.71,1.14.66,2.38.99,3.7.99,1.47,0,2.81-.39,4-1.17l-1.94-2.61,1.12-.84,1.91,2.61Z"/>
          <path class="cls-1" d="M212.75,292.54h1.37v12.5c0,.78-.2,1.51-.6,2.19-.4.68-.94,1.22-1.62,1.62-.68.4-1.41.6-2.19.6s-1.51-.2-2.19-.6c-.68-.4-1.22-.94-1.62-1.62-.4-.68-.6-1.41-.6-2.19v-12.5h1.37v12.5c0,.78.29,1.48.86,2.1.57.62,1.3.93,2.17.93.8,0,1.5-.28,2.11-.85.61-.56.92-1.29.92-2.19v-12.5Z"/>
          <path class="cls-1" d="M228.11,308.08h6.39v1.37h-7.75v-10.17h-2.06l.82-1.37h1.24v-5.37h7.75v1.37h-6.39v4h4.05v1.37h-4.05v8.8Z"/>
        </g>
      </g>
      <path class="cls-1" d="M130.54,30.82c4.45-5.25,8.88-11.5,16.86-8.03,10.13,4.41,3.72,19.94-5.52,12.76-.58-2.84,2-.1,4.23-.9,5.86-2.11,1.27-13.18-7.36-7.44-12.38,8.23-1.98,27.46,5.56,35.67.93,1.01,5.56,5.42,6.28,5.43,2.93.04,11.17-10.3,11.94-13.77.85-3.89.67-13.44-4.8-13.58-4.98-.13-4.48,8.02-7.44,7.57-6.03-.92,2.11-17.86,11.52-9.45,1.94,1.74,1.8,4.58,3.71,5.41-1.9-3.99-.03-20.3,6.56-14.49,5.74,5.06-4.42,14.54-3.49,15.28,1.14.91,4.09-3.31,5.69-3.95,9.84-3.93,11.29,11.64,3.46,10.21-1.27-.23-3.76-2.77-2.95-3.67.21-.23,5.17,2.42,4.74-1.65-.67-6.38-8.99-.51-10.04,5.94-.86,5.24,1.85,17.95,6.96,20.22,3.67,1.63,14.69-9.97,11.24-16.15-3.28-5.86-6.15,6.27-8.03,4.33-1.39-4.89.97-9.93,6.45-9.06,3.68.59,1.77,4.26,4.31,5.32-2.53-7.59,7.34-17.35,6.58-6.04-.21,3.17-4.71,5.8-3.49,6.84.38.33,3.58-3.44,5.93-1.98,2.11,1.32,2.35,8.1-1.94,7.63s1.84-2.73,1.06-4.99c-9.02-2.06-8.57,19.96-5.1,20.38,1.75.21,9.92-6.51,10.82-8.36,3.98-8.13-1.88-3.94-2.17-4.25-2.49-2.67,2.86-5.88,5.9-1.4-1.23-2.92,2.15-10.11,5.12-6.4,3.25,4.06-3.16,5.54-4.87,8.01-2.07,2.98-7.46,16.81-9.14,21.12-1.13,2.9.01,9.34-5.21,9.14-3.65-.14-13.32-4.15-18.15-5.13-31.45-6.37-61.58-2.64-91.4,8.44-5.74,2.13-12.19,8.48-15.7,1.35-2.81-5.71-9.83-21.45-14.18-25.39-1.87-1.7-7.57-1.84-5.02-6.43,2.05-3.71,7.2,2.69,5.93,5.64l4.26-3.29c5.1,5.83-1.05,2.79-1.27,3.09-2.85,3.93,10.6,12.83,13.31,12.12,3.63-.96.32-19.92-6.38-20.59-3.93,3.26,1.97,3.74,1.8,4.36-.95,3.4-5.67,1.57-5.77-2.62-.17-6.76,7.13-1.64,7.46-2,1.2-1.3-4.3-3.22-4.94-6.54-1.86-9.66,10.43-3.56,6.81,4.41,3.68.31,1-3.83,4.62-4.92,2.16-.65,3.99-.38,5.61,1.27,2.8,2.85,2.08,8.38-.59,6.05-2.17-1.89-.75-5.44-5.1-3.59-6.83,2.92,7.94,18.45,12.47,15.65,6.38-3.94,6.98-24.45-1.12-27.82-3.83-1.59-7.08.82-5.05,3.62,1.55,2.14,4.21-.59,4.5-.31.89.89-1.24,3.64-2.43,4.03-7.56,2.48-8.23-13.15,2.05-10.58,2.44.61,3.56,3.45,6.17,3.14-16.71-15.6,4.2-25.18,2.94-1.2,1.84-.96,1.22-4.08,2.91-5.89,8.21-8.8,18.43,4.92,12.74,7.83-3.34,1.71-2.93-3.48-4.87-5.15-6.6-5.69-10.04,6.38-6.26,13.62,1.52,2.9,10.51,11.61,13.48,11.19,2.17-.31,8.93-11.88,10.05-14.46,3.41-7.82,5.87-16.47.31-24.05-8.51-11.6-18.8.98-11.18,4.26,2.83,1.22,5.1-2.35,5.04.61-10.86,10.03-17.1-10.61-4.31-13.18,6.98-1.4,10.16,3.11,14.91,6.96-4.11-7.98-8.37-13.91.09-21.03,9.34,5.9,5.92,12.36,2.93,20.82ZM148.67,76.7l-12.41-14.27-5.25-9.58-4.89,10.26c-1.1,3.84-9.64,11.92-10.46,14.34-.69,2.04,1.46,1.4,2.62,1.35,3-.12,5.72-1.37,8.83-1.69,7.21-.73,14.36-.62,21.56-.42ZM112.68,78.16c-.46-.48-6.73-3.63-8.36-4.95-2.74-2.22-4.51-5.17-7.47-7.02,1.88,3.56-6.74,18.32-5.7,19.43,6.67-3.25,13.94-4.22,21.17-5.44.86-.14.53-1.84.36-2.02ZM173.95,80c.88-1.25-9.65-14.7-8.27-18.48-4.65,4.66-7.95,10.85-14.07,14,.29,1.43,1.48,1.57,2.7,1.73,6.38.87,13.36.41,19.65,2.75ZM78.62,78.46c-3-1.87-1.5,5.17-1.66,6.5-.27,2.29-.64,4.55-1.44,6.71l13.7-4.93c.37-2.42-.53-1.58-1.46-2.13-2.46-1.46-5.78-2.63-8.29-4.22-.9-.57-.77-1.87-.86-1.92ZM187.38,71.07l-11.46,8.28,13.33,4.61-1.87-12.9ZM74.52,91.77l-11.31-4.25c2.62,3.18,3.05,8.67,7.49,7.03.89-.33,3.95-1.56,3.81-2.79ZM201.89,78.11l-10.56,6.71c8.23,3.61,7.77,0,10.56-6.71Z"/>
    </g>
  </g>
</svg>