<?xml version="1.0" encoding="UTF-8"?>
<svg id="Capa_2" data-name="Capa 2" xmlns="http://www.w3.org/2000/svg" viewBox="0 0 162.21 169.58">
  <defs>
    <style>
      .cls-1 {
        fill: #c8777b;
      }
    </style>
  </defs>
  <g id="Capa_1-2" data-name="Capa 1">
    <g>
      <path class="cls-1" d="M136.56.02c-2.53-.18-4.81,1-6.92,2.25-.58.34-1.15.69-1.72,1.03-.33.19-.65.4-.99.57-.12.06-.26.11-.38.17-.28.12-.55.24-.83.36-.12.05-.24.12-.37.16-.09.03-.18.05-.27.07-.14.04-.29.07-.43.11-.31.08-.63.18-.94.25-.32.07-.64.12-.95.19-1.9.37-3.85.65-5.61,1.49-.83.4-1.59.92-2.32,1.49-1.06.82-2.06,1.73-3,2.68-1.07,1.07-2.07,2.2-2.97,3.41-.65.88-1.27,1.81-1.7,2.82-.21.5-.36,1.04-.48,1.57-.1-.07-.21-.14-.33-.18-.58-.22-1.16.18-1.59.53-.74.6-1.4,1.32-2.07,2-.28.28-.56.57-.86.83-.15.13-.32.24-.49.34-.39.23-.78.46-1.18.69-1.11.62-2.27,1.18-3.46,1.62-.92.34-1.89.57-2.81.93-.4.16-.79.33-1.17.55-.27.15-.52.33-.79.49-.31.19-.62.37-.92.55-.14.08-.28.17-.42.26-.64.31-1.26.65-1.81,1.11-.61.52-1.08,1.19-1.17,2,0,.07-.01.14-.01.21-.15.11-.3.2-.48.25-.52.15-1.07.11-1.6.16-.73.07-1.41.35-2.09.62-.53.21-1.05.46-1.56.71-.75.37-1.52.68-2.25,1.07-1.16.61-2.27,1.32-3.32,2.1-1.81,1.35-3.48,2.92-4.91,4.67-.99,1.21-1.86,2.52-2.62,3.89-1.54,2.74-2.64,5.74-3.14,8.84-.08.5-.15,1-.19,1.5-.05.5-.08,1.01-.09,1.51,0,.17,0,.35,0,.52-1-.61-2-1.22-2.99-1.84-1.19-.74-2.36-1.5-3.52-2.28-.05-.03-.1-.05-.15-.07-.56-.8-1.05-1.68-1.19-2.66-.05-.37-.03-.74,0-1.11.02-.28.04-.57.06-.85.06-1.15.04-2.54-.88-3.37-.1-.09-.22-.18-.33-.25-.14-.09-.3-.16-.46-.2-.12-.03-.24-.05-.37-.06-.56,0-.97.35-1.22.82-.17.32-.27.67-.36,1.02-.05.19-.09.39-.16.58-.03.09-.08.18-.14.27-.1.15-.19.29-.3.42-.1.12-.2.24-.33.33-.26.18-.57.28-.87.38-.22.08-.44.16-.65.25-.74.33-1.44.77-2.06,1.29-.43.37-.83.78-1.12,1.28-.19.32-.31.68-.36,1.04-.04.36,0,.73.13,1.08.05.13.11.25.18.36.44.65,1.23.65,1.93.59.17-.02.34-.03.5-.07.22-.05.44-.12.66-.17.11-.02.21-.03.32-.04.49-.03.98.01,1.46.09.48.08.96.12,1.43.22.6.13,1.18.32,1.76.52.1.04.21.07.31.11.25.08.48.19.73.24.93.4,1.86.82,2.75,1.3.55.3,1.09.61,1.64.92,1.08.62,2.15,1.26,3.2,1.92.2.12.4.25.6.38.15.79.35,1.57.48,2.37.02.14.05.27.07.41.01.14.01.29.02.43,0,.14.02.29.03.44,0,.17,0,.34,0,.51,0,.29-.02.57-.04.86-1.3-.87-2.69-1.6-4.11-2.28-.36-.17-.72-.34-1.07-.51-.29-.14-.57-.27-.87-.37-.53-.18-1.08-.27-1.63-.3-1.33-.07-2.65.21-3.95.44-1.11.2-2.24.38-3.37.23-1.68-.22-3.19-1.02-4.76-1.61-.73-.27-1.48-.52-2.22-.74-1.15-.35-2.33-.66-3.52-.85-1.4-.23-2.84-.28-4.26-.14-1.09.1-2.16.32-3.19.67-1.31.44-2.54,1.08-3.67,1.86-1.55,1.07-2.91,2.4-4.17,3.79-.97,1.07-1.88,2.18-2.79,3.3-.55.68-1.09,1.38-1.7,2.01-.9.93-1.92,1.74-2.95,2.53-1.82,1.41-3.72,2.81-5.05,4.73-.52.76-.97,1.6-1.25,2.47-.07.22-.14.46-.17.7-.04.24-.04.48,0,.72.08.45.38.8.77,1.01.19.11.41.17.6.28.16.09.31.21.47.3.41.25.84.47,1.29.65.77.31,1.57.52,2.37.72.68.16,1.36.32,2.02.55,1.71.62,3.28,1.62,4.63,2.84,1.22,1.1,2.32,2.31,3.42,3.52-2.16.66-4.23,1.56-6.18,2.72-7.34,4.35-12.69,11.93-14.11,20.37-.12.7-.22,1.41-.25,2.13-.04,1.11.05,2.23.17,3.34.25,2.36.68,4.88-.14,7.17-.33.93-.87,1.76-1.45,2.54-.67.9-1.41,1.74-2.06,2.65-1.4,1.96-2.44,4.2-2.78,6.59-.05.34-.08.69-.1,1.03-.04.7,0,1.4.1,2.1.08.53.2,1.06.42,1.55.27.59.72,1.13,1.39,1.25.65.12,1.23-.21,1.66-.68.23-.25.41-.53.62-.79.16-.19.32-.37.48-.55,1.2-1.27,2.74-2.19,4.4-2.74,1.05-.35,2.14-.51,3.22-.73-.08.44-.14.87-.18,1.32-.13,1.46-.03,2.93.22,4.37.15.83.35,1.64.59,2.45.13.44.28.88.41,1.32.39,1.31.71,2.66,1.41,3.86.69,1.18,1.6,2.2,2.44,3.27.72.91,1.4,1.88,1.76,3,.47,1.49.45,3.09.63,4.63.15,1.26.47,2.5.73,3.74.09.45.14.9.23,1.34.16.74.47,1.7,1.31,1.9.09.02.18.03.27.03.13,0,.27-.02.4-.06.16-.05.3-.12.43-.23.2-.17.31-.41.38-.66.04-.13.05-.27.09-.4.04-.13.09-.26.13-.38.25-.83.3-1.7.38-2.56.06-.68.13-1.36.37-2,.07-.19.16-.38.28-.55.19-.27.45-.47.71-.66.17-.12.34-.23.51-.34.92-.55,2.02-1.11,2.55-2.13.13-.25.22-.52.28-.79.16-.7.16-1.43.11-2.15-.06-.86-.19-1.71-.35-2.55-.08-.44-.18-.89-.26-1.33-.2-1.14-.29-2.31-.26-3.47.48-2.29,1.25-4.52,2.28-6.62.91-1.88,2.03-3.67,3.46-5.2.04-.04.06-.1.07-.15,1.26-1.42,2.65-2.73,4.1-3.93.51-.42,1.06-.8,1.62-1.17.33-.15.66-.31.99-.45,1.5-.66,3.03-1.26,4.57-1.83.14-.04.29-.09.43-.13,2.29-.64,4.68-.9,7.06-.93,3.43-.04,6.84.39,10.22.88,1.35.2,2.69.41,4.04.62,4.17.66,8.31,1.49,12.41,2.46,8.67,2.04,17.19,4.7,25.54,7.79,2.73,1.01,5.44,2.07,8.13,3.17,2.02.83,4.02,1.68,6.03,2.53,5.15,2.18,10.33,4.33,15.71,5.84,1.43.4,2.88.76,4.34,1.06.57.24,1.14.49,1.74.65.2.05.4.09.6.12.29.04.59.06.88.13.13.03.26.08.4.12.14.04.28.08.43.11.58.13,1.18.19,1.77.28,1.56.26,3.13.45,4.71.37.21-.01.41-.03.62-.05.54-.06,1.06-.24,1.55-.49.14-.07.28-.13.43-.18.8-.24,1.82-.77,1.83-.78.45-.37.82-.82,1.02-1.37.14-.26.25-.54.34-.82.04-.13.05-.26.04-.4-.01-.2,0-.41.02-.61.08-.63.22-1.24.37-1.85.28-2.98-1-5.91-2.41-8.48-1.6-2.92-3.61-5.59-5.28-8.47-1.72-2.96-3.15-6.09-4.75-9.11-1.44-2.73-2.97-5.44-3.95-8.38-1.64-4.9-2.29-10.06-3.24-15.12-.34-1.8-.57-3.63-1.08-5.39-.16-.55-.35-1.09-.58-1.62.43-.11.86-.26,1.28-.43.94-.39,1.82-.9,2.74-1.34,1.64-.78,3.37-1.29,5.18-1.43.4-.03.8-.02,1.2.03,1.16.15,2.21.68,3.16,1.35,1.12.79,2.11,1.74,3.17,2.6,1.59,1.29,3.34,2.34,5.3,2.95.72.23,1.46.32,2.2.37.59.04,1.19.06,1.78,0,.55-.06,1.19-.19,1.55-.66.12-.15.19-.33.24-.51.26-.93-.34-1.78-.97-2.41-.42-.42-.9-.77-1.35-1.16-.29-.25-.56-.52-.82-.79-1.63-1.68-2.91-3.71-3.62-5.95-.27-.84-.47-1.7-.72-2.54-.48-1.65-1.05-3.31-2.03-4.73-.6-.87-1.32-1.59-2.14-2.25-.83-.67-1.75-1.24-2.77-1.57-.31-.1-.63-.14-.95-.19-.26-.04-.52-.06-.7-.27-.14-.17-.19-.39-.22-.6-.03-.24-.05-.48-.07-.73-.02-.21-.04-.42-.09-.62-.05-.24-.14-.48-.22-.72-.62-1.76-1.66-3.38-3.14-4.54-.42-.33-.87-.61-1.34-.84-.96-.48-2-.78-3.01-1.15-1.03-.37-2.11-.81-2.84-1.67-.56-.66-.94-1.45-1.3-2.23-.45-.97-.89-1.96-1.51-2.85-.09-.13-.19-.26-.29-.39-.03-.17-.06-.34-.08-.51.02-.02.04-.04.05-.07.65-1.09,1.21-2.23,1.65-3.43,1.58-4.26,1.74-8.93,1.14-13.39-.12-.93-.28-1.85-.4-2.78-.32-2.57-.51-5.2-.21-7.79.15-1.29.44-2.59,1-3.77.22-.47.49-.93.82-1.34.28-.34.6-.66.95-.92.9-.67,1.98-.98,3.06-1.23,1.12-.26,2.25-.47,3.33-.86.97-.35,1.89-.85,2.86-1.22.65-.25,1.35-.46,2.06-.44.29,0,.57.07.85.14.37.09.73.2,1.1.32.97.31,1.95.63,2.97.71.71.06,1.43,0,2.13-.15.37-.08.73-.19,1.07-.38.61-.33,1.04-.9.95-1.63-.06-.51-.45-.9-.81-1.24-.64-.6-1.34-1.15-2.14-1.52-.5-.23-1.03-.41-1.54-.61-.07-.1-.16-.18-.28-.22-.21-.08-.42-.15-.63-.22-.3-.17-.59-.36-.88-.56-.63-.42-1.24-.88-1.83-1.34-.77-.6-1.53-1.23-2.28-1.86-.33-.27-.66-.54-.98-.82-1.16-.99-2.21-2.15-2.93-3.5-.48-.9-.78-1.89-1.24-2.79-.43-.85-1.02-1.6-1.82-2.12-.47-.31-1-.54-1.54-.72-.62-.21-1.26-.34-1.91-.39ZM50.47,50.75c.16-.27.37-.51.6-.73.28-.27.58-.52.9-.74.13-.09.28-.19.42-.26.37-.18.78-.28,1.15-.45.34-.15.63-.38.88-.65.18-.19.32-.4.44-.62,0,0,0,0,0,.01.05.17.09.33.11.5-.05.15-.11.31-.17.45-.14.32-.3.63-.49.92-.19.29-.41.57-.68.78-.38.29-.84.44-1.31.54-.22.05-.44.08-.66.11-.18.02-.36.04-.53.09-.27.08-.52.21-.77.32-.01,0-.02,0-.03.01.04-.1.09-.19.14-.28ZM66.75,57.31c-.02-.29-.02-.58-.02-.88.01-3.87,1.13-7.7,2.93-11.11.21-.39.42-.78.65-1.16.1.29.2.58.31.86.31.76.71,1.48,1.11,2.2.81,1.45,1.74,2.83,2.66,4.21.52.79,1.04,1.59,1.53,2.4.9,1.48,1.76,2.99,2.6,4.5.07.13.22.17.35.1.13-.07.18-.23.11-.35-1.13-2.2-2.28-4.39-3.55-6.52-.85-1.44-1.74-2.86-2.51-4.35-.27-.53-.53-1.08-.76-1.63-.1-.24-.18-.49-.28-.73-.27-.69-.51-1.4-.7-2.11.26-.38.52-.75.8-1.12.01.03.03.07.04.1.04.08.08.15.12.22.17.32.34.64.52.96.56,1,1.16,1.97,1.72,2.97.06.13.22.18.35.12.13-.06.18-.22.12-.34-.45-1.08-.98-2.14-1.38-3.25-.1-.28-.2-.57-.27-.87-.02-.07-.03-.15-.05-.22-.07-.28-.17-.55-.25-.82,1.71-1.98,3.75-3.73,5.97-5.11.59-.36,1.19-.71,1.81-1.01.42-.21.86-.39,1.28-.59.73-.34,1.45-.7,2.2-1,.43-.17.88-.35,1.34-.41.4-.05.79-.04,1.19-.08.45-.04.9-.15,1.3-.36.14-.08.28-.17.41-.26.11.37.24.73.39,1.09.14.32.3.64.45.95.18.35.36.71.55,1.05.36.67.71,1.34,1.04,2.02,1.78,3.62,3.46,7.29,5.13,10.97.06.13.21.19.34.14.13-.06.19-.21.13-.34-1.53-3.7-3.08-7.38-4.68-11.04-.23-.52-.46-1.04-.69-1.55-.26-.57-.53-1.14-.77-1.72-.07-.18-.13-.35-.2-.53-.29-.72-.54-1.44-.71-2.19.01-.04.03-.08.04-.12.03-.1.05-.21.09-.31.09-.23.28-.44.44-.61.07-.08.15-.15.23-.23.22.51.48,1,.76,1.47.11.19.23.38.34.57.13.23.25.46.37.68.11.2.23.4.35.6.06.13.22.18.35.12.13-.06.18-.22.12-.35-.07-.17-.15-.33-.21-.5-.14-.34-.26-.68-.39-1.02-.2-.49-.41-.98-.54-1.5-.03-.14-.07-.29-.08-.43,0-.05,0-.1,0-.14,0-.08-.02-.17-.03-.25.31-.2.63-.4.94-.59.25-.15.51-.3.76-.46.15-.1.3-.19.45-.28.37-.21.76-.38,1.15-.52.86-.32,1.76-.54,2.62-.86,1.26-.47,2.48-1.06,3.65-1.71.33-.19.66-.38.99-.57.19-.11.39-.23.57-.35.15-.1.29-.22.43-.34.76-.68,1.44-1.46,2.17-2.16.21-.2.42-.39.64-.57.1.73.09,1.46,0,2.19-.11.94-.33,1.87-.58,2.78-.25.48-.51.95-.77,1.43-.41.75-.81,1.51-1.11,2.31-.31.84-.53,1.71-.69,2.59-.21,1.11-.33,2.24-.38,3.37-.06,1.22-.05,2.45.13,3.66.29,1.88.95,3.69,1.48,5.51.68,2.36,1.36,4.72,2.4,6.95.76,1.63,1.61,3.21,2.43,4.81,1.05,2.06,2.04,4.15,2.76,6.35.01.03.02.06.04.09-1.83,1.99-3.41,4.2-5.07,6.33-.03-.1-.07-.19-.11-.28-.03-.05-.06-.09-.09-.14-.11-.18-.21-.36-.31-.55-.37-.67-.76-1.33-1.13-2-.06-.13-.21-.19-.34-.13-.07.03-.11.08-.14.14-.02.06-.02.13,0,.2.23.67.48,1.33.68,2.01.07.24.13.48.17.72,0,.02,0,.03,0,.05-.04.58-.14,1.16-.34,1.71-.01.04-.03.07-.04.1-.16-.37-.32-.74-.48-1.11-.1-.22-.21-.42-.3-.64-.12-.26-.24-.51-.36-.77-.38-.82-.76-1.64-1.19-2.43-.46-.86-.97-1.7-1.48-2.54-.68-1.11-1.4-2.2-2.11-3.29-.08-.12-.24-.16-.36-.09-.06.04-.1.1-.12.16-.02.06,0,.14.03.2.83,1.42,1.66,2.84,2.42,4.29.29.55.57,1.09.83,1.65.39.84.72,1.71,1.04,2.58.08.22.16.44.24.66.06.18.11.36.18.54.2.53.41,1.04.64,1.56-.02.12-.04.24-.07.37-.05.18-.1.36-.16.54-1.03,1.2-2.08,2.39-3.14,3.57-.57-.76-1.11-1.55-1.61-2.36-1.1-1.8-2.02-3.71-2.87-5.65-.88-2-1.68-4.04-2.42-6.09-1.6-4.4-3-8.88-4.67-13.25-.79-2.06-1.63-4.1-2.58-6.09-.31-.65-.64-1.3-.97-1.94.05,0,.11-.02.16-.04.01,0,.02-.01.04-.01,0,0,.02,0,.02,0,.1.03.19.06.28.09.28.08.58.14.87.07.49-.11.82-.52.87-1.01.01-.13,0-.26-.02-.39-.06-.3-.21-.59-.45-.78-.19-.15-.4-.23-.62-.34-.12-.06-.23-.14-.35-.21,0,0,0,0-.01,0-.12-.16-.24-.32-.39-.45-.9-.79-2.28-.89-3.36-.42-.49.22-.94.56-1.22,1.02-.19.32-.31.71-.32,1.1-.02.39.06.79.23,1.13.08.16.19.31.33.43.69.61,1.67.4,2.48.14.94,1.78,1.79,3.6,2.57,5.46,2.34,5.6,4.07,11.42,6.21,17.09.66,1.74,1.35,3.45,2.1,5.15.86,1.95,1.8,3.88,2.92,5.7.57.93,1.19,1.82,1.85,2.68-.19.21-.38.42-.56.62-.9,1-1.81,1.99-2.71,2.99-.3.33-.6.67-.9,1.01-.18.2-.36.41-.57.59-.11.09-.22.17-.34.26-2.11-2.74-4.25-5.45-6.53-8.05-1.56-1.78-3.18-3.51-4.94-5.09-1.69-1.51-3.49-2.91-5.28-4.29-.88-.68-1.76-1.37-2.65-2.03-1.03-.76-2.08-1.49-3.15-2.2-1.61-1.06-3.24-2.07-4.88-3.08ZM67.55,62.48c0-.2-.02-.4-.03-.61,0-.13,0-.26-.02-.38-.02-.16-.05-.33-.08-.49-.02-.16-.04-.31-.07-.47-.04-.19-.08-.38-.12-.57,2.83,1.87,5.57,3.87,8.2,6,1.85,1.49,3.65,3.05,5.4,4.66,1.12,1.03,2.22,2.07,3.28,3.16.96.99,1.87,2.02,2.77,3.06.76.89,1.5,1.79,2.29,2.67,1.03,1.15,2.09,2.28,2.92,3.59.04.06.09.11.14.16-.04.03-.09.06-.13.09-.06.04-.13.08-.19.13-.11.09-.22.19-.32.28-.1.09-.21.18-.31.27-.17.16-.33.35-.48.54-.13.16-.24.32-.36.48-.37-.53-.77-1.04-1.2-1.52-.13-.14-.26-.27-.39-.4-.22-.22-.43-.45-.65-.67-.65-.65-1.32-1.3-1.98-1.94-.31-.3-.61-.6-.92-.9-.57-.57-1.13-1.16-1.73-1.72-1.24-1.16-2.54-2.25-3.87-3.31-.11-.09-.27-.08-.37.03-.05.05-.06.12-.06.19,0,.07.04.13.09.17,1.27,1.11,2.52,2.23,3.69,3.44.78.8,1.5,1.64,2.25,2.45.62.67,1.25,1.34,1.86,2.03.28.32.55.64.81.97.07.09.14.2.22.29.26.33.52.65.77.98.26.35.52.7.76,1.06-.48.92-.86,1.91-1.24,2.87-.12.31-.25.62-.38.93-.29-.43-.58-.85-.9-1.25-.99-1.29-2.1-2.49-3.2-3.69-.69-.76-1.37-1.54-2.09-2.29-.93-.97-1.91-1.9-2.92-2.8-3.15-2.79-6.58-5.26-9.95-7.78.07-.36-.09-.7-.32-.96-.28-.32-.62-.56-.96-.81-.11-.08-.21-.15-.32-.23-.03-.02-.07-.05-.1-.07,0,0,0,0-.01,0,0,0,0,0,0,0,0,0,0,0,0,0-.02-.02-.04-.05-.06-.07,0-.01-.02-.02-.03-.03-.03-.83,0-1.66.04-2.49.06-1.13.16-2.25.21-3.38.03-.55.06-1.11.05-1.66ZM83.9,89.59c-.05.05-.08.12-.07.19,0,.07.03.13.08.18.52.6,1.06,1.18,1.55,1.79.17.22.34.44.49.67.03.05.05.1.08.14.08.13.19.25.29.38-.1.12-.2.24-.3.36-.23-.35-.48-.69-.76-1.01-.12-.14-.25-.26-.38-.39-.54-.53-1.08-1.06-1.63-1.58-.29-.27-.57-.54-.85-.81-.4-.39-.79-.8-1.2-1.17-.84-.76-1.74-1.45-2.58-2.21-.22-.2-.44-.41-.65-.62-.1-.1-.27-.1-.37,0-.05.05-.07.12-.07.18,0,.07.02.13.07.18.21.22.42.45.63.66.74.75,1.54,1.45,2.29,2.19.69.69,1.31,1.44,1.97,2.16.44.48.88.96,1.29,1.47.08.1.16.19.24.3.08.1.14.21.22.31.33.43.65.87.94,1.33-.14.16-.28.33-.43.48-.19.2-.41.37-.63.54-.07.05-.15.1-.22.15-1.37-1.54-3.04-2.75-4.71-3.96-1.11-.8-2.19-1.62-3.34-2.37-1.04-.67-2.1-1.29-3.18-1.89-.13-.26-.26-.52-.39-.78-.54-1.04-1.06-2.09-1.54-3.16-1.44-3.21-2.59-6.58-3.16-10.05.06-.07.13-.13.19-.19,1.68,1.26,3.36,2.5,5.04,3.76,1.9,1.44,3.78,2.9,5.56,4.49.88.78,1.74,1.59,2.56,2.44.71.73,1.38,1.5,2.07,2.25,1.07,1.17,2.16,2.34,3.13,3.6.46.59.88,1.21,1.27,1.85-.1.16-.2.32-.31.48-.05-.06-.1-.11-.16-.16-.05-.04-.1-.07-.14-.11-.18-.14-.36-.3-.54-.45-.66-.55-1.32-1.08-1.98-1.63-.1-.1-.27-.1-.37,0ZM108.1,97.33s.02.05.04.08c.42.67.86,1.32,1.31,1.97.26.37.52.74.79,1.09.65.84,1.31,1.68,1.94,2.53.32.42.64.84.94,1.28.9,1.31,1.6,2.73,2.48,4.05.51.76,1.04,1.5,1.58,2.23.89,1.22,1.8,2.44,2.7,3.66.08.12.24.14.36.06.12-.08.14-.25.06-.36-.86-1.25-1.73-2.48-2.58-3.73-.51-.75-1.02-1.5-1.49-2.26-.84-1.35-1.49-2.8-2.34-4.14-.5-.79-1.04-1.55-1.57-2.32-.28-.42-.57-.83-.85-1.25-.19-.28-.36-.56-.55-.84-.49-.72-.97-1.43-1.45-2.15.06,0,.12-.01.18-.02.43-.05.87-.11,1.3-.18.19.23.36.47.56.69.05.06.11.1.16.16.21.22.39.47.57.71.69.95,1.27,1.98,1.89,2.98.07.13.22.17.35.1.13-.07.17-.23.1-.35-.49-1.04-.95-2.1-1.47-3.12-.16-.33-.34-.65-.51-.97-.04-.07-.07-.15-.11-.22-.05-.08-.1-.16-.16-.24.98-.21,1.94-.47,2.88-.81.79-.28,1.56-.61,2.3-1.02.27.54.55,1.08.84,1.61.1.18.2.34.31.52.16.25.3.52.45.78.45.77.9,1.55,1.34,2.33,1.31,2.29,2.6,4.58,3.87,6.89.07.13.22.18.35.11.13-.07.18-.22.11-.35-.35-.71-.7-1.43-1.05-2.14-.95-1.92-1.93-3.82-2.88-5.74-.38-.76-.74-1.52-1.1-2.28-.11-.22-.2-.45-.31-.68-.28-.57-.57-1.14-.87-1.7.03-.02.06-.04.08-.06,1.21-.87,2.21-1.98,3.33-2.95.22-.19.45-.37.69-.54.06.56.16,1.12.3,1.67.48,1.86,1.33,3.6,2.01,5.39,1.03,2.7,1.91,5.45,2.91,8.15.32.85.65,1.7.99,2.55.23.56.48,1.11.72,1.67.35.83.55,1.71.8,2.58.14.49.3.98.49,1.46.17.44.36.87.56,1.3.42.94.86,1.88,1.3,2.81.61,1.3,1.19,2.61,1.75,3.93,2.1,4.95,4.09,9.96,6.75,14.63-.34-.36-.67-.73-.99-1.1-.2-.23-.4-.45-.59-.68-.7-.84-1.36-1.72-1.97-2.62-1.21-1.76-2.27-3.61-3.29-5.49-1.23-2.29-2.38-4.63-3.57-6.95-.06-.13-.22-.18-.35-.12-.06.03-.11.09-.13.15-.02.06-.02.13.01.2,1.76,3.68,3.41,7.41,5.43,10.95.43.75.88,1.49,1.35,2.22-.43-.36-.86-.73-1.27-1.12-.28-.26-.55-.53-.81-.81-.59-.63-1.15-1.28-1.78-1.88-.81-.76-1.65-1.49-2.5-2.21-2.32-1.95-4.78-3.72-7.42-5.21-1.25-.71-2.54-1.36-3.87-1.93-.71-.31-1.44-.62-2.18-.85-1.1-.35-2.25-.48-3.34-.84-.37-.13-.73-.29-1.07-.48-1.79-.99-3.21-2.5-4.54-4.03-.7-.81-1.37-1.66-2.12-2.42-.69-.69-1.45-1.29-2.33-1.73-.66-.32-1.36-.54-2.07-.68-2.11-.4-4.27,0-6.28.66-2.04.66-3.99,1.58-5.98,2.38-1.51.61-3.06,1.17-4.69,1.38-.07,0-.14.03-.21.06-.48,0-.97-.06-1.43-.2-.28-.08-.56-.2-.81-.35-1.39-.82-1.83-2.53-2.01-4.03-.03-.27-.06-.53-.07-.8-.02-.32-.03-.64-.04-.96,0-.42,0-.84,0-1.25,0-.55.02-1.09.04-1.64.03-.69.1-1.37.18-2.06.08-.65.19-1.31.35-1.95.05-.21.11-.42.18-.62.75-1.02,1.92-1.61,2.97-2.28.23-.15.45-.31.67-.47,1.35-.66,2.71-1.31,4.13-1.82,1.13-.41,2.31-.72,3.51-.73,3.44-.03,6.59,1.53,9.87,2.34,1.92.47,3.91.56,5.88.44ZM96.79,122.88c-.34-.04-.68-.1-1.01-.21-.08-.03-.17-.06-.25-.1-.12-.06-.21-.17-.29-.27-.13-.16-.24-.34-.34-.52-.18-.3-.34-.62-.53-.92-.12-.19-.25-.36-.39-.54-.45-.57-.97-1.08-1.54-1.53-.68-.55-1.43-1.03-2.24-1.37-2.19-.91-4.64-.44-6.86.09-.63.15-1.23.38-1.85.55-.38.1-.77.18-1.16.13-.24-.03-.46-.12-.67-.23-.88-.45-1.57-1.19-2.2-1.95-.9-1.1-1.69-2.29-2.71-3.29-2.09-2.06-4.78-3.51-7.65-4.15,1.89-.32,3.78-.7,5.71-.73.74.07,1.47.18,2.2.34,1.37.3,2.69.76,3.95,1.35.02,0,.04,0,.06.01.21,1.63.71,3.25,1.97,4.36.22.19.46.37.71.51.36.21.74.37,1.14.49.62.18,1.27.26,1.91.27.44,0,.88,0,1.3-.1.54-.11,1.05-.33,1.58-.48.16-.05.29-.14.38-.26.58-.19,1.15-.4,1.71-.62,1.85-.73,3.66-1.58,5.53-2.25,2.01-.72,4.19-1.26,6.33-.86.64.12,1.26.32,1.84.62,1.54.8,2.6,2.23,3.7,3.52,1.49,1.74,3.09,3.44,5.11,4.57.61.34,1.25.59,1.93.77.91.25,1.84.38,2.74.66.7.22,1.38.51,2.05.81,1.27.55,2.52,1.18,3.73,1.87,1.55.88,3.03,1.86,4.46,2.92-.05,0-.1-.01-.14-.02-.88-.08-1.77-.05-2.65.03-.94.08-1.86.21-2.79.37-1.45.25-2.88.63-4.24,1.21-1.04.44-2.02,1.02-3.03,1.52-.88.44-1.79.86-2.77,1.04-.54.1-1.08.12-1.6-.07-.49-.18-.91-.5-1.3-.83-.42-.36-.82-.75-1.21-1.14-1.25-1.25-2.41-2.6-3.84-3.65-1.21-.89-2.6-1.57-4.11-1.73-.89-.1-1.78-.07-2.67-.18ZM76.44,106.92c-.44-.13-.89-.25-1.34-.35-.78-.17-1.57-.21-2.37-.19-2.53.05-5,.69-7.5,1.01-2.99.38-6.07.34-9.04-.21-2.18-.41-4.31-1.09-6.36-1.93-1.21-.5-2.39-1.05-3.56-1.65.16-.02.32-.05.48-.06.15-.01.29-.02.44-.04.2-.04.39-.12.58-.21.14-.07.29-.13.42-.22.08-.05.16-.11.23-.18.07-.07.12-.15.16-.23,1.16-.25,2.34-.45,3.52-.59,2.57-.31,5.15-.38,7.73-.39.91,0,1.83,0,2.74-.01,1.46,0,2.93.01,4.38.14.45.04.9.09,1.35.15.51.07,1.01.17,1.52.26.64.11,1.28.22,1.92.34,2.41.42,4.82.87,7.18,1.52-.02.27-.03.54-.04.8-.01.56-.03,1.12-.03,1.68,0,.23,0,.47,0,.7-.81-.16-1.62-.25-2.44-.32ZM81.18,97.22c-1.43-1.09-2.82-2.23-4.1-3.5-.41-.4-.81-.82-1.2-1.25-.23-.26-.46-.52-.68-.79-.53-.68-.98-1.42-1.39-2.18.43.26.86.53,1.29.8,1.13.73,2.19,1.54,3.28,2.32,1.52,1.1,3.05,2.2,4.32,3.58-.09.05-.18.11-.27.16-.14.09-.29.17-.43.26-.14.09-.27.19-.41.29-.14.1-.28.19-.41.3ZM29.4,90.97c-.21-.22-.41-.45-.62-.67,0,0,0,0,0,0-.9-.98-1.78-1.97-2.7-2.93.12.01.25.02.37.04,1.17.12,2.34.29,3.5.44.14.03.28-.07.3-.21.03-.14-.07-.28-.21-.3-1.15-.28-2.29-.56-3.44-.85-.32-.08-.64-.16-.95-.25-.53-.21-1.04-.46-1.54-.73-.54-.46-1.12-.9-1.72-1.29,4.28.66,8.59,1.1,12.87,1.78,1.27.2,2.54.43,3.81.67,1.41.28,2.82.6,4.17,1.09.13.05.28-.02.33-.15.05-.13-.02-.28-.15-.34-1.41-.55-2.86-.9-4.34-1.22-1.23-.27-2.47-.51-3.71-.73-4.54-.81-9.12-1.35-13.64-2.23-.84-.16-1.68-.33-2.52-.53-.37-.09-.73-.18-1.09-.29-.76-.23-1.5-.54-2.25-.78-.75-.24-1.54-.45-2.25-.8-.06-.04-.11-.08-.17-.11-.09-.05-.18-.09-.27-.13-.15-.1-.3-.2-.44-.32,0-.09.02-.19.04-.27.04-.2.11-.4.18-.59.15-.41.34-.81.56-1.19,0,0,.02,0,.02-.01.7-.62,1.42-1.23,2.25-1.67.4-.21.81-.37,1.24-.5.04,0,.08,0,.11-.01.59-.04,1.19,0,1.79,0,.47.01.93,0,1.4.01.45,0,.9.04,1.35.08,1.55.16,3.07.51,4.58.86.14.04.28-.05.31-.19.04-.14-.05-.28-.18-.32-1.52-.44-3.05-.88-4.61-1.13-.47-.08-.93-.14-1.4-.18-.53-.05-1.06-.07-1.59-.13-.55-.06-1.1-.13-1.65-.16-.19-.01-.37-.02-.57-.02-.03,0-.06,0-.09,0,.31-.26.63-.52.94-.77,1.52-1.2,3.12-2.33,4.46-3.75.44-.46.83-.96,1.23-1.45.48-.59.97-1.19,1.46-1.78,2.14-2.59,4.49-5.22,7.54-6.7,1.68-.47,3.39-.78,5.14-.86.44-.02.88-.02,1.32-.01.42.09.83.21,1.24.32.4.11.8.22,1.21.32.15.04.31.07.46.12.35.11.69.25,1.03.38.37.14.75.28,1.12.43.69.29,1.36.63,2.01.99,2.26,1.26,4.29,2.87,6.43,4.31,1.44.97,2.99,1.77,4.52,2.57.13.07.28.02.35-.11.07-.13.02-.28-.1-.35-1.37-.77-2.75-1.53-4.05-2.42-.81-.56-1.6-1.15-2.38-1.74-1.28-.97-2.57-1.94-3.93-2.8-.48-.3-.97-.59-1.47-.85.5.14.99.28,1.49.44.63.26,1.26.53,1.9.77.5.18,1,.34,1.52.46.38.17.75.34,1.11.54.88.47,1.72,1.02,2.59,1.51.12.07.28.04.35-.09.07-.12.04-.28-.09-.36-.7-.44-1.38-.92-2.08-1.36,1.09.01,2.17-.18,3.25-.37,1.07-.2,2.15-.41,3.24-.35.43.02.86.09,1.27.23.29.1.57.24.85.37.31.15.62.3.93.45,1.6.77,3.18,1.6,4.61,2.65-.06.9-.13,1.79-.16,2.69,0,.18,0,.37-.01.55-.13-.15-.31-.26-.52-.28-.08-.01-.18,0-.26.02-.61.13-.84.84-.98,1.36-.06.24-.11.48-.14.72-.05.45-.04.92,0,1.38.03.39.08.77.16,1.15.11.52.29,1.1.71,1.46.1.08.2.15.32.2.45.19.88.04,1.25-.23.63,3.24,1.73,6.39,3.09,9.4.32.72.67,1.43,1.02,2.14-4.05-2.12-8.19-4.05-12.34-5.97-2.26-1.04-4.52-2.1-6.78-3.15-3.09-1.43-6.22-2.77-9.17-4.45-.83-.47-1.64-.98-2.42-1.51-.14-.14-.27-.3-.38-.46-.19-.29-.28-.63-.41-.95-.19-.42-.45-.79-.78-1.11-.47-.46-1.16-.88-1.83-.58-.09.04-.17.09-.24.15-.55.44-.56,1.14-.5,1.78.02.2.04.39.05.59,0,.07,0,.16-.03.23-.32.2-.5.57-.51.95,0,.13,0,.26.04.38.11.39.42.74.8.89.15.06.32.08.49.09.38,0,.76-.1,1.11-.23.38-.14.74-.34,1.05-.6.03-.03.06-.06.09-.09.17.11.33.22.5.33.02.01.03.03.05.04.65.55,1.4,1.01,2.19,1.33.21.12.41.24.62.35,2.82,1.55,5.77,2.83,8.69,4.17,2.04.94,4.07,1.89,6.12,2.83,4.38,2.01,8.75,4.02,13.03,6.25.56.29,1.11.58,1.66.88.75,1.51,1.5,3.04,2.53,4.37.24.3.49.59.74.87.41.45.83.89,1.26,1.31,1.3,1.28,2.7,2.43,4.14,3.54,0,0,0,0,0,.01-.38-.29-.77-.57-1.18-.81-.12-.07-.25-.13-.38-.2-.56-.31-1.14-.62-1.71-.91-1.84-.94-3.73-1.75-5.62-2.56-.13-.06-.28,0-.35.12-.06.13,0,.28.13.35,1.88.96,3.77,1.9,5.56,3.03.47.3.93.61,1.38.94.14.1.26.21.4.31.41.3.83.59,1.24.9,0,0,.01,0,.02.01-.07.22-.13.45-.19.67-1.13-.64-2.28-1.23-3.47-1.75-.3-.13-.6-.25-.9-.37-.66-.27-1.32-.55-1.98-.82-1.37-.57-2.73-1.17-4.12-1.68-2.05-.75-4.14-1.37-6.23-1.98-.76-.22-1.52-.44-2.28-.67-1.77-.53-3.54-1.06-5.36-1.4-.14-.03-.28.06-.31.21-.03.14.06.28.21.3,2.37.5,4.64,1.32,6.94,2.05,2.25.72,4.51,1.44,6.7,2.32.51.2,1.01.42,1.51.64.55.24,1.09.5,1.63.75.94.44,1.89.86,2.82,1.32.17.09.34.18.52.26.58.28,1.16.55,1.73.84.79.39,1.57.81,2.33,1.26-.06.38-.12.77-.16,1.15,0,.03,0,.06-.01.09-2.36-.63-4.76-1.08-7.17-1.51-.61-.11-1.21-.21-1.82-.32-.4-.07-.8-.15-1.2-.21-.59-.1-1.19-.17-1.78-.22-1.56-.14-3.12-.16-4.69-.16-.86,0-1.71,0-2.57,0-2.64,0-5.28.08-7.9.39-.42.05-.84.11-1.26.17-.07,0-.14,0-.2,0-.17.04-.34.07-.5.11-.3.05-.6.11-.9.16-.11.02-.22.03-.33.04-.21.02-.44.05-.65.01-.28-.05-.54-.19-.8-.3-.59-.27-1.17-.61-1.81-.73-.47-.09-.97-.03-1.36.26-.16.12-.29.26-.39.43-.12.18-.21.39-.26.6-.05.21-.05.42-.02.63-2.66-1.58-5.19-3.36-7.62-5.27-.92-.72-1.82-1.47-2.71-2.23-.36-.3-.72-.61-1.06-.92-.26-.23-.51-.48-.77-.72-.2-.18-.4-.37-.59-.55-.19-.19-.37-.39-.56-.58-.24-.25-.49-.51-.73-.76ZM6.64,137.76c-.1.1-.19.21-.29.31-.48.3-.93.65-1.3,1.07-.29.33-.55.7-.81,1.06-.06.08-.12.17-.18.25-.27.25-.52.52-.76.8-.12.14-.23.28-.33.42-.14.2-.28.4-.46.57-.02.02-.05.05-.09.08-.03.02-.05.04-.08.06-.06.04-.12.07-.16.06-.13-.03-.21-.16-.27-.27-.15-.25-.23-.53-.29-.8-.26-1.06-.25-2.18-.11-3.26.3-2.17,1.27-4.21,2.53-5.98.5-.7,1.05-1.36,1.58-2.04.46-.59.91-1.19,1.29-1.83.12-.04.22-.11.3-.22.84-1.15,1.53-2.4,2.08-3.71.15-.37.29-.74.42-1.11.19-.54.37-1.08.54-1.62.66-2.1,1.18-4.25,1.93-6.32.77-2.14,1.78-4.2,3.01-6.11,1.04-1.61,2.24-3.11,3.55-4.52.1-.1.09-.27,0-.37-.1-.1-.27-.09-.37,0-1.16,1.19-2.25,2.45-3.22,3.8-1.48,2.04-2.7,4.27-3.64,6.61-.7,1.74-1.23,3.55-1.84,5.33-.32.93-.64,1.86-1.02,2.77-.12.28-.25.56-.38.84.04-.87-.02-1.75-.1-2.63,0-.01,0-.02.01-.04.08-.37.16-.75.23-1.13.05-.27.07-.53.12-.8.07-.42.16-.84.26-1.26.34-1.47.8-2.91,1.28-4.34.05-.13-.02-.28-.15-.34-.13-.05-.28.01-.34.15-.64,1.47-1.23,2.96-1.75,4.48-.01-.14-.02-.28-.03-.41-.04-.63-.06-1.27-.02-1.9.03-.46.09-.92.16-1.38,1.26-8.18,6.4-15.56,13.5-19.76,2.05-1.21,4.22-2.13,6.51-2.77.13.15.27.29.4.44.27.29.55.58.82.86.17.18.33.35.5.52.23.23.47.44.7.66.23.22.46.44.7.66.39.36.8.7,1.2,1.04.87.74,1.75,1.47,2.65,2.17.3.23.6.47.9.7-.17,0-.33-.01-.5-.01-.32,0-.64.03-.96.05-.89.07-1.78.23-2.65.44-2.99.71-5.76,2.14-8.28,3.87-.06.04-.1.1-.11.16-.01.06,0,.14.04.2.08.12.24.15.36.07,1.84-1.15,3.78-2.13,5.85-2.79,1.19-.38,2.42-.65,3.66-.76.44-.04.89-.06,1.33-.05.1,0,.2.01.3.02.34.01.68.02,1.02.04.49.03.98.09,1.46.18.12.02.23,0,.33-.04.38.28.77.55,1.16.82-.16.04-.33.08-.49.12-1.07.29-2.1.71-3.16,1.05-.14.04-.22.18-.18.32.04.14.18.22.32.19.45-.09.89-.19,1.34-.29.65-.15,1.31-.29,1.97-.35.28-.03.56-.04.84-.02.1,0,.2.03.3.03.23.01.46.02.68.04.7.46,1.41.91,2.13,1.34,1.66.99,3.37,1.91,5.12,2.71-.22.04-.43.08-.65.13-2.2.48-4.31,1.35-6.28,2.42-.06.03-.11.09-.13.15-.02.06-.02.13.01.2.07.13.22.18.35.11,1.36-.64,2.77-1.18,4.23-1.55.97-.25,1.96-.44,2.96-.49.28-.01.56-.03.84,0,.17.01.34.02.51.03.22.01.44.03.65.05,1.85.71,3.76,1.28,5.71,1.64,1.04.19,2.1.32,3.16.4-1.13.36-2.22.83-3.28,1.35-2.16,1.07-4.2,2.42-5.99,4.03-.09-.06-.19-.1-.3-.12-4.41-.57-8.93-.35-13.23.81-2.78.75-5.49,1.96-7.78,3.72-1.39,1.07-2.6,2.36-3.67,3.75-1.44,1.89-2.63,3.96-3.74,6.05-.89,1.67-1.71,3.41-2.96,4.85-.65.75-1.42,1.38-2.23,1.94-.59.4-1.21.79-1.89,1.02-.14.05-.29.09-.44.14-.14.05-.29.1-.44.14-.19.05-.37.09-.56.13-.9.21-1.82.35-2.73.56-.05.01-.1.03-.15.04.33-.32.65-.65.96-.99.65-.73,1.24-1.51,1.79-2.32.09-.12.06-.28-.05-.36-.12-.09-.28-.06-.37.05-.91,1.13-1.91,2.18-3.07,3.07-.14.11-.28.21-.43.32-.02,0-.04-.02-.07-.02.23-.37.45-.74.65-1.12.62-1.17,1.15-2.39,1.68-3.61.28-.65.57-1.29.86-1.93.06-.13.01-.28-.12-.35-.13-.06-.28-.01-.35.12-.39.72-.76,1.45-1.13,2.18-.65,1.28-1.32,2.57-2.15,3.75-.3.43-.63.86-.99,1.25-.1.1-.2.2-.3.31ZM40.62,129.79c-1.24.83-2.54,1.57-3.7,2.53-2.36,1.94-4.55,4.18-6.34,6.68.42-1.68.93-3.34,1.58-4.95.06-.13,0-.29-.13-.34-.13-.06-.29,0-.34.13-.31.64-.6,1.29-.86,1.95-.53,1.32-.97,2.66-1.41,4.01-.18.54-.36,1.08-.53,1.62-.06.17-.12.33-.17.5-.02.06-.04.13-.05.19-.69,1.3-1.27,2.66-1.7,4.07-.28.91-.41,1.86-.45,2.81-.07,1.52.07,3.04.36,4.52.23,1.19.47,2.4.51,3.62.01.4,0,.8-.06,1.19-.03.19-.08.38-.16.55-.25.54-.8.88-1.29,1.18-.68.41-1.41.79-1.99,1.35-.04-1.35-.16-2.7-.31-4.04,0-.14-.13-.25-.27-.24-.14,0-.25.13-.24.27.02,1.31.01,2.62-.1,3.93-.03.37-.07.74-.13,1.11-.04.23-.09.46-.12.69-.04.32-.07.65-.11.97,0,.08,0,.15.02.22-.08.59-.12,1.18-.18,1.74-.05.53-.13,1.07-.3,1.57-.02.04-.02.09-.04.13-.07-.22-.12-.44-.16-.66-.04-.23-.06-.47-.1-.7-.1-.56-.24-1.11-.36-1.67-.18-.8-.34-1.61-.43-2.43-.15-1.31-.18-2.63-.45-3.92-.1-.46-.22-.91-.39-1.34-.04-.11-.09-.21-.13-.31-.02-.1-.03-.21-.05-.31-.05-.26-.11-.52-.16-.78-.09-.59-.15-1.19-.22-1.78-.08-.67-.16-1.34-.08-2.01.03-.3.11-.6.2-.89.05-.13-.01-.28-.15-.34s-.28.01-.34.15c-.18.39-.3.8-.37,1.22-.11.69-.09,1.4-.09,2.1-.02-.07-.04-.13-.07-.2-.08-.21-.13-.44-.18-.66-.15-.63-.24-1.26-.34-1.9-.25-1.66-.46-3.34-.44-5.02,0-.87.08-1.73.21-2.59.03-.14-.07-.28-.21-.3-.14-.02-.28.07-.3.21-.08.38-.15.77-.2,1.16-.06.39-.1.78-.13,1.17-.12,1.55-.05,3.11.07,4.65.06.76.12,1.53.21,2.29-.09-.12-.19-.23-.28-.35-.4-.51-.79-1.04-1.12-1.6-.67-1.15-.94-2.48-1.33-3.73-.12-.38-.25-.76-.36-1.14-.22-.75-.41-1.52-.55-2.29-.24-1.31-.32-2.65-.2-3.99.05-.62.16-1.23.29-1.83.21-.06.42-.13.63-.2.74-.26,1.42-.66,2.07-1.09.63-.42,1.23-.88,1.79-1.39,1.97-1.8,3.06-4.28,4.32-6.58,1.55-2.84,3.25-5.68,5.66-7.88,2.1-1.92,4.7-3.22,7.4-4.07,1.59-.5,3.22-.84,4.86-1.06,2.53-.33,5.09-.36,7.63-.11-.13.13-.27.25-.42.37-.36.29-.76.54-1.17.76-.15.08-.31.17-.47.24-.89.4-1.85.61-2.8.78-1.04.18-2.09.32-3.13.51-1.56.3-3.1.72-4.55,1.36-1.17.52-2.27,1.19-3.29,1.97-.06.04-.09.1-.1.17,0,.07,0,.14.05.19.09.12.25.14.36.05,1.01-.72,2.09-1.33,3.23-1.79,1.48-.6,3.04-.95,4.62-1.18,1.56-.22,3.15-.3,4.7-.64.42-.09.83-.21,1.23-.35-.05.12-.11.23-.16.35-.03.07-.06.15-.09.22-.02.06-.05.11-.08.17-.15.27-.3.54-.43.81-.03.07-.06.14-.1.2-.13.23-.28.44-.46.64-.5.53-1.13.93-1.75,1.29-.51.29-1.02.58-1.51.89-.06.04-.1.09-.12.16-.02.06,0,.13.03.2.07.12.23.17.35.1.87-.45,1.8-.82,2.65-1.33-.34.92-.63,1.86-.86,2.81-.11.48-.2.97-.3,1.46-.14.7-.34,1.4-.82,1.95-.25.29-.54.54-.83.78-.44.38-.92.72-1.4,1.04ZM151.25,151.63c-.06.05-.12.1-.18.15-.31-.04-.62-.1-.93-.15-.11-.02-.23-.03-.34-.05-.38-.07-.76-.17-1.13-.28-1.09-.32-2.14-.77-3.17-1.25-1.4-.65-2.76-1.36-4.15-2.01-.13-.07-.28-.01-.35.11-.07.13-.01.28.12.35,2.06,1.11,4.04,2.36,6.18,3.32.21.09.42.18.63.27-.02.01-.04.03-.05.04-.04.03-.08.06-.12.08-.06.04-.13.07-.19.11-.55-.07-1.11-.12-1.66-.19-.66-.09-1.31-.21-1.95-.39-2.43-.67-4.68-1.83-6.96-2.87-.8-.37-1.61-.72-2.41-1.08-1.31-.59-2.62-1.2-3.92-1.81-2.61-1.22-5.22-2.45-7.88-3.56-1.87-.79-3.77-1.51-5.69-2.15-.14-.05-.28.03-.33.16-.05.14.03.28.16.33,1.36.48,2.7,1,4.03,1.56,3.25,1.36,6.4,2.92,9.56,4.47,1.23.6,2.46,1.21,3.7,1.8.79.38,1.59.74,2.39,1.13,1.56.76,3.11,1.57,4.71,2.26-.17.09-.35.16-.54.21-.03,0-.05.02-.08.04-1.56-.28-3.11-.62-4.65-1.03-6.13-1.62-11.99-4.11-17.81-6.59-1.95-.83-3.91-1.66-5.88-2.46-3.39-1.37-6.8-2.68-10.24-3.91-11.54-4.12-23.42-7.38-35.54-9.3-1.21-.19-2.43-.38-3.64-.56-5.89-.87-12.07-1.55-17.89.08-.34.1-.68.2-1.01.31.35-.44.61-.94.78-1.48.09-.29.16-.59.23-.89.28-.25.56-.5.87-.72.05-.04.11-.07.16-.1.26-.08.53-.16.79-.24.16-.04.31-.1.47-.14.45-.12.9-.21,1.36-.27,2.11-.29,4.25-.14,6.37-.09.14,0,.27-.1.27-.24,0-.14-.1-.27-.24-.27-2.05-.18-4.11-.44-6.17-.38-.6.02-1.21.06-1.81.14-.14.02-.29.03-.43.05-.42.08-.83.2-1.23.34.18-.69.39-1.37.63-2.04.05,0,.11,0,.16-.02,2.21-.58,4.47-.68,6.74-.67.75,0,1.5.02,2.25.02.41,0,.83,0,1.24,0,.33,0,.65,0,.98.03,1.12.07,2.23.29,3.34.43,1.4.17,2.79.36,4.18.6,3.5.6,6.97,1.42,10.4,2.34,1.37.37,2.73.76,4.09,1.16.75.22,1.5.44,2.25.68,2.41.77,4.77,1.7,7.14,2.57.68.25,1.36.5,2.05.74.68.24,1.38.46,2.06.69.14.05.28-.03.33-.16.05-.14-.03-.29-.16-.33-.68-.24-1.37-.47-2.05-.71-.68-.25-1.35-.51-2.03-.76-2.37-.91-4.72-1.86-7.13-2.67-.78-.26-1.57-.5-2.35-.75-1.09-.34-2.18-.67-3.27-.98-3.68-1.07-7.39-2.02-11.16-2.73-1.4-.26-2.81-.49-4.22-.69-1.01-.14-2.02-.36-3.03-.48-.65-.08-1.31-.09-1.96-.11-.56-.02-1.13-.05-1.69-.07-2.55-.09-5.12-.06-7.61.5.06-.14.12-.27.18-.41.31-.67.65-1.33,1.06-1.94.95-1.44,2.17-2.69,3.49-3.79.26-.22.53-.43.8-.63.07-.02.13-.03.2-.05.44-.1.89-.17,1.34-.13.04,0,.07,0,.1-.01.31.04.62.09.92.14,1.14.19,2.28.43,3.42.66.14.04.28-.05.31-.18.04-.14-.05-.28-.18-.32-1.11-.36-2.22-.71-3.33-1.07-.26-.08-.52-.17-.77-.26.51-.17,1.02-.32,1.55-.44.5.01.99.08,1.48.18.19.04.39.06.58.1.72.16,1.43.36,2.14.54.41.1.83.19,1.24.29.63.15,1.26.32,1.88.51,2.14.64,4.22,1.43,6.32,2.17.13.05.29-.02.34-.15.05-.13-.02-.29-.15-.34-2.08-.84-4.14-1.71-6.25-2.46-.63-.22-1.26-.43-1.89-.62-.41-.12-.82-.23-1.22-.35-.71-.22-1.4-.48-2.11-.69-.24-.08-.49-.16-.74-.22-.2-.05-.39-.08-.59-.12,1.41-.68,2.89-1.24,4.4-1.57,4.49-.98,9.38.61,12.63,3.82,1.76,1.73,2.87,4.17,5.09,5.4.4.22.82.39,1.28.45,1.15.15,2.18-.35,3.25-.64.5-.13,1.01-.24,1.52-.35,1.55-.31,3.24-.51,4.74.12.62.26,1.21.62,1.74,1.04.64.5,1.22,1.08,1.7,1.74.15.21.27.45.39.67.35.62.73,1.32,1.39,1.66.53.27,1.13.38,1.72.45.95.11,1.92.07,2.88.2,1.24.18,2.41.81,3.4,1.56,1.5,1.14,2.69,2.62,4.05,3.91.81.78,1.7,1.59,2.81,1.89,1.29.34,2.71-.06,3.9-.55,1.26-.52,2.42-1.23,3.65-1.82.82-.39,1.67-.69,2.55-.94,1-.28,2.01-.46,3.03-.6,1.16-.17,2.33-.29,3.5-.24.37.02.75.04,1.12.12.25.05.48.14.72.21.18.06.36.11.54.14.2.03.4.03.58-.05.97.8,1.91,1.62,2.83,2.47.65.6,1.23,1.28,1.84,1.93.32.34.65.67,1,.99.48.44.97.86,1.47,1.28,1.14.97,2.31,1.92,3.38,2.98,1.67,1.65,3.11,3.52,4.59,5.34.24.3.48.59.73.88-1.24-.95-2.52-1.85-3.83-2.69-.95-.61-1.93-1.19-2.9-1.77-1.4-.84-2.74-1.8-4.15-2.62-.77-.45-1.56-.84-2.38-1.18-.13-.06-.28,0-.34.14-.06.13,0,.28.14.34.79.34,1.55.75,2.28,1.2,1.3.8,2.53,1.71,3.81,2.53.61.39,1.23.77,1.84,1.16,1.28.83,2.54,1.71,3.75,2.64,1.31,1.01,2.58,2.08,3.77,3.24.45.44.9.89,1.33,1.36.21.23.41.48.62.71.74.85,1.46,1.71,2.13,2.62ZM124.64,90.37c.47.32.91.7,1.48.83.02,0,.04,0,.05,0,.23.91.5,1.81.8,2.7.13.39.28.78.41,1.17.34,1,.66,2,.97,3,1.34,4.21,2.62,8.44,3.87,12.68.04.14.18.22.32.18.14-.04.22-.18.18-.32-1.32-5.01-2.7-10-4.03-15-.11-.4-.22-.81-.33-1.21-.07-.25-.13-.51-.21-.76-.24-.83-.5-1.66-.73-2.5.28-.06.56-.13.84-.14.13,0,.26.02.39.04.46.08.89.26,1.31.45.13.4.25.8.39,1.19.04.11.09.21.13.32.16.43.3.87.44,1.31.38,1.23.7,2.48,1.11,3.7.15.45.31.89.47,1.33.04.14.19.21.32.17.14-.04.21-.19.17-.32-.12-.45-.25-.9-.36-1.35-.24-.96-.42-1.93-.61-2.9-.11-.58-.23-1.15-.34-1.73-.06-.29-.1-.58-.17-.87-.02-.1-.05-.2-.08-.3.03.01.07.02.1.03.13.03.27.04.41.05.13.02.25.04.38.04.12,0,.24,0,.36,0,.08,0,.15,0,.23-.01.73,1.59,1.06,3.31,1.35,5.02.13.73.26,1.45.39,2.18.92,4.85,1.55,9.77,3.03,14.49.39,1.25.85,2.47,1.39,3.66.91,2.01,1.98,3.93,2.99,5.88,1.54,2.96,2.93,6,4.61,8.89,1.38,2.37,2.99,4.6,4.39,6.96.29.49.59.98.86,1.48.21.38.42.77.61,1.16.96,1.93,1.79,4.14,1.64,6.33-.09.28-.18.56-.29.84-.04,0-.08,0-.11,0-.07,0-.14,0-.21-.01-.01,0-.02,0-.04-.01-.05-.14-.1-.28-.14-.42-.08-.25-.15-.51-.23-.77-.1-.33-.21-.66-.33-.99-.41-1.1-.91-2.16-1.47-3.19-.06-.13-.22-.18-.35-.12-.06.03-.11.09-.13.15-.02.06-.02.13.01.2.46,1.04.88,2.1,1.18,3.21.09.32.16.64.22.96.05.26.09.53.15.8.01.06.02.11.04.17,0,.02,0,.05.01.05,0,0,0,.02,0,.03,0,0,0,0,0,0,0,0-.01.02-.02.03,0,0,0,0,0,0,0,0-.01.02-.02.03-.06.06-.13.12-.21.13-.04,0-.08,0-.13,0-.09-.12-.17-.24-.26-.37-.29-.41-.59-.81-.86-1.23-.12-.19-.23-.39-.34-.59-.38-.7-.69-1.43-.99-2.17-.38-.93-.73-1.86-1.14-2.78-.4-.89-.82-1.77-1.25-2.65-.58-1.19-1.17-2.38-1.79-3.55-.54-1.02-1.11-2.02-1.69-3.02-.07-.12-.23-.17-.35-.1-.06.04-.1.09-.12.16-.02.06-.01.13.02.2,1.63,3.02,3.09,6.12,4.39,9.3.26.64.49,1.29.72,1.94-1.09-1.3-2.17-2.61-3.18-3.98-.82-1.11-1.58-2.25-2.29-3.44-2.86-4.8-4.94-10.01-7.12-15.14-.59-1.4-1.21-2.79-1.86-4.16-.44-.92-.88-1.84-1.29-2.78-.18-.41-.37-.82-.53-1.24-.08-.22-.17-.44-.24-.66-.38-1.13-.6-2.31-1.06-3.41-.24-.56-.49-1.1-.72-1.66-.34-.83-.67-1.66-.98-2.5-1.01-2.71-1.9-5.46-2.92-8.16-.9-2.36-2.15-4.68-2.27-7.24.24.05.45.19.65.33ZM129.61,56.14c.35.31.67.64.98.99.35.41.67.84.95,1.31.89,1.52,1.4,3.33,2.56,4.66-.88-.2-1.77-.38-2.67-.52-.76-.11-1.52-.2-2.28-.25-.14-.01-.27.09-.29.23-.01.14.09.27.23.28.59.08,1.19.17,1.78.29,1.48.29,2.94.7,4.38,1.19.45.15.89.31,1.33.47.25.1.5.2.75.29.19.08.39.16.58.23.53.2,1.07.38,1.6.56.04.01.08.02.12.03.25.1.5.21.75.33.9.44,1.67,1.1,2.29,1.88.55.68.98,1.45,1.3,2.25.09.21.17.43.24.65.03.11.07.22.1.33.09.41.08.83.14,1.25.03.18.07.35.12.52-1.15-.2-2.3-.38-3.46-.55-.14-.03-.28.06-.3.21-.03.14.06.28.21.3,1.41.33,2.82.67,4.21,1.08,0,0,0,0,.01.01.32.28.72.42,1.13.49.22.04.45.06.67.1.08.03.16.07.24.1.26.1.52.18.78.27.6.29,1.16.68,1.67,1.11.57.47,1.1.97,1.54,1.56,1.17,1.56,1.73,3.48,2.24,5.33.17.61.33,1.23.52,1.84.52,1.65,1.34,3.21,2.36,4.61.64.88,1.36,1.69,2.15,2.43.49.46,1.03.84,1.52,1.3.24.22.48.47.64.76.05.09.1.2.1.3,0,.03,0,.06-.01.09,0,0,0,0,0,0-.03,0-.07-.01-.1,0-.66.1-1.32.14-1.99.08-1.51-.14-2.91-.72-4.23-1.44-.3-.17-.6-.34-.9-.52-.05-.11-.12-.2-.23-.27-.74-.48-1.48-.96-2.22-1.45-1.39-1.19-2.78-2.43-4.49-3.09-.44-.34-.87-.69-1.31-1.03-.86-.69-1.73-1.36-2.69-1.9-1.75-.99-3.74-1.55-5.74-1.71-.79-.06-1.57-.06-2.36-.02-.14,0-.25.13-.25.27,0,.14.13.25.27.25.54-.02,1.09-.01,1.63.02,1.73.12,3.44.53,5,1.28.63.3,1.23.66,1.79,1.06.44.31.86.65,1.27.99,0,.01,0,.02,0,.03.02.15.02.21.02.25-.92-.08-1.85-.08-2.78-.11-.61-.02-1.22-.06-1.83-.13-.88-.11-1.76-.28-2.63-.48-.14-.04-.28.05-.32.18-.04.14.05.28.19.32,1.17.34,2.35.62,3.55.8-.92.26-1.82.61-2.68,1.03-1.63.78-3.22,1.83-5.08,1.88-.18,0-.35-.02-.53-.04-.09-.01-.19-.01-.28-.03-.09-.02-.18-.06-.27-.08-.1-.03-.2-.06-.3-.09-.15-.05-.3-.12-.45-.18-.66-.27-1.32-.57-2.03-.68-.19-.03-.39-.05-.58-.04-.28,0-.55.06-.82.12-.21.05-.42.09-.63.12-.14.01-.28.02-.41-.02-.17-.05-.32-.16-.47-.26-.16-.11-.32-.23-.48-.34-.63-.43-1.41-.76-2.17-.49-.23.08-.43.23-.64.36-.3.19-.6.38-.88.59-.41.3-.79.64-1.16.98-.4.1-.8.19-1.21.27-.17.03-.34.08-.51.11-.48.09-.97.15-1.46.18-2.23.16-4.46-.16-6.64-.58-.14-.03-.28.06-.31.2-.03.14.06.28.2.31,2.11.54,4.25.97,6.44,1.04.47.02.94.01,1.41,0-.01.08-.02.17-.03.25-.03.01-.05.03-.08.04-.21.15-.43.28-.66.41-.13.07-.26.13-.39.2-.26.14-.52.25-.81.33-.73.21-1.5.25-2.26.22-1.03-.04-2.04-.21-3.05-.35-.14-.03-.28.07-.3.21-.03.14.07.28.21.3,1.32.3,2.66.64,4.02.7-.13.05-.26.1-.39.15-1.61.57-3.29.93-4.98,1.14-1.19.15-2.38.23-3.58.21-1.08-.01-2.16-.11-3.22-.34-1.93-.43-3.79-1.15-5.69-1.69-1.53-.44-3.11-.77-4.71-.79-.43,0-.86.01-1.29.06-1.04.13-2.05.43-3.03.79-.51.19-1.02.39-1.52.61.04-.05.09-.11.13-.16.82-.95,1.59-1.91,2.14-3.05.17-.35.33-.71.48-1.07.13-.22.27-.44.39-.66.08-.14.16-.27.23-.41.03-.07.06-.14.1-.21.1-.2.22-.4.34-.59.13-.22.28-.42.45-.61.5-.52,1.15-.88,1.8-1.18,1.05-.48,2.18-.78,3.29-1.07.14-.03.23-.17.2-.31-.03-.14-.17-.23-.31-.2-1.22.23-2.45.48-3.61.92-.29.11-.57.23-.84.37.03-.04.05-.09.08-.13.29-.48.6-.94.99-1.35.04-.05.09-.09.14-.13.03-.01.06-.02.09-.04.88-.45,1.81-.77,2.76-1.06.19-.06.38-.13.58-.19.2-.06.39-.11.59-.17.36-.1.72-.2,1.08-.31.45-.12.89-.25,1.34-.35.88-.18,1.79-.28,2.69-.33.93-.05,1.86-.06,2.79.02.8.07,1.6.24,2.38.43,1.06.25,2.11.55,3.16.83.14.04.28-.04.32-.18.04-.14-.04-.28-.18-.32-1.05-.32-2.09-.65-3.15-.94-.76-.21-1.54-.4-2.33-.51-1-.14-2.02-.17-3.04-.15-.94.02-1.89.08-2.82.22-.73.11-1.44.3-2.15.45-.33.07-.65.14-.97.21,0,0,0,0-.01,0,.12-.13.24-.27.37-.41.26-.29.52-.58.78-.88.9-1,1.8-2,2.7-2.99,1.53-1.69,3.05-3.39,4.53-5.12.44-.38.9-.75,1.37-1.09.24-.18.49-.35.75-.51.03-.01.06-.03.09-.04.07-.04.14-.08.22-.12.29-.16.61-.29.92-.41,1.21-.48,2.47-.81,3.71-1.2.14-.04.22-.18.18-.32-.04-.14-.18-.22-.32-.18-.84.18-1.69.33-2.53.5-.05,0-.11,0-.16.01-.03.01-.06.03-.08.04-.32.07-.64.13-.95.21-.2.05-.4.1-.6.15.38-.37.77-.73,1.17-1.09.17-.15.35-.29.52-.44.15-.05.3-.11.44-.16.73-.26,1.47-.49,2.19-.76.5-.18,1-.35,1.51-.52.52-.17,1.03-.35,1.57-.43,1.16-.19,2.35-.13,3.51-.02,1.04.09,2.08.22,3.11.36,1.94.27,3.87.64,5.72,1.3,1.1.39,2.15.88,3.15,1.46.12.07.28.03.35-.09.07-.12.04-.28-.09-.36-1.23-.76-2.55-1.38-3.92-1.85-1.7-.59-3.46-.96-5.23-1.26-.93-.16-1.86-.29-2.8-.41-1.23-.16-2.48-.27-3.73-.16-1.05.1-2.05.43-3.06.72-.2.06-.4.1-.6.16-.55.16-1.09.33-1.62.52,1.12-1.46,2.25-2.92,3.52-4.26,1.32-1.4,2.79-2.65,4.27-3.86,1.7-1.4,3.43-2.75,5.09-4.19.21-.14.43-.27.66-.38,2.08-.95,4.45-.07,6.19,1.18.28.2.55.41.8.64ZM139.77,2.71c.63.62.98,1.46,1.31,2.26.17.42.34.85.53,1.26.18.39.39.77.62,1.14.64,1.01,1.43,1.92,2.3,2.74.46.43.95.83,1.43,1.23.48.4.96.8,1.44,1.19.5.41,1,.81,1.51,1.2-.17,0-.33-.02-.5-.03-.56-.03-1.11-.06-1.67,0-1.59.18-3.07.84-4.47,1.58-.06.03-.11.09-.13.15-.02.06-.02.13.01.2.06.13.22.18.35.12,1.15-.52,2.35-1,3.61-1.17.45-.06.92-.08,1.38-.05.46.03.92.12,1.38.18.37.05.73.11,1.09.18.12.02.24.04.35.07.12.03.23.06.35.09.07.02.14.03.21.05.29.18.58.35.89.5.67.32,1.39.53,2.07.84.16.07.31.16.46.24.08.04.21.14.3.2.21.15.41.31.61.47.2.16.39.33.57.51.07.07.14.15.2.24,0,0,0,0,0,0-.02.04-.06.07-.09.1-.12.09-.26.15-.4.2-.43.16-.92.22-1.38.25-1.31.08-2.53-.4-3.76-.77-.59-.18-1.22-.38-1.84-.42-2.02-.13-3.78,1.07-5.6,1.73-1.31.48-2.7.66-4.04,1.03-.32.09-.64.19-.95.31-.14-.02-.28,0-.41.09-.48.3-.97.56-1.45.85-.11.07-.22.14-.32.21-.38.25-.77.48-1.16.72-.52.33-1.04.68-1.5,1.1-1.4,1.28-2.21,3.05-2.77,4.83-.05.14.03.28.16.33.14.05.28-.03.33-.16.64-1.69,1.53-3.41,3.03-4.49.12-.09.25-.17.38-.24-.77,1.39-1.16,3-1.36,4.55-.34,2.65-.17,5.35.15,7.99.12,1.04.3,2.08.43,3.12.57,4.23.43,8.66-1.07,12.69-.41,1.09-.92,2.14-1.52,3.14-.23-.21-.46-.42-.71-.62-1.95-1.57-4.6-2.67-7.13-2.03-.34.09-.66.2-.98.34-.14.06-.28.14-.41.21,0,0-.02.01-.03.02-.16.09-.31.19-.46.29-.01-.06-.02-.12-.04-.18-.02-.1-.05-.2-.08-.3-.11-.45-.19-.91-.27-1.36-.27-1.48-.5-2.96-.74-4.44-.02-.14-.14-.24-.29-.23-.14.02-.24.14-.23.29.11,1.5.21,3,.32,4.5.03.47.06.94.08,1.4,0,.1,0,.21,0,.31.02.35.08.7.13,1.04-.6.5-1.21.99-1.81,1.49-.03-.21-.06-.42-.12-.62-.02-.08-.05-.16-.08-.25-.11-.37-.2-.74-.29-1.12-.3-1.2-.58-2.4-.87-3.6-.03-.14-.16-.23-.3-.21-.14.03-.24.16-.21.3.16,1.22.32,2.44.45,3.67.04.38.08.76.1,1.14,0,.08,0,.17,0,.26.02.34.09.67.15,1,.01.08.04.15.08.22-.07.12-.16.21-.28.26-.25-.74-.46-1.49-.66-2.25-.17-.65-.32-1.31-.48-1.97-.26-1.03-.48-2.06-.72-3.09-.17-.75-.35-1.5-.5-2.26-.2-1.03-.35-2.08-.47-3.12-.54-4.75-.35-9.54.07-14.3.01-.14-.09-.27-.23-.28-.14-.01-.27.09-.29.23-.5,4.52-.8,9.08-.48,13.63.1,1.34.24,2.68.45,4,.16,1.02.38,2.03.56,3.04.11.61.23,1.23.34,1.84.07.37.13.74.21,1.11.3,1.45.69,2.88,1.19,4.28-1.19.98-2.36,1.98-3.45,3.05-.77-2.21-1.8-4.32-2.87-6.41-.48-.93-.96-1.86-1.43-2.79-.3-.6-.6-1.2-.88-1.82-.66-1.48-1.17-3.01-1.63-4.56-.27-.91-.53-1.82-.8-2.73-.42-1.41-.9-2.81-1.15-4.27-.14-.82-.18-1.65-.18-2.48,0-1.45.12-2.91.39-4.33.19-.98.44-1.95.83-2.87.24-.56.54-1.1.83-1.63.38-.69.76-1.38,1.1-2.1.21-.44.41-.88.54-1.35.17-.62.27-1.27.32-1.91.01-.14.02-.28.03-.43.13-.59.25-1.18.38-1.76.08-.38.17-.76.27-1.13.08-.29.16-.57.28-.85.44-1.04,1.11-1.98,1.79-2.86,1.01-1.31,2.15-2.53,3.36-3.67.67-.64,1.37-1.25,2.11-1.82.65-.5,1.33-.98,2.07-1.33,1.69-.81,3.57-1.05,5.39-1.4.3-.06.6-.1.9-.17.02,0,.03,0,.05-.01.12.06.1.05.13.06.03.02.06.03.09.04.01,0,.06.03.09.04.01,0,.02.01.04.02-.46.4-.91.8-1.35,1.22-1.23,1.17-2.38,2.43-3.39,3.8-.45.6-.87,1.22-1.25,1.87-.99,1.7-1.6,3.58-2.15,5.46-.04.14.04.28.17.33.14.04.28-.04.32-.17.58-1.82,1.22-3.63,2.23-5.26.38-.62.81-1.2,1.25-1.77.78-1,1.64-1.93,2.56-2.8,1.55-1.49,3.25-2.83,5.03-4.02.43-.29.86-.57,1.31-.84.27-.16.55-.33.83-.49.98-.59,1.97-1.16,2.98-1.71.67-.28,1.37-.51,2.08-.62.02.04.04.08.06.12,0,0,0,0,0,0-.85.45-1.66,1-2.38,1.64-.66.58-1.25,1.24-1.72,2-.04.06-.05.13-.04.19.01.07.05.12.11.16.12.08.28.05.36-.07.63-.88,1.46-1.6,2.36-2.18.85-.55,1.78-1.01,2.76-1.26.33-.09.67-.13,1.02-.18.26-.03.52-.06.77-.06.53.21,1.03.48,1.44.88Z"/>
      <path class="cls-1" d="M134.41,144.75c-.06.15.02.32.17.38.63.23,1.21.55,1.8.86.15.08.34.02.42-.13.08-.15.02-.34-.13-.42-.62-.32-1.24-.63-1.89-.86-.15-.05-.32.02-.37.17Z"/>
      <path class="cls-1" d="M129.32,134.62c.1-.14.07-.33-.07-.43-.59-.43-1.19-.85-1.78-1.28-.13-.09-.32-.06-.41.07-.05.06-.06.14-.05.22.01.07.05.14.12.19.59.43,1.17.87,1.76,1.3.14.1.33.07.43-.07Z"/>
      <path class="cls-1" d="M117.7,106.01c-.51-.72-1.03-1.43-1.52-2.16-.09-.13-.27-.17-.41-.08-.07.04-.11.11-.12.19-.01.07,0,.15.04.22.49.74,1,1.47,1.5,2.19.1.14.29.17.43.08.14-.1.17-.29.07-.43Z"/>
      <path class="cls-1" d="M100.76,133.63c.05-.16-.05-.33-.21-.38-1.03-.3-2.07-.59-3.09-.91-.15-.05-.32.04-.37.19-.05.15.04.32.2.37,1.03.32,2.06.64,3.09.95.16.05.34-.05.39-.21Z"/>
      <path class="cls-1" d="M75.34,118.82c.07-.16,0-.34-.16-.41-.83-.37-1.66-.73-2.51-1.04-.15-.05-.32.03-.37.18-.05.15.02.32.17.37.84.31,1.64.69,2.46,1.05.16.07.34,0,.41-.16Z"/>
      <path class="cls-1" d="M39.05,125.26c.15-.08.2-.27.12-.42-.08-.15-.27-.2-.42-.12-.6.34-1.18.71-1.75,1.1-.07.04-.11.11-.12.19-.01.07,0,.15.04.22.09.13.27.17.41.08.56-.38,1.14-.72,1.73-1.05Z"/>
      <path class="cls-1" d="M20.09,146.87c-.16.66-.32,1.32-.54,1.96-.05.15.03.32.18.37.15.05.32-.03.37-.18.22-.66.42-1.33.59-2,.04-.17-.06-.33-.23-.38-.17-.04-.33.06-.37.23Z"/>
      <path class="cls-1" d="M13.7,131.69c.02.07.06.14.13.18.14.09.32.05.41-.09.38-.6.76-1.21,1.12-1.82.09-.15.04-.34-.11-.42-.15-.09-.34-.04-.42.11-.36.61-.71,1.22-1.09,1.82-.04.07-.05.15-.04.22Z"/>
      <path class="cls-1" d="M119.72,40.53c-.1.87-.18,1.74-.28,2.61-.02.16.1.31.26.32.16.02.31-.1.32-.26.1-.87.21-1.74.31-2.61.02-.17-.1-.32-.27-.34-.17-.02-.32.1-.34.27Z"/>
      <path class="cls-1" d="M129.23,7.69c-.58.74-.97,1.59-1.37,2.43-.07.15,0,.34.14.41.15.07.34.01.41-.14.38-.8.72-1.64,1.28-2.34.1-.13.08-.31-.05-.41-.13-.1-.31-.08-.41.05Z"/>
      <path class="cls-1" d="M115.47,45.88c.06.55.14,1.11.2,1.66.02.16.16.28.32.26.16-.02.28-.16.26-.32-.06-.55-.11-1.11-.16-1.66-.02-.17-.17-.29-.34-.27-.17.02-.29.17-.28.34Z"/>
      <path class="cls-1" d="M101.26,60.59c0,.07,0,.15.06.22.53.68.91,1.45,1.31,2.2.08.15.27.21.42.13.15-.08.21-.27.13-.42-.42-.79-.84-1.57-1.39-2.28-.1-.13-.29-.15-.41-.06-.06.05-.1.12-.11.2Z"/>
      <path class="cls-1" d="M76.97,50.38c-.35-.63-.69-1.27-1-1.92-.07-.15-.25-.21-.39-.14-.07.04-.12.1-.15.17-.02.07-.02.15.01.22.32.66.64,1.32.99,1.96.08.15.27.21.42.13.15-.08.2-.27.12-.42Z"/>
      <path class="cls-1" d="M65.39,91.81c-.05.17.05.34.21.38.93.25,1.87.48,2.78.77.15.05.32-.04.37-.19.05-.15-.04-.32-.19-.37-.93-.29-1.86-.55-2.8-.81-.16-.05-.33.05-.38.22Z"/>
      <path class="cls-1" d="M58.21,66.35c.08-.15.02-.34-.13-.42-.37-.19-.73-.36-1.1-.55-.14-.07-.32-.01-.39.13-.07.14-.01.32.13.39.36.18.72.38,1.08.57.15.08.34.02.42-.13Z"/>
      <path class="cls-1" d="M32.28,103.47c.16-.03.26-.19.23-.35-.03-.16-.19-.26-.35-.23-1.16.25-2.18.77-3.19,1.37-.07.04-.12.11-.14.19-.02.08,0,.16.03.23.09.15.28.19.42.1.95-.57,1.9-1.1,2.99-1.33Z"/>
    </g>
  </g>
</svg>