<?xml version="1.0" encoding="UTF-8"?>
<svg id="Capa_2" data-name="Capa 2" xmlns="http://www.w3.org/2000/svg" viewBox="0 0 310.05 253.06">
  <defs>
    <style>
      .cls-1 {
        fill: #ffcdd4;
      }
    </style>
  </defs>
  <g id="Capa_1-2" data-name="Capa 1">
    <g>
      <path class="cls-1" d="M309.96,177.57c-.07-.3-.17-.59-.31-.87-.26-.53-.64-.98-1.08-1.38-1.2-1.07-2.74-1.58-4.19-2.22-.39-.17-.77-.34-1.15-.54-.65-.35-1.25-.81-1.8-1.31-2.29-2.06-3.63-4.87-4.86-7.63-.7-1.56-1.41-3.12-2.2-4.64-2.09-4.04-4.54-7.89-7.26-11.52-2.7-3.59-5.67-6.98-8.97-10.03-1.94-1.8-3.99-3.49-6.18-4.99-.93-.64-1.87-1.26-2.86-1.8-.77-.42-1.56-.78-2.37-1.11-2.14-.84-4.38-1.39-6.64-1.76-2.67-.45-5.39-.66-8.09-.74-1.1-.03-2.2-.04-3.3-.03-3.3.03-6.6.24-9.88.57-1.75.18-3.49.39-5.23.64-.8.12-1.6.24-2.39.37,1.19-2.25,2.47-4.49,3.25-6.92.39-1.24.68-2.54.68-3.85,0-1.37-.3-2.74-.64-4.07-.56-2.19-1.29-4.34-1.7-6.57-.1-.56-.17-1.14-.19-1.71-.02-.66.03-1.34.28-1.96.04-.09.08-.17.12-.26,0,0,0,0,0,0,0,0,0,0,0,0,0,0,0,0,0,0,.01-.02.02-.03.03-.04.02-.03.05-.06.08-.09.04-.05.09-.1.14-.15.12-.13.25-.26.38-.38.43-.42.89-.8,1.32-1.22,1.11-1.09,2.06-2.32,2.84-3.66,1.69-2.89,2.72-6.1,3.96-9.2.79-1.98,1.66-3.95,2.87-5.72,1.07-1.57,2.39-2.94,3.68-4.32.84-.9,1.64-1.82,2.41-2.78,4.38-5.42,8.26-11.43,10.11-18.21.29-1.06.54-2.14.72-3.22.16-.9.27-1.82.25-2.74-.04-1.34-.4-2.64-.71-3.94-.12-.5-.23-1-.34-1.5-.1-.51-.19-1.02-.28-1.53.03-.18,0-.36-.08-.51-.26-1.67-.44-3.35-.53-5.04-.1-1.88-.27-3.75-.11-5.63.17-1.97.54-3.94.38-5.93-.08-1.03-.31-2.09-.79-3.01-.21-.39-.46-.76-.79-1.06-.2-.19-.42-.35-.66-.49-1.84-1.05-4.03-.17-6-.33-.49-.04-.97-.13-1.45-.22-.58-.11-1.16-.25-1.74-.37-.91-.2-1.83-.36-2.75-.48-2.29-.28-4.6-.4-6.9-.36-2.3.04-4.61.25-6.88.61-5.29.84-10.41,2.62-15.11,5.17-4.2,2.28-8.05,5.13-11.74,8.15-1.78,1.46-3.54,2.94-5.26,4.46-1.03.91-2.03,1.84-3.02,2.8-.55.53-1.1,1.06-1.62,1.62-1.01,1.08-1.91,2.3-3.09,3.2-.17.13-.35.25-.53.37-.26.16-.56.33-.88.34-.35.02-.69-.21-1-.33-.31-.13-.65-.23-.98-.26-.88-.09-1.72.28-2.46.71-1.88,1.08-3.41,2.66-5.15,3.94-3.44,2.53-6.76,5.22-9.81,8.2-1.89,1.85-3.68,3.8-5.3,5.9-1.39,1.8-2.74,3.64-4.04,5.52-.16.24-.32.48-.49.71.06-.75.05-1.5,0-2.25-.43-5.01-3.45-9.37-6.46-13.22-.55-.7-1.1-1.39-1.66-2.07-.76-.94-1.53-1.88-2.28-2.83-.72-.9-1.41-1.82-2.07-2.77-.53-.76-1.05-1.54-1.47-2.36-.69-1.32-1.15-2.75-1.62-4.16-.37-1.13-.76-2.26-1.15-3.38-.93-2.71-1.91-5.41-3.03-8.05-.62-1.46-1.27-2.91-2-4.31-4.65-9.02-12.52-16.04-20.93-21.49-.6-.39-1.21-.78-1.83-1.13-.98-.56-2.01-1.04-3.06-1.46-2.56-1.02-5.26-1.63-7.97-2.15-.38-.07-.77-.15-1.15-.23-.56-.12-1.14-.24-1.71-.29-.58-.05-1.16-.02-1.72.16-.39.12-.75.31-1.09.53-.25.17-.49.36-.7.57-1.35,1.32-1.66,3.17-2.19,4.9-.1.33-.21.66-.33.98-1.19,3.22-2.94,6.18-4.59,9.17-.4.73-.81,1.45-1.19,2.19-.38.74-.73,1.51-1.06,2.27-1.36,3.21-2.24,6.59-2.92,10-.23,1.18-.45,2.36-.57,3.56-.17,1.63-.2,3.28-.15,4.92.2,5.92,1.59,11.71,2.17,17.59.13,1.27.2,2.55.21,3.83.02,2.5-.15,5.01-.27,7.5-.11,2.2-.19,4.41-.1,6.61.04,1.06.13,2.13.29,3.19.2,1.33.54,2.64.98,3.92.63,1.84,1.44,3.61,2.4,5.31-2.2-.8-4.46-1.42-6.74-1.93-6.02-1.35-12.16-1.96-18.21-3.19-5.9-1.2-11.8-2.8-17.86-2.86-3.24-.03-6.44.6-9.62,1.16-1.8.32-3.61.65-5.37,1.18-1.36.41-2.68.94-3.94,1.61-2.8,1.49-5.22,3.55-7.56,5.67-2.35,2.13-4.66,4.34-7.33,6.08-3.68,2.4-7.97,3.67-11.64,6.11-1.11.74-2.18,1.57-3.05,2.6-.39.46-.75.96-.96,1.53-.08.2-.13.42-.15.64-.02.21-.02.43.03.63.14.56.65.98,1.09,1.31.39.3.8.56,1.21.82.17.11.43.25.56.35,1.44,1.06,2.89,2.13,4.05,3.49.38.45.72.91,1.01,1.43.64,1.15,1.07,2.4,1.63,3.59.09.19.17.38.26.56.1.19.22.38.33.57.07.13.14.25.22.38.25.39.52.77.8,1.15,1.19,1.59,2.53,3.08,3.98,4.44,1.26,1.18,2.61,2.28,4.06,3.22,1.8,1.16,3.75,2.08,5.71,2.93,1.48.64,2.98,1.27,4.47,1.88,3.99,1.64,8.06,3.06,12.23,4.14,1.31.34,2.63.64,3.95.91.78.16,1.56.31,2.35.42,2.93.4,5.9.37,8.82.82,1.24.19,2.49.45,3.65.92.55.22,1.08.5,1.58.82,1.05.66,2.04,1.49,2.75,2.52.3.43.57.91.69,1.42.1.43.08.88.06,1.32-.02.43-.05.86-.05,1.29,0,.14,0,.29.01.43.01.14.04.27.06.41.02.13.04.27.07.4.13.53.34,1.06.56,1.56.85,1.89,2.18,3.52,3.6,5.01.83.87,1.71,1.7,2.6,2.51.51.47,1.01.94,1.52,1.4,3.82,3.4,8.2,6.15,12.92,8.11,1.07.44,2.16.84,3.26,1.21.39.13.77.25,1.16.37-1.64.57-3.28,1.2-4.67,2.25-.87.66-1.56,1.51-2.26,2.35-.7.83-1.37,1.69-2.03,2.55-.82,1.07-1.68,2.11-2.34,3.28-1.07,1.89-1.76,3.96-2.5,5.99-.2.55-.41,1.1-.6,1.66-.34,1.02-.64,2.04-.89,3.09-.92,3.83-1.24,7.84-.83,11.76.23,2.27.71,4.53,1.47,6.69.55,1.54,1.25,3.02,2.1,4.41,1.24,2.03,2.76,3.86,4.15,5.79.96,1.33,1.88,2.69,2.78,4.07,1.37,2.11,2.65,4.28,3.71,6.56.49,1.05.93,2.12,1.29,3.22.29.9.52,1.83.59,2.78.09,1.15.02,2.3.03,3.45.01,1.36.12,2.72.56,4.01.54,1.55,1.54,2.91,2.68,4.07,1.95,1.97,4.38,3.46,6.9,4.57.75.33,1.52.64,2.28.96.27.11.54.22.81.33.1.04.22.09.33.14.17.08.32.21.48.31.33.2.7.34,1.09.29.58-.07,1.04-.47,1.37-.92.04-.05.07-.11.11-.16.23-.36.67-.89.95-1.21.65-.71,1.35-1.4,2.2-1.87,1.92-1.06,4.08-1.67,5.92-2.88,1.02-.67,1.88-1.5,2.57-2.5.44-.63.81-1.29,1.12-1.98.25-.56.46-1.14.64-1.72,1.28-4.34.45-8.88.75-13.32.3-4.39,1.72-8.58,3.16-12.71.52-1.5.95-3.03,1.54-4.51.23-.57.49-1.13.77-1.67,1.24-2.44,2.67-4.79,4.38-6.94.9-1.13,1.88-2.2,2.92-3.21.33,1.44.72,2.89,1.49,4.16.91,1.5,2.27,2.67,3.47,3.93.32.33.62.68.95,1,.25.24,1.53.75,2.39,1.07.66.25,1.4.15,1.95-.28,0,0,0,0,.01,0,.19-.15.37-.32.56-.46.11-.08.23-.15.34-.22,1.43-.9,2.9-1.8,4.56-2.23.18-.04.35-.09.53-.12.42-.06.85-.06,1.27-.08.39-.01,2.35-.38,3.21-.51.18-.03.35-.08.51-.16.3-.14.78-.37,1.03-.5,1.62-.85,3.1-2.01,4.07-3.57.45,1.33.92,2.66,1.45,3.97,1.18,2.96,2.6,5.83,4.17,8.6,1.14,2.01,2.38,3.96,3.71,5.86,1.76,2.53,3.7,4.95,5.79,7.22,2.38,2.57,4.98,4.95,7.83,7.01,3.59,2.59,7.61,4.66,11.93,5.7,1.22.29,2.46.51,3.72.62.56.05,1.11.08,1.67.1,3.41.17,6.61,1.55,9.97,2,1.67.22,3.65.24,4.9-1.08.97-1.02,1.36-2.4,1.7-3.73.24-.95.47-1.95,1.03-2.77.5-.74,1.1-1.43,1.7-2.1,1.14-1.27,2.38-2.47,3.54-3.73,1.07-1.16,2.08-2.38,2.88-3.74.86-1.46,1.46-3.06,1.71-4.73.65-4.21-.38-8.41-.79-12.58-.1-.99-.15-1.99-.15-2.99,0-1.82.16-3.64.4-5.44.12-.87.25-1.73.41-2.59.42-2.22,1.03-4.41,1.24-6.67.1-1.06.08-2.13.1-3.19.02-1.35.06-2.71.22-4.05.07-.58.28-1.14.46-1.69.04-.12.08-.25.11-.37.08,0,.15,0,.23.01.52.08.97.38,1.45.57.47.19.97.31,1.48.33.45.02.91-.03,1.36-.05.66-.04,1.31-.1,1.97-.16,1.05-.1,2.1-.23,3.14-.38.67-.1,1.35-.19,2.01-.34,2.66-.62,4.77-2.44,7.19-3.58,2.13-1,4.44-1.65,6.77-1.93,2.11-.26,4.27-.21,6.35.26.98.22,1.93.54,2.85.95,2.37,1.05,4.4,2.66,6.38,4.3,1.95,1.62,3.88,3.29,6.05,4.6,1.98,1.2,4.2,1.98,6.46,2.45,3.09.65,6.28.76,9.43.6,1.15-.06,2.3-.16,3.45-.28.63-.07,1.27-.14,1.9-.24,1.88-.3,3.76-.8,5.51-1.58,1.16-.52,2.28-1.19,3.21-2.07.62-.58,1.15-1.25,1.52-2.02.26-.53.44-1.11.49-1.7.04-.42.02-.85-.08-1.27ZM163.69,72.52c1.27-1.85,2.6-3.66,3.98-5.44,1.56-2.03,3.3-3.92,5.12-5.71,2.99-2.93,6.24-5.56,9.61-8.04.95-.69,1.83-1.47,2.73-2.21.71-.58,1.44-1.15,2.24-1.61.31-.18.63-.35.98-.44.12-.03.27-.06.39-.03.08.02.16.03.24.05.28.08.55.24.82.34.29.11.6.19.91.21,1.01.05,1.94-.49,2.71-1.08,1.27-.97,2.24-2.25,3.32-3.4.53-.57,1.09-1.11,1.65-1.65.84-.81,1.69-1.61,2.56-2.38.72-.65,1.46-1.27,2.2-1.9,1.09-.94,2.19-1.87,3.3-2.78,4.12-3.37,8.44-6.53,13.24-8.88,3.72-1.82,7.68-3.11,11.75-3.88,4.68-.88,9.55-.99,14.26-.41.51.06,1.01.13,1.51.22.8.15,1.58.33,2.38.5-1.04.42-2.08.87-3.09,1.36-.77.37-1.51.77-2.26,1.18-1.43.78-2.83,1.6-4.2,2.47-6.04,3.84-11.48,8.57-16.43,13.73-.73.77-1.46,1.54-2.15,2.34-1.04,1.21-2.02,2.48-3.03,3.71-.33.41-.67.82-1.02,1.22-.35.4-.71.79-1.06,1.19-.12.14-.11.35.03.47.14.12.35.12.47-.02.36-.39.73-.78,1.09-1.18.36-.4.7-.81,1.05-1.21,1.03-1.21,2.03-2.46,3.09-3.65,1.21-1.36,2.51-2.65,3.82-3.91,4.42-4.28,9.24-8.19,14.51-11.38,1.52-.92,3.09-1.8,4.69-2.57.57-.28,1.15-.54,1.73-.81,2.1-.98,4.24-1.85,6.42-2.61.68-.05,1.35-.15,2.02-.17.69-.03,1.47,0,2.01.5.16.15.29.33.39.52.45.82.6,1.8.64,2.72.08,1.64-.2,3.28-.37,4.91-.07.66-.11,1.33-.11,2,0,.55.01,1.1.04,1.65-.8,1.55-1.64,3.07-2.49,4.59-.25.43-.48.87-.73,1.3-1.03,1.79-2.16,3.52-3.34,5.21-3.31,4.72-7.17,9.08-11.55,12.85-1.33,1.14-2.7,2.22-4.11,3.25-.15.11-.19.32-.08.47.11.15.32.19.47.08,2.08-1.44,4.08-2.99,5.97-4.67,3.78-3.33,7.15-7.08,10.19-11.09,1.31-1.73,2.54-3.51,3.71-5.32.28-.43.56-.84.83-1.28.46-.75.89-1.52,1.31-2.29.1,1.73.3,3.47.59,5.18-.12.29-.24.58-.35.88-.05.14-.09.28-.14.41-.07.19-.17.38-.27.56-.16.27-.33.53-.5.79-.37.57-.75,1.14-1.14,1.7-.87,1.26-1.77,2.5-2.64,3.76-.11.15-.08.36.06.47.15.11.36.08.47-.07,1.15-1.38,2.3-2.75,3.45-4.14.37-.45.75-.9,1.12-1.36.15-.18.29-.36.43-.55.11.49.22.98.35,1.47.24.95.47,1.92.5,2.91.03.8-.09,1.59-.22,2.38-.17.97-.38,1.92-.63,2.87-1.75,6.61-5.56,12.47-9.81,17.74-.75.93-1.52,1.82-2.33,2.69-1.34,1.45-2.72,2.89-3.84,4.53-1.92,2.81-3.05,6.05-4.25,9.2-.76,1.99-1.55,3.98-2.63,5.82-.13.22-.27.44-.41.66-.08.05-.15.11-.21.19-.74.98-1.54,1.9-2.35,2.82-.02.02-.03.04-.05.06-.32.29-.65.59-.96.89-.27.27-.56.55-.77.88-.09.13-.15.27-.22.42,0,0,0,0,0,0-1.32,1.43-2.65,2.86-3.79,4.44-2.15,2.97-3.6,6.4-5.22,9.67-.09.16-.02.36.14.45.17.09.37.02.45-.14.64-1.18,1.26-2.37,1.89-3.56,1.14-2.13,2.34-4.25,3.88-6.12.68-.83,1.41-1.6,2.16-2.36-.02.99.13,1.99.32,2.93.4,1.99,1.03,3.91,1.55,5.87.34,1.28.67,2.63.67,3.96,0,1.28-.33,2.56-.75,3.76-.79,2.26-2.02,4.35-3.12,6.46-.51.97-.97,1.95-1.41,2.95-.55,1.25-1.07,2.52-1.74,3.71-.39.69-.8,1.36-1.21,2.04-.75,1.24-1.53,2.47-2.34,3.68-4.07,6.08-8.98,11.69-15.33,15.47-1.82,1.09-3.74,2.01-5.72,2.76-1.22.46-2.47.84-3.73,1.15-3.34.82-6.77,1.22-10.11,2.05-1.67.41-3.3.95-4.92,1.53-2.98,1.07-5.88,2.34-8.66,3.86-.34.19-.68.38-1.02.57,1-.93,1.96-1.89,2.99-2.79.91-.8,1.89-1.53,2.84-2.27,1.37-1.06,2.76-2.09,4.17-3.1,1.83-1.31,3.7-2.58,5.6-3.8,2.33-1.49,4.7-2.89,7.05-4.33,1.35-.82,2.69-1.66,4.02-2.51.16-.1.21-.3.11-.46-.05-.08-.13-.13-.21-.15-.08-.02-.18,0-.25.04-1.35.82-2.7,1.63-4.06,2.43-2.22,1.3-4.45,2.57-6.65,3.9-1.79,1.09-3.55,2.21-5.29,3.38-1.72,1.16-3.41,2.35-5.09,3.58-1.03.76-2.08,1.51-3.07,2.33-1.19.98-2.28,2.06-3.46,3.04-.86.71-1.74,1.39-2.61,2.09-.79.63-1.56,1.3-2.37,1.91-.04.03-.08.06-.11.09-.06,0-.12-.02-.18-.03.15-.2.3-.4.45-.6.22-.27.44-.54.67-.8.22-.27.44-.54.67-.81.58-.68,1.19-1.32,1.8-1.97,1.06-1.12,2.14-2.22,3.23-3.3,3.07-3.06,6.21-6.05,9.08-9.29,5.39-6.08,9.95-12.83,14.53-19.53.24.14.48.27.72.43.21.24.47.41.78.48.08.02.15.04.23.05.04,0,.08-.01.11-.01.01,0,.03,0,.04,0,.13,0,.27,0,.4-.05.14-.04.28-.1.4-.19.72-.49.76-1.44.48-2.18-.18-.49-.47-.94-.79-1.34-.47-.61-1.03-1.15-1.62-1.64-.51-.42-1.06-.8-1.72-.91-.27-.05-.57-.05-.86-.03-.14-.03-.28-.06-.42-.06-1.09,0-1.81,1.07-1.67,2.1.07.48.34.9.68,1.23.29.27.63.48.96.7.19.12.37.25.55.38.04.02.07.05.11.07-4.51,6.6-9,13.26-14.29,19.27-3.01,3.42-6.32,6.56-9.53,9.79-1.1,1.11-2.19,2.23-3.25,3.37-.45.48-.9.96-1.32,1.46-.29.34-.57.69-.86,1.04-.17.21-.36.42-.53.64-.22.29-.43.58-.65.87-.21.29-.43.58-.64.87-.04.06-.08.11-.12.17-.04-.01-.08-.02-.12-.03.63-1.25,1.27-2.5,1.9-3.76.65-1.29,1.28-2.58,2-3.83,1.32-2.3,2.8-4.5,4.15-6.78,1.33-2.25,2.6-4.53,3.93-6.77,1.04-1.74,2.11-3.46,3.21-5.17,2.06-3.23,4.16-6.43,6.17-9.69,1.61-2.61,3.16-5.25,4.53-7.99,1.12-2.24,2.12-4.55,3.03-6.88,1.42-3.66,2.6-7.39,3.57-11.19.39-.05.77-.11,1.15-.2.39-.08.78-.18,1.15-.33.34-.14.68-.33.9-.64.43-.6.48-1.5-.09-2.03-.23-.21-.52-.33-.82-.39-.16-.03-.32-.05-.49-.05-.48-.01-.97.07-1.44.15-.74.12-1.47.32-2.18.55-.13.03-.27.05-.4.08-.51.12-1.1.15-1.44.6-.14.19-.2.42-.2.65,0,0,0,.01,0,.02,0,.02,0,.04,0,.05,0,.09.04.18.06.27,0,.01,0,.03,0,.04,0,0,0,0,0,0,.16.57.64,1.05,1.19,1.23.2.07.41.09.62.1-1.5,5.75-3.48,11.39-6.1,16.72-1.39,2.84-2.98,5.57-4.63,8.26-2,3.26-4.08,6.45-6.13,9.67-1.1,1.73-2.18,3.47-3.23,5.23-1.41,2.37-2.74,4.79-4.14,7.16-1.4,2.36-2.93,4.63-4.26,7.03-.65,1.17-1.24,2.38-1.84,3.57-.73,1.45-1.47,2.9-2.19,4.35-.08.15-.15.3-.23.46-.06-.04-.12-.08-.18-.12.31-1.44.6-2.88.91-4.32.41-1.88.88-3.74,1.38-5.6.54-2.06,1.11-4.11,1.74-6.14,1.8-5.8,4.28-11.34,6.71-16.89.49-1.11.97-2.23,1.43-3.36.69-1.73,1.35-3.47,2.19-5.13.32-.63.66-1.25,1.04-1.85.57-.91,1.2-1.8,1.77-2.71.08-.13.16-.25.23-.38.07.15.13.31.2.46.31.67.71,1.53,1.57,1.52.19,0,.4-.07.57-.16.91-.48.9-1.7.78-2.59-.07-.53-.17-1.05-.3-1.57-.03-1.18-.09-2.36-.55-3.46-.16-.39-.37-.76-.61-1.11-.21-.31-.46-.6-.68-.91-.16-.23-.31-.46-.46-.7-.05-.08-.11-.14-.16-.21-.27-.39-.56-.76-.94-1.05-.22-.16-.49-.32-.76-.38-.15-.03-.28-.04-.42-.01-.71.12-1.02.81-1.2,1.43-.05.18-.1.35-.12.53-.09.87.39,1.81.79,2.55.29.54.61,1.07.9,1.61.15.27.3.54.41.83.09.22.13.45.19.68,0,.01,0,.02,0,.04-.15.3-.3.61-.46.9-.18.33-.38.65-.58.97-.51.83-1.07,1.63-1.6,2.46-.47.73-.89,1.48-1.28,2.26-.86,1.71-1.54,3.5-2.25,5.28-.45,1.11-.92,2.21-1.4,3.31-1.49,3.43-3.01,6.85-4.37,10.33-.87,2.23-1.67,4.48-2.37,6.77-.7,2.29-1.33,4.6-1.92,6.91-.43,1.66-.84,3.31-1.2,4.98-.71,3.31-1.29,6.66-2.34,9.89-.33.99-.7,1.96-1.13,2.91-.27-.06-.55-.11-.82-.15.84-3.3,1.36-6.67,1.94-10.02.4-2.26.85-4.51,1.35-6.75,1.7-7.59,3.9-15.06,6.12-22.51.38-1.27.74-2.55,1.1-3.83.42-1.54.84-3.08,1.32-4.6.6-1.9,1.28-3.78,1.95-5.66,1.2-3.4,2.44-6.8,3.71-10.17,2.07-5.51,4.24-10.98,6.53-16.4,1.29-3.06,2.62-6.12,4.01-9.14,2.99-6.5,6.21-12.88,9.36-19.3.03.02.05.04.08.05.88.63,1.69,1.35,2.54,2,.53.4,1.08.79,1.66,1.11,1,.54,2.11.92,3.23,1.12,1.41.25,3,.16,4.13-.82.2-.18.38-.38.54-.59.33-.46.53-.98.58-1.54.03-.31.02-.62.02-.93,0-.22,0-.44-.01-.66-.03-.51-.12-1.02-.26-1.51-.12-.41-.29-.82-.49-1.2-1.22-2.32-3.61-3.59-5.66-5.07-.26-.19-.53-.39-.78-.59-.24-.19-.46-.4-.69-.6,0,0,0,0,0,0-.23-.28-.46-.56-.69-.84-.11-.14-.21-.29-.33-.42,0-.04-.02-.08-.03-.12-.08-.37-.01-.77.05-1.14.06-.32.13-.64.17-.96.13-1.03-.06-1.95-.8-2.71-.52-.54-1.21-.94-1.94-1.11-.5-.12-1.01-.14-1.52-.14-.42,0-.83.02-1.24.09-.95.16-1.82.58-2.52,1.24-.52.48-.92,1.07-1.34,1.64-.45.62-.93,1.25-1.61,1.64-.51.29-1.09.43-1.66.58-.61.16-1.22.3-1.82.48-.34.1-.68.22-1,.37-.06.03,0,0-.35.17-.07.04-.13.1-.19.15-.33.17-.44.23-.66.34-.47.22-.95.41-1.41.63-.42.2-.83.42-1.2.69-.59.43-1.11.97-1.53,1.58-.26.37-.46.78-.6,1.21-.1.32-.16.65-.17.99-.07,2.26,1.92,3.98,3.84,4.78.35.15.71.27,1.07.36.43.11.86.19,1.3.21,1.22.07,2.41-.23,3.57-.6-1.34,3.98-2.98,7.86-4.46,11.79-.93,2.49-1.85,4.98-2.81,7.45-1.49,3.86-3.01,7.71-4.53,11.55-2.2,5.57-4.4,11.13-6.47,16.75-.74,2.02-1.48,4.04-2.18,6.08-.74,2.16-1.45,4.33-2.13,6.51-1.02,3.25-1.98,6.53-2.99,9.78-.46,1.49-.94,2.98-1.44,4.47-.22.67-.45,1.34-.67,2.01.25-2.21.47-4.43.66-6.64.4-4.55.69-9.11.89-13.68.21-4.71.26-9.43.22-14.15,0-1.02-.02-2.04-.04-3.06-.04-1.61-.08-3.22.01-4.83.1-1.78.35-3.56.63-5.32.27-1.68.57-3.36.85-5.04.03-.01.07-.02.1-.03.62-.2,1.24-.41,1.83-.69.85-.41,1.57-.99,2.21-1.69.29-.32.57-.67.76-1.07.33-.72.22-1.54-.5-1.98-.15-.09-.32-.16-.5-.2-.15-.03-.29-.04-.43-.04-.43.02-.86.18-1.24.38-.37.19-.71.42-1.1.56-.54.2-1.11.3-1.66.45-.4.11-.79.24-1.17.41-.64.29-1.24.67-1.8,1.09-.45.34-.88.7-1.32,1.04-.74.57-1.67,1.35-1.46,2.4,0,.04.03.07.04.11-.02.55.18,1.11.65,1.42.11.08.23.13.36.17.16.05.34.07.51.07.42,0,.83-.14,1.2-.31.5-.23.97-.52,1.43-.83-.51,2.98-1.06,5.97-1.24,9-.1,1.66-.05,3.32-.01,4.99.03,1.01.04,2.02.04,3.03.03,4.69,0,9.37-.2,14.06-.19,4.54-.47,9.08-.86,13.6-.76,8.98-1.96,17.93-3.96,26.72-.85,3.73-1.85,7.43-2.99,11.08-.21.27-.42.55-.64.82-.05.03-.11.07-.16.1-.4.14-.8.29-1.2.46-.4.18-.8.38-1.17.61-.26.1-.52.2-.78.31-.17,0-.36-.02-.54-.04.02-.03.03-.06.05-.09.78-1.87,1.43-3.8,1.96-5.76,1.38-5.17,1.98-10.5,2.7-15.79.46-3.37,1.04-6.73,1.29-10.13.19-2.56.19-5.14-.15-7.69-.19-1.45-.5-2.88-.78-4.31-.37-1.84-.75-3.68-1.12-5.52-1.15-5.58-2.28-11.17-3.02-16.82-.26-1.95-.51-3.91-.64-5.87-.13-1.84-.15-3.69.07-5.52.09-.74.21-1.48.33-2.22.22-1.34.5-2.68.96-3.96.37-1.03.86-2.11,1.68-2.87.32-.3.7-.54,1.12-.7.72-.28,1.49-.35,2.19-.69,1.01-.49,1.61-1.36,2.16-2.31,1.9-3.24,2.7-6.96,4.27-10.35,1.26-2.71,2.84-5.25,4.53-7.71ZM179.64,177c-1.21-.21-2.42-.49-3.64-.63-.4-.04-.8-.07-1.2-.07-.4,0-.8,0-1.2.02-2.59.13-5.09.79-7.55,1.56-.82.26-1.64.53-2.45.8.06-.05.12-.1.18-.14,1.67-1.35,3.38-2.7,5.32-3.64,1.02-.49,2.11-.8,3.19-1.13.84-.26,1.67-.56,2.51-.82,6.7-2.08,13.78-2.76,20.77-2.23,2.39.18,4.75.52,7.1.97-3.15,1.08-6.18,2.5-9.07,4.14-2.57,1.46-4.98,3.16-7.46,4.76-.4.26-.8.53-1.18.82-.69.52-1.34,1.02-2.2,1.23-1.34.32-2.7.57-4.06.77-3.52.51-7.14.58-10.62-.23-2.22-.52-4.32-1.38-6.46-2.14.42-.15.84-.3,1.25-.47.26-.11.52-.22.78-.33.78-.33,1.56-.65,2.34-.96,2.37-.92,4.81-1.72,7.34-2,.86-.09,1.72-.13,2.59-.07,1.21.09,2.41.32,3.62.48.18.03.35-.1.38-.28.03-.18-.1-.35-.28-.38ZM196.02,60.59c.03.36.1.74.27,1.06.07.13.18.27.27.39.12.16.25.33.38.49.22.28.44.59.7.84.14.14.29.26.44.39.14.12.27.24.41.35.42.33.86.64,1.29.95.36.25.71.49,1.07.74,1.58,1.08,3.38,2.31,3.95,4.24.11.36.17.73.19,1.11.02.3.02.59.02.89,0,.28,0,.58-.12.84-.44.97-1.68,1.06-2.6.97-.14-.01-.27-.04-.4-.06-.19-.03-.37-.07-.55-.11-.95-.23-1.87-.61-2.69-1.14-1.9-1.24-3.45-3.01-5.59-3.86-.59-.24-1.22-.4-1.86-.44-.95-.06-1.9.13-2.81.39-1.13.32-2.21.77-3.34,1.08-.7.19-1.43.33-2.16.29-.56-.03-1.1-.17-1.62-.36-.56-.22-1.09-.51-1.56-.87-.34-.26-.66-.58-.91-.93-.16-.23-.28-.47-.36-.74-.25-.83.1-1.57.63-2.2.21-.25.45-.49.71-.7.14-.11.28-.21.43-.3.2-.13.42-.24.63-.34.31-.15.63-.28.95-.43.31-.14.61-.27.91-.42.08-.04.17-.09.25-.13,0,0,.03-.01.04-.02.08-.02.15-.03.23-.07.54-.24.35-.17.54-.24.34-.13.7-.23,1.05-.32,1.18-.32,2.44-.52,3.5-1.19.77-.49,1.37-1.18,1.9-1.91.5-.68.97-1.44,1.7-1.89.7-.43,1.53-.47,2.33-.44.35.01.72.04,1.05.18.18.07.34.18.49.3.14.11.28.23.38.38.28.41.16.95.08,1.4-.11.62-.24,1.24-.19,1.87ZM188.56,70.46s0-.03,0-.04c.21-.06.43-.13.65-.18.8-.21,1.62-.33,2.44-.15.27.06.53.15.78.25-3.17,6.47-6.41,12.91-9.42,19.46-1.62,3.53-3.16,7.09-4.65,10.68-2.09,5.02-4.08,10.08-5.99,15.18-1.25,3.33-2.46,6.67-3.64,10.03-.67,1.9-1.36,3.8-1.96,5.72-.56,1.8-1.04,3.62-1.55,5.44-.29,1.06-.6,2.11-.91,3.17-2.21,7.45-4.4,14.91-6.09,22.49-.51,2.27-.97,4.54-1.37,6.83-.59,3.4-1.11,6.81-1.98,10.15-.26,0-.52-.01-.77-.01-.08-.04-.17-.06-.25-.1.85-4.29,2.03-8.51,2.83-12.81.63-3.42,1.11-6.87,1.72-10.29.09-.48.17-.97.26-1.45.1-.54.22-1.08.33-1.62.11-.53.21-1.05.34-1.57.46-1.88,1.09-3.7,1.71-5.53.5-1.5.98-3,1.45-4.5,1.7-5.42,3.28-10.87,5.13-16.24.9-2.6,1.85-5.18,2.82-7.75,2.07-5.52,4.25-11,6.43-16.48,1.55-3.92,3.1-7.85,4.61-11.79.75-1.96,1.47-3.92,2.21-5.88,1.63-4.33,3.46-8.59,4.85-13ZM91.81,81.31c-.37-1.1-.67-2.23-.86-3.38-.18-1.12-.26-2.26-.31-3.39-.09-2.15,0-4.3.12-6.44.12-2.33.27-4.66.27-6.99,0-1.53-.08-3.06-.24-4.58.19.51.39,1.01.61,1.5,1.52,3.44,3.55,6.63,5.44,9.87,2.73,4.69,5.6,9.3,8.23,14.05,1.35,2.45,2.62,4.94,3.8,7.48.08.17.28.25.44.17.17-.08.25-.28.17-.45-1.14-2.57-2.39-5.1-3.71-7.59-2.55-4.8-5.34-9.47-7.98-14.21-.65-1.16-1.3-2.31-1.95-3.47-1.08-1.93-2.14-3.87-3-5.9-.6-1.41-1.08-2.86-1.5-4.33-.14-.48-.25-.97-.38-1.45-.73-2.75-1.33-5.54-1.91-8.32-.01-.07-.04-.13-.07-.2-.21-1.83-.36-3.66-.38-5.51,0-.63,0-1.26.03-1.89.04.12.08.24.13.36.58,1.61,1.32,3.16,2.07,4.69,2.6,5.33,5.63,10.45,9.14,15.23.11.15.32.19.47.08.15-.11.19-.32.08-.47-3.23-4.68-6.01-9.66-8.34-14.85-.75-1.68-1.5-3.38-2.01-5.15-.11-.39-.2-.79-.3-1.19-.33-1.38-.52-2.77-.5-4.19.63-3.17,1.48-6.32,2.74-9.3.59-1.4,1.29-2.73,2.03-4.06,1.56-2.83,3.2-5.63,4.42-8.63.08.38.17.75.26,1.12.11.44.25.87.38,1.31.19.66.39,1.31.57,1.97.23.83.45,1.66.71,2.48.46,1.47,1,2.9,1.6,4.32,1.29,3.1,2.84,6.09,4.37,9.08.83,1.62,1.64,3.25,2.44,4.89.08.17.28.24.45.16.17-.08.24-.28.16-.45-.75-1.66-1.52-3.32-2.31-4.97-1.5-3.14-3.01-6.29-4.23-9.55-.47-1.26-.89-2.55-1.25-3.85-.3-1.11-.54-2.24-.81-3.36-.19-.8-.36-1.6-.53-2.4-.31-1.4-.57-2.81-.64-4.24.09-.32.18-.63.29-.94.26-.74.62-1.48,1.23-1.98.04.05.09.09.13.14.09.12.15.27.23.4.14.25.28.51.44.75.09.15.15.22.25.36.32.49.62.99.93,1.49,1.33,2.2,2.59,4.45,3.91,6.66.09.16.29.22.45.13.16-.09.22-.29.14-.45-1.16-2.3-2.27-4.62-3.38-6.94-.25-.53-.51-1.06-.75-1.6-.06-.13-.11-.27-.17-.41-.12-.27-.26-.53-.41-.78-.07-.12-.13-.24-.2-.36.61,0,1.24.15,1.8.27.58.13,1.16.23,1.73.34,2.58.51,5.15,1.12,7.58,2.14.81.34,1.59.72,2.35,1.15.78.44,1.53.93,2.28,1.42,8.13,5.34,15.7,12.18,20.08,21,1.92,3.86,3.39,7.92,4.79,11.99.35,1.02.7,2.04,1.03,3.06.01.04.02.07.04.11-.09.18-.11.4-.04.61.5,1.5.87,3.04,1.21,4.58.07.31.15.62.21.93.07.31.12.63.18.94.17.95.32,1.9.45,2.86.19,1.44.34,2.88.47,4.33.08.86.15,1.72.25,2.58.3,2.64.75,5.27,1.01,7.92.15,1.5.21,3,.19,4.51,0,.19.14.34.32.35.18,0,.34-.14.35-.33.07-1.53.05-3.06-.06-4.59-.18-2.7-.58-5.39-.78-8.09-.09-1.19-.15-2.38-.22-3.57-.11-1.79-.25-3.58-.46-5.37-.06-.48-.12-.96-.18-1.44.15.22.3.44.45.65.72,1.02,1.48,2.01,2.25,2.99.49.62.99,1.24,1.49,1.85.53,1.84.68,3.77.82,5.68.07.97.15,1.95.25,2.92.02.21.22.36.43.34.21-.02.37-.21.35-.42-.06-.55-.12-1.1-.16-1.65-.15-1.85-.25-3.72-.6-5.54,1.5,1.85,2.97,3.73,4.23,5.75,1.15,1.83,2.14,3.79,2.66,5.89.37,1.48.49,3.02.31,4.53-.13,1.11-.42,2.18-.81,3.23-.08.21-.07.43,0,.63-.56,1-1.09,2.02-1.58,3.06-.81,1.73-1.42,3.54-2.06,5.33-.6,1.66-1.23,3.33-2.12,4.86-.3.52-.62,1.11-1.14,1.45-.53.35-1.23.42-1.83.6-.81.25-1.55.65-2.16,1.23-1.03.97-1.68,2.29-2.15,3.6-.49,1.38-.8,2.83-1.04,4.28-.13.76-.25,1.53-.35,2.29-.24,1.95-.22,3.92-.08,5.88.09,1.38.25,2.76.42,4.14-.3-.86-.61-1.72-.92-2.58-.21-.57-.44-1.14-.65-1.71-.94-2.52-1.9-5.03-2.81-7.56-.84-2.32-1.66-4.65-2.48-6.98-1.35-3.81-2.68-7.63-3.99-11.46-2.35-6.89-4.62-13.82-6.54-20.85-.83-3.05-1.62-6.1-2.41-9.16-.51-1.97-1.09-3.93-1.4-5.95-.03-.18-.2-.31-.38-.28-.18.03-.31.2-.28.38.22,1.52.59,3,.97,4.49.17.68.34,1.36.5,2.04.82,3.34,1.65,6.69,2.54,10.01.85,3.17,1.78,6.32,2.74,9.46,1.34,4.39,2.76,8.76,4.21,13.12,1.18,3.56,2.38,7.11,3.58,10.66.73,2.15,1.44,4.29,2.19,6.44.71,2.05,1.45,4.09,2.17,6.14.37,1.07.73,2.14,1.09,3.21.56,1.63,1.09,3.26,1.59,4.91,0,.02,0,.05,0,.07,0,.05,0,.11,0,.16,0,.03,0,.05-.01.08-.02.11,0,.11-.12.08-.02,0-.04-.01-.05-.02-.05-.02-.09-.03-.13-.05-.08-.03-.15-.06-.23-.1-.02,0-.04-.02-.07-.03-2.3-4.85-4.81-9.6-6.99-14.5-.04-.09-.1-.15-.18-.18-.08-.03-.17-.03-.26,0-.17.07-.25.27-.18.44,2.26,5.38,4.91,10.57,7.26,15.91,1.85,4.21,3.53,8.52,4.56,13.01.45,1.99.76,4.01.94,6.04.08.9.13,1.79.15,2.69-1.02-3.83-2.52-7.54-4.31-11.08-3.53-7-8.13-13.38-12.78-19.68.05-.05.1-.1.13-.15.03-.05.1-.09.09-.14-.01-.08-.02-.17-.02-.25.58-.77.96-1.69,1.1-2.65.04-.24.09-.52.05-.77-.06-.4-.35-.7-.73-.82-.17-.05-.35-.07-.52-.06-.15,0-.29.03-.43.08-.72.22-1.1.88-1.34,1.55-.11.31-.2.62-.33.92-.04.08-.09.17-.15.23,0,0-.01.01-.02.02,0,0-.01,0-.02.01,0,0-.02,0-.03.01-.04.02-.08.03-.12.05-.08.03-.17.05-.25.07-.33.08-.66.14-.99.23-.56.14-1.14.33-1.56.74-.62.59-.78,1.65-.25,2.35.12.15.26.28.43.37.76.44,1.74.11,2.48-.22.16-.07.31-.15.47-.23.15-.08.29-.15.44-.24.04-.02.07-.04.11-.07,4.59,6.22,9.16,12.52,12.66,19.43,2.48,4.88,4.42,10.08,5.21,15.52.3,2.09.41,4.2.38,6.31-.23,1.39-.5,2.76-.69,4.16-.29,2.16-.46,4.33-.78,6.49-.27,1.78-.64,3.54-.97,5.31-.12.66-.24,1.31-.36,1.97-.32-1.49-.71-2.97-1.09-4.45-.31-1.21-.61-2.42-.95-3.62-.47-1.68-1-3.34-1.57-4.99-.81-2.35-1.72-4.68-2.7-6.97-.43-1.01-.89-2.01-1.35-3.01-.73-1.63-1.35-3.31-2.05-4.96-.38-.9-.79-1.79-1.24-2.67-.66-1.31-1.38-2.6-2.09-3.88-1.41-2.54-2.87-5.07-4.18-7.67-.43-.85-.83-1.72-1.25-2.58-.58-1.21-1.16-2.41-1.77-3.6-1.61-3.19-3.33-6.34-5.22-9.37-2.26-3.63-4.78-7.12-7.61-10.33-2.95-3.35-6.24-6.41-9.82-9.08-1.56-1.17-3.18-2.3-4.85-3.3-1.28-.76-2.6-1.42-3.96-2,.16-.28.16-.64-.01-.93-1.1-1.84-2.04-3.78-2.73-5.81ZM90.68,166.35c-1.06-.35-2.1-.74-3.13-1.16-4.53-1.87-8.73-4.5-12.39-7.77-.51-.45-1-.91-1.5-1.37-.86-.79-1.71-1.6-2.51-2.44-1.27-1.33-2.48-2.79-3.25-4.48-.17-.39-.35-.8-.45-1.21-.02-.09-.03-.19-.05-.29-.02-.09-.04-.18-.05-.28,0-.09,0-.18,0-.27,0-.33.01-.66.03-.99.04-.67.06-1.35-.09-2.01-.2-.87-.66-1.67-1.2-2.37-.46-.6-.99-1.14-1.57-1.63.73.15,1.46.29,2.19.43.51.1,1.03.18,1.54.28,1.83.35,3.66.78,5.43,1.36,8.28,2.67,15.83,7.11,23.13,11.78.16.1.36.06.46-.1.1-.16.06-.36-.1-.46-7.27-4.87-14.81-9.47-23.08-12.43-1.81-.65-3.67-1.14-5.53-1.59-.37-.09-.74-.19-1.11-.28-1.2-.27-2.41-.51-3.62-.76-2.55-.67-5.12-1.23-7.73-1.55-1.48-.18-2.97-.27-4.46-.29-.06,0-.13.01-.18.04-1.44-.1-2.87-.22-4.29-.49-4.15-.77-8.22-1.92-12.2-3.33-2.06-.73-4.09-1.54-6.11-2.38-2.8-1.17-5.66-2.29-8.25-3.89-2.03-1.25-3.85-2.85-5.49-4.57-.77-.81-1.49-1.65-2.16-2.53-.31-.41-.63-.83-.91-1.26-.1-.15-.18-.31-.27-.46-.09-.15-.19-.3-.27-.46-.1-.2-.19-.41-.29-.61-.6-1.28-1.06-2.62-1.78-3.84-.24-.41-.51-.79-.81-1.15.44.23.88.45,1.32.66,1.43.69,2.91,1.27,4.44,1.73,7.75,2.31,15.89,2.68,23.92,2.75,4.36.04,8.74.07,13.09-.26,1.43-.11,2.86-.27,4.28-.47.18-.02.31-.19.29-.38-.02-.18-.19-.31-.38-.29-5.77.72-11.6.61-17.41.46-4.81-.12-9.62-.35-14.38-1.07-2.68-.4-5.34-.96-7.93-1.76-1.01-.31-2.02-.63-2.98-1.05-2.16-.94-4.2-2.12-6.3-3.19-.88-.45-1.77-.88-2.68-1.27-.19-.13-.39-.24-.58-.36-.41-.25-.81-.52-1.19-.82-.09-.07-.18-.15-.27-.23,0,0,0-.01-.01-.02,0-.04.02-.08.03-.13.05-.14.13-.28.21-.41.23-.38.53-.71.84-1.03.47-.48.99-.91,1.53-1.31,1.05-.77,2.18-1.41,3.34-2.01,1.81-.94,3.68-1.74,5.5-2.64,1.16-.43,2.34-.83,3.53-1.18,2.31-.68,4.65-1.22,7-1.76.71-.16,1.41-.34,2.12-.49,1.25-.28,2.51-.56,3.77-.81,1.98-.38,3.97-.69,5.97-.94,6.64-.83,13.35-.94,20.02-.51,7.03.45,14.06,1.56,20.71,3.96.17.06.36-.02.43-.2.06-.17-.02-.37-.2-.43-1.7-.64-3.42-1.2-5.17-1.68-5.12-1.41-10.41-2.17-15.7-2.59-3.09-.24-6.19-.37-9.29-.37-3.1,0-6.2.13-9.29.41-3.68.33-7.33.88-10.95,1.6-2.09.42-4.18.81-6.25,1.31-.4.1-.8.2-1.21.31.72-.55,1.42-1.13,2.1-1.72,1.05-.91,2.07-1.85,3.1-2.79.13.02.27.01.41-.04.57-.22,1.14-.45,1.7-.71.14-.06.26-.14.4-.21.2-.1.4-.19.61-.29.46-.21.93-.4,1.41-.56.82-.26,1.67-.39,2.52-.54,1.38-.25,2.78-.46,4.16-.69.18-.02.31-.19.29-.38-.02-.18-.19-.31-.38-.29-1.4.13-2.81.25-4.21.38-.82.08-1.65.14-2.46.29-.47.09-.93.21-1.38.34,1.51-1.23,3.09-2.36,4.84-3.24,1.04-.53,2.13-.95,3.25-1.28,1.69-.51,3.43-.82,5.17-1.13,2.28-.4,4.57-.85,6.88-1.04,1.07-.09,2.14-.11,3.21-.08,6.47.22,12.73,2.12,19.07,3.25,5.48.97,11.02,1.59,16.45,2.86,4.06.95,8.08,2.28,11.68,4.42,1.62.96,3.18,2.06,4.7,3.19,3.48,2.6,6.68,5.57,9.55,8.84,2.97,3.38,5.59,7.06,7.93,10.9,1.84,3.02,3.52,6.14,5.09,9.31.88,1.76,1.68,3.55,2.57,5.3,1.32,2.62,2.79,5.16,4.21,7.73.7,1.26,1.41,2.53,2.06,3.82.42.84.82,1.7,1.19,2.57.7,1.66,1.33,3.35,2.07,5,.45.99.9,1.98,1.33,2.98.97,2.25,1.85,4.53,2.66,6.85.56,1.61,1.07,3.24,1.54,4.88.34,1.19.64,2.38.94,3.58.57,2.22,1.16,4.45,1.52,6.72.03.17.05.34.07.51-.03.06-.06.12-.1.18-.35-1.25-.77-2.49-1.26-3.7-.38-.95-.81-1.89-1.25-2.82-.65-1.37-1.31-2.72-1.99-4.07-1.03-2.07-2.11-4.1-3.27-6.1-2.02-3.48-4.24-6.84-6.63-10.07-5.47-7.38-11.87-14.07-18.84-20.04-2.32-1.99-4.72-3.89-7.16-5.73-.07-.06-.16-.08-.25-.07-.09.01-.16.06-.22.13-.11.15-.08.36.06.47,3.01,2.32,5.94,4.74,8.76,7.3,7.17,6.5,13.66,13.79,19.03,21.85,1.89,2.84,3.64,5.76,5.24,8.78.69,1.3,1.34,2.62,1.97,3.95.66,1.4,1.33,2.79,1.95,4.21.21.48.41.97.61,1.45.87,2.11,1.63,4.27,2.11,6.5-.06.02-.13.05-.18.09-.14-.34-.29-.68-.47-1.01-.24-.45-.52-.88-.8-1.31-.42-.65-.86-1.28-1.31-1.9-.75-1.06-1.5-2.13-2.31-3.16-1.3-1.65-2.69-3.22-4.16-4.72-4.26-4.34-9.13-8-14.05-11.55-.07-.05-.16-.07-.25-.06-.09.01-.17.05-.22.13-.11.15-.08.36.07.47,5.24,3.95,10.43,8.05,14.79,13,1.67,1.9,3.19,3.91,4.56,6.03.89,1.37,1.81,2.73,2.48,4.23.21.46.36.93.53,1.41.12.35.24.7.35,1.05-.04.05-.09.11-.13.16-.06-.1-.13-.19-.2-.28-.08-.11-.18-.21-.27-.31-.3-.34-.6-.68-.9-1.02-.26-.3-.51-.6-.78-.89-.47-.5-.98-.95-1.5-1.39-1.75-1.44-3.75-2.54-5.71-3.68-.08-.05-.17-.06-.25-.04s-.16.07-.21.15c-.1.16-.05.37.11.46,1.94,1.29,3.95,2.54,5.62,4.19.36.35.7.72,1.01,1.12.23.29.45.6.67.91.25.35.53.7.75,1.07.12.2.23.39.35.59.15.26.28.54.36.83-.12-.03-.23-.07-.35-.11-.53-.17-1.05-.37-1.58-.52-.65-.19-1.32-.34-1.98-.48-1.15-.25-2.31-.45-3.48-.63-1.56-.24-3.12-.45-4.68-.7-1.27-.2-2.53-.44-3.79-.63-1.42-.22-2.84-.41-4.27-.6-5.24-.69-10.67-1.35-15.5-3.61-.66-.31-1.32-.65-1.81-1.2-.19-.2-.37-.45-.45-.72-.07-.23-.08-.47-.09-.7-.01-.27-.01-.54-.05-.81-.03-.22-.07-.43-.15-.64-.23-.62-.67-1-1.28-1.24-.6-.24-1.26-.27-1.91-.26-.47.01-.93.05-1.39.03-1.95-.09-3.91-.26-5.82-.69-.85-.19-1.68-.44-2.5-.72ZM134.42,195.2c-2.2,1.98-4.14,4.24-5.79,6.7-.8,1.19-1.54,2.43-2.22,3.7-.36.67-.71,1.34-1.03,2.03-.07,0-.14,0-.22,0-.26-.05-.41-.26-.5-.5.01-.12.02-.25.03-.37.18-1.87.44-3.73.82-5.58.38-1.87.87-3.72,1.48-5.53.06-.17-.03-.36-.2-.43-.17-.06-.37.03-.43.2-.55,1.43-1.03,2.88-1.43,4.35-.72,2.64-1.2,5.33-1.59,8.04-.15,1.02-.27,2.05-.41,3.07-.04.28-.08.55-.11.83-.1.99-.16,1.98-.23,2.97-.23.97-.45,1.94-.66,2.92-.79,2.55-1.43,5.14-1.7,7.81-.29,2.89-.05,5.78-.09,8.67-.04,2.21-.25,4.48-1.14,6.53-.52,1.21-1.27,2.38-2.27,3.24-.8.69-1.74,1.18-2.7,1.62-1.22.56-2.49,1.03-3.67,1.67.11-.27.2-.55.29-.82.86-2.65,1.01-5.45.99-8.22,0-.78-.03-1.57-.07-2.35-.19-3.91-1.08-7.74-1.72-11.59-.78-4.69-1.57-9.38-2.04-14.11-.24-2.44-.37-4.9-.41-7.35,0-.19-.15-.33-.34-.33-.18,0-.33.15-.33.34,0,2.48.09,4.94.29,7.41.38,4.68,1.07,9.33,1.75,13.98.21,1.41.43,2.82.66,4.23.35,2.17.68,4.35.79,6.55.05.87.05,1.75.04,2.63-.01,1.23-.05,2.47-.19,3.69-.08.67-.18,1.34-.3,2-.33,1.86-.87,3.75-1.9,5.35-.15.23-.31.45-.48.67,0-.12,0-.24,0-.36-.01-.79-.04-1.58-.08-2.37-.18-2.99-.75-5.93-1.37-8.85-.03-.18-.21-.3-.39-.27-.18.03-.3.21-.27.39.43,2.85.83,5.73.79,8.62-.01.8-.05,1.61-.15,2.4-.02.19-.06.38-.08.57-.04.31-.07.62-.11.94-.09.09-.19.17-.29.24-.06.05-.13.09-.2.13-.07-.03-.15-.06-.22-.09-.91-.38-1.83-.74-2.73-1.13-1.77-.77-3.46-1.71-4.98-2.9-.76-.6-1.49-1.25-2.12-1.99-.73-.84-1.37-1.81-1.71-2.88-.78-2.46-.17-5.06-.54-7.56-.1-.71-.27-1.41-.48-2.1-.35-1.97-1.09-3.85-1.87-5.69-.44-1.04-.9-2.07-1.29-3.13-.33-.91-.59-1.84-.8-2.78-.61-2.78-.81-5.62-1.01-8.45-.07-1.07-.16-2.14-.21-3.22-.07-1.58-.07-3.17,0-4.75.13-2.89.5-5.77,1.1-8.6.28-1.3.61-2.58.97-3.86.05-.18-.05-.36-.22-.41-.18-.05-.37.05-.42.22-.39,1.29-.76,2.58-1.06,3.89-.73,3.13-1.17,6.32-1.33,9.52-.07,1.34-.09,2.68-.06,4.02.03,1.16.1,2.32.15,3.48.14,2.97.3,5.96.9,8.89.06.3.13.6.21.89-.46-.72-.93-1.44-1.41-2.16-.66-.98-1.34-1.96-2.05-2.92-1.38-1.87-2.85-3.67-4.04-5.67-.79-1.33-1.42-2.76-1.91-4.23-.62-1.87-1.02-3.82-1.22-5.79-.38-3.72-.08-7.52.79-11.16.24-.99.52-1.97.84-2.93.18-.55.39-1.08.58-1.63.71-1.94,1.36-3.92,2.38-5.73.59-1.04,1.35-1.97,2.08-2.91.76-.98,1.53-1.96,2.33-2.91.54-.65,1.08-1.3,1.75-1.81.81-.61,1.73-1.04,2.67-1.42,1.13-.46,2.29-.83,3.43-1.24.98-.13,1.98-.1,2.95,0,.48.05.98.05,1.43.21-.21.11-.41.22-.61.35-.32.2-.62.42-.92.64-.49.36-.97.73-1.46,1.1-.52.39-1.03.77-1.53,1.17-.95.78-1.85,1.62-2.68,2.53-1.97,2.13-3.57,4.59-4.77,7.22-.51,1.11-.94,2.25-1.32,3.41-.06.18.04.37.21.43.17.06.36-.03.42-.21.45-1.23.96-2.44,1.56-3.6,1.28-2.49,2.94-4.78,4.94-6.73.76-.73,1.56-1.42,2.41-2.05.5-.37,1.02-.72,1.54-1.06.54-.36,1.07-.73,1.63-1.06.29-.17.6-.34.89-.51.97-.54,2.02-.95,3.15-.92.11,0,.21-.02.3-.05,0,.13.01.26.02.39.02.48.07.94.25,1.39.53,1.31,1.73,2.15,2.96,2.74,1.5.72,3.05,1.28,4.63,1.75-.05.21-.07.43-.1.64-.48.23-.95.48-1.38.79-.46.32-.87.7-1.28,1.08-1.21,1.15-2.24,2.49-3.26,3.8-.49.63-1,1.26-1.46,1.91-.8,1.12-1.53,2.31-2.15,3.54-1.57,3.09-2.51,6.48-2.87,9.92-.21,1.98-.22,3.97-.08,5.95,0,.18.17.33.35.31.18-.01.33-.17.32-.35-.08-1.94-.03-3.88.22-5.82.45-3.47,1.52-6.85,3.24-9.9.58-1.03,1.23-2.01,1.94-2.95.48-.63.99-1.22,1.5-1.82.73-.87,1.46-1.74,2.25-2.55.36-.37.74-.74,1.14-1.07.25-.21.51-.4.78-.59.82-.58,1.74-.97,2.67-1.34.58-.23,1.17-.46,1.75-.69.98.2,1.96.37,2.95.53-.14.07-.28.15-.42.23-.17.1-.31.21-.48.32-.3.22-.6.43-.89.66-1.09.87-2.04,1.92-2.76,3.11-.9,1.48-1.47,3.12-1.87,4.8-.05.18.06.37.24.41.18.05.36-.06.41-.24.37-1.18.81-2.34,1.42-3.41.66-1.16,1.52-2.21,2.58-3.04.51-.39,1.06-.75,1.64-1.03.15-.07.31-.14.46-.21.13-.06.27-.12.4-.19.96-.38,1.95-.68,2.96-.9,2.05.27,4.1.53,6.13.86.78.13,1.56.27,2.35.41.82.14,1.65.26,2.47.38,2.51.37,5.03.7,7.5,1.3.03,0,.06.02.09.02.14.06.28.13.42.19.33.14.67.27,1,.4,1.18.46,2.39.88,3.54,1.41.68.61,1.18,1.46,1.27,2.36.03.3,0,.59-.04.89-.12.2-.25.39-.39.58-.37.53-.77,1.04-1.22,1.5-.69.69-1.49,1.27-2.3,1.81-1.38.92-2.84,1.72-4.17,2.72-.75.56-1.47,1.18-2.17,1.8ZM159.81,198.2c-.79,1.46-2.14,2.49-3.59,3.25-.39.21-.8.4-1.21.58-.2.09-.4.18-.61.22-.51.1-1.03.12-1.55.14-.69.02-1.4,0-2.08.11-.24.03-.48.09-.71.15-.12.03-.24.07-.35.1.09-.18.17-.37.24-.56.49-1.26.54-2.62.75-3.93.11-.69.24-1.37.33-2.07.23-1.69.39-3.39.62-5.07.03-.18-.1-.36-.28-.39-.18-.03-.36.1-.39.28-.29,1.49-.52,2.98-.81,4.47-.11.55-.22,1.1-.35,1.64-.07.31-.15.62-.22.93-.24,1.03-.38,2.1-.78,3.09-.08.2-.18.42-.29.6-.13.21-.28.42-.41.63-.31.48-.64.95-.95,1.43-.59.31-1.17.65-1.74,1-.14.09-.28.17-.42.25-.2.05-.41.08-.62.1.24-.9.42-1.82.61-2.74.04-.21-.1-.41-.31-.45-.21-.04-.41.09-.45.3-.18.96-.36,1.93-.61,2.88-.82-.08-1.6-.38-2.35-.72-.09-.1-.18-.2-.28-.3-.59-.6-1.19-1.19-1.76-1.81-.52-.56-1.03-1.14-1.41-1.81-.25-.43-.45-.89-.62-1.37.02-.05.02-.1.01-.16-.13-1.11-.27-2.22-.45-3.32.14-.11.27-.23.41-.34,2.61-2.11,5.92-3.37,8.05-6.06.63-.8,1.21-1.65,1.67-2.57.3-.6.56-1.23.68-1.89.01-.06.02-.13.03-.19.02-.03.04-.07.06-.1.06-.05.12-.11.15-.18.06-.13.12-.26.18-.39.4-.65.85-1.27,1.4-1.8.05-.03.1-.06.16-.09,1.38-.74,3.09-.96,4.6-.52,1.37.92,2.23,2.43,2.86,3.92,1,2.38,1.44,4.94,2.09,7.43.36,1.39.78,2.77,1.23,4.14-.13.41-.29.81-.49,1.19ZM229.15,178.18c-.19.7-.45,1.39-.62,2.1-.1.39-.15.79-.19,1.19-.15,1.41-.16,2.82-.17,4.24,0,.84,0,1.69-.08,2.53-.21,2.31-.87,4.56-1.28,6.84-.1.58-.2,1.17-.29,1.76-.18.1-.16.09-.18.1,0,0,.02-.01.02-.02-.03-.06-.11.06-.16.09,0,0,0,0,0,0-.03.02-.11.06-.15.08-.03.01-.07.03-.11.06-.21-.26-.43-.51-.66-.75-.76-.8-1.62-1.51-2.47-2.22-.07-.06-.15-.09-.24-.09-.09,0-.17.03-.23.1-.13.14-.12.35.01.48.91.96,1.84,1.92,2.52,3.05.18.29.34.59.48.91.05.12.11.25.15.38.03.09.05.18.08.27.13.32.29.64.42.96.03.08.08.14.13.2-.07,1.03-.1,2.05-.09,3.08.01.85.07,1.7.14,2.55-.04.09-.07.18-.09.27-.07.03-.14.05-.2.07-.11.04-.22.07-.32.11-.21-.4-.44-.79-.67-1.18-1.52-2.57-3.37-4.94-5.39-7.13-2.29-2.48-4.81-4.73-7.46-6.81-.07-.06-.16-.08-.24-.07-.09,0-.17.05-.23.12-.12.14-.09.36.05.47,1.09.9,2.16,1.83,3.2,2.8,2.37,2.2,4.56,4.61,6.47,7.22,1.72,2.35,3.21,4.9,4.23,7.63.56,1.51.96,3.08,1.22,4.67.18,1.07.28,2.15.29,3.24,0,.1.02.19.06.28-.02.21-.05.43-.08.64-.1.68-.27,1.36-.5,2.01-.79,2.22-2.28,4.07-3.87,5.76-1.18,1.26-2.42,2.47-3.56,3.77-.57.64-1.13,1.3-1.61,2.02-.74,1.09-1.03,2.38-1.36,3.63-.24.93-.51,1.93-1.18,2.65-.37.4-.93.54-1.45.6-.98.11-1.99-.05-2.95-.23-2.18-.41-4.29-1.12-6.47-1.52-.69-.13-1.4-.23-2.1-.28-.03,0-.07,0-.1,0-.05-.02-.09-.03-.14-.04-.99-.17-1.9-.53-2.8-.97-.2-.1-.41-.19-.61-.29-.41-.21-.81-.45-1.2-.69-.96-.59-1.89-1.21-2.73-1.96-.81-.72-1.54-1.52-2.22-2.36-1.51-1.87-2.73-3.95-3.78-6.1-.04-.08-.11-.14-.19-.17-.08-.03-.17-.03-.25.01-.17.08-.24.28-.16.44,1.42,3.27,3.27,6.49,5.82,9.01.75.74,1.57,1.37,2.41,2,0,0,0,0,.01,0-.01,0-.03.04-.04.06-.01.01-.03.03-.04.05-.05.05-.09.09-.14.14-4.79-1.28-9.18-3.9-12.99-7.04-4.22-3.47-7.85-7.65-10.97-12.12-1.71-2.45-3.26-5.01-4.66-7.65-1.25-2.37-2.37-4.8-3.33-7.31-.18-.48-.36-.97-.53-1.46-.13-.39-.26-.79-.39-1.18-.26-.82-.51-1.64-.76-2.46-.01-.09-.04-.18-.08-.26-.25-.84-.5-1.67-.76-2.51-.21-.69-.44-1.38-.67-2.06-.34-1.37-.64-2.74-1.01-4.1-.41-1.47-.91-2.92-1.61-4.28-.26-.51-.55-.99-.88-1.45-.11-.15-.23-.29-.34-.43,1.57.29,3.09.79,4.59,1.32,1.77.63,3.52,1.32,5.33,1.82.93.45,1.87.88,2.81,1.3.36.16.73.31,1.1.46.73.31,1.45.64,2.17.97,2.06.95,4.11,1.99,6.01,3.24,4.03,2.65,7.31,6.25,10.65,9.69.13.14.34.14.48.01.13-.13.14-.34.01-.47-3.14-3.43-6.22-6.98-9.98-9.75-1.89-1.4-3.95-2.56-6.03-3.66-.6-.32-1.21-.63-1.82-.94,2.51.13,5.04-.06,7.52-.46.65-.1,1.3-.22,1.95-.35.09.03.19.04.29.03.42-.03.83-.01,1.23.1.45.12.87.35,1.27.58.39.23.77.47,1.16.7.4.24.82.46,1.22.7.35.21.69.43,1.03.67.38.27.76.56,1.12.85.29.23.57.46.85.7.76.67,1.48,1.37,2.19,2.09,3.67,3.7,6.36,8.21,8.89,12.72,2.21,3.93,4.3,7.93,6.07,12.09.83,1.94,1.57,3.92,2.25,5.92.06.18.25.27.42.22.18-.06.27-.25.21-.42-.65-2.03-1.36-4.04-2.17-6.01-1.64-4.05-3.59-7.97-5.65-11.83-1.79-3.34-3.63-6.68-5.85-9.75-1.05-1.45-2.18-2.81-3.4-4.12-.67-.73-1.37-1.42-2.09-2.11-.61-.58-1.24-1.13-1.92-1.63-.36-.27-.74-.52-1.12-.75-.47-.29-.95-.54-1.42-.83-.48-.29-.95-.6-1.45-.85.53-.3,1.02-.69,1.51-1.05.26-.19.53-.37.8-.55.36-.23.71-.46,1.07-.7.37.28.75.54,1.15.78.53.31,1.09.56,1.62.87.42.25.84.53,1.23.82,1.13.85,2.15,1.83,3.14,2.84,1,1.02,1.97,2.07,2.96,3.1.13.14.34.15.48.02.14-.13.15-.34.02-.47-1.88-2.19-3.65-4.51-5.82-6.44-.4-.35-.81-.7-1.24-1.02-.26-.19-.53-.37-.79-.55-.1-.07-.2-.15-.3-.22-.25-.17-.5-.33-.75-.5-.09-.06-.17-.12-.26-.17,1.61-1.07,3.22-2.13,4.9-3.09,3.85-2.21,7.97-4.01,12.29-5.08,2.48-.62,5.04-1,7.6-1.03.85-.01,1.71.02,2.56.08,2.11.17,4.18.62,6.2,1.25,1.66.52,3.38,1.17,4.82,2.18.37.26.72.55,1.04.88.13.13.26.27.34.44.28.57.06,1.4-.09,1.96ZM308.1,179.28c-.11.33-.26.65-.46.95-.28.43-.62.81-1.01,1.15-.99.88-2.2,1.48-3.43,1.95-1.67.64-3.42,1.02-5.19,1.24-3.93.48-7.95.66-11.87.04-2.5-.4-4.98-1.14-7.15-2.45-.94-.57-1.83-1.21-2.69-1.88-1.92-1.48-3.72-3.13-5.67-4.57-1.11-.82-2.26-1.57-3.49-2.19-1.19-.59-2.44-1.05-3.73-1.37-.22-.05-.45-.1-.68-.15-.07-.03-.15-.06-.24-.07-.07,0-.15-.01-.22-.02-1.43-.25-2.88-.33-4.32-.26-.74-.02-1.48-.03-2.22-.02-.61,0-1.22.03-1.83.05-1.14.04-2.28.06-3.41.07-3.16.02-6.35-.12-9.45-.8-.76-.17-1.51-.38-2.25-.64-2.48-.88-4.77-2.19-7.18-3.25-2.16-.95-4.38-1.75-6.66-2.35-1.22-.32-2.46-.58-3.71-.78-.18-.03-.35.09-.39.27-.03.18.09.35.27.39,1.22.23,2.43.5,3.63.84,2.38.67,4.69,1.57,6.92,2.63,2.85,1.35,5.58,3.04,8.65,3.84,3.41.89,6.94,1.12,10.45,1.2-.63.23-1.26.49-1.87.78-1.08.51-2.09,1.13-3.11,1.75-1.17.71-2.38,1.4-3.73,1.71-.64.15-1.29.23-1.94.32-1.02.15-2.04.27-3.06.36-.66.06-1.33.11-2,.15-.36.02-.73.07-1.09.04-.69-.05-1.28-.45-1.92-.68-.28-.1-.57-.17-.86-.2.06-.66,0-1.32-.29-1.93-.19-.4-.49-.74-.8-1.05-.36-.36-.76-.68-1.18-.98-1.6-1.12-3.47-1.85-5.33-2.43-2.15-.67-4.36-1.15-6.61-1.33-.75-.06-1.5-.09-2.25-.09-1.69,0-3.37.14-5.04.39-.45.02-.9.04-1.35.08-1.2.09-2.39.22-3.59.22-.14,0-.28,0-.42-.01-2.85-.6-5.73-1.04-8.64-1.27-1.8-.14-3.61-.2-5.42-.19-5.43.05-10.84.82-16.03,2.42-.9.28-1.78.6-2.68.87-1.11.34-2.22.66-3.26,1.16,0-.03,0-.05,0-.08.73-.52,1.47-1.01,2.21-1.5,1.32-.87,2.65-1.72,4.03-2.5,2.88-1.62,5.9-2.96,9.01-4.07,1.76-.63,3.54-1.2,5.36-1.62,2.5-.58,5.05-.95,7.57-1.47,1.86-.38,3.69-.85,5.48-1.5,3.33-1.22,6.44-2.9,9.29-4.95.13.01.26,0,.38-.06.77-.32,1.54-.62,2.32-.91.2-.08.4-.17.61-.25.96-.38,1.96-.68,2.96-.93,2.01-.51,4.07-.81,6.14-.93,1.11-.07,2.23-.08,3.35-.06.18,0,.34-.14.35-.32,0-.18-.14-.34-.32-.35-1.13-.08-2.27-.13-3.4-.12-2.31.02-4.6.25-6.87.69-.7.14-1.39.3-2.09.47.11-.1.22-.2.33-.3.93-.85,1.82-1.74,2.68-2.66.11,0,.22-.02.33-.07.43-.19.85-.4,1.26-.61.45-.23.9-.46,1.38-.61.42-.13.86-.19,1.29-.26.67-.12,1.35-.23,2.02-.34.45-.08.9-.17,1.35-.24,1.71-.28,3.44-.5,5.16-.68,1.79-.18,3.58-.31,5.38-.37,2.56-.08,5.13,0,7.69.08,1.05.04,2.1.08,3.15.11.49.02.98.03,1.48.05.56.03,1.11.09,1.66.17,2.05.3,4.05.88,6.05,1.38.18.05.36-.06.41-.24.05-.18-.06-.36-.24-.41-2.13-.58-4.26-1.24-6.44-1.58-.95-.15-1.91-.19-2.88-.25-1.05-.06-2.09-.12-3.14-.19-2.39-.14-4.78-.26-7.18-.27-2.07,0-4.13.08-6.19.23-1.76.13-3.51.31-5.26.5-.28.03-.55.05-.83.09-.69.09-1.37.19-2.06.3-.32.05-.64.11-.96.16-.27.04-.53.09-.79.17-.07.02-.14.04-.21.07,1.01-1.23,1.97-2.51,2.89-3.81.07-.01.14-.03.21-.07.73-.36,1.48-.67,2.24-.97.25-.1.5-.22.76-.32.73-.27,1.47-.5,2.22-.7,3.38-.88,6.91-1.04,10.39-.89.18.01.34-.13.36-.31.01-.18-.13-.34-.31-.36-1.7-.16-3.4-.24-5.1-.22-1.7.03-3.4.17-5.08.45-.98.16-1.95.37-2.91.63-.23.06-.46.11-.68.18-.14.05-.29.1-.43.15.7-1.07,1.38-2.15,2.04-3.24.44-.72.88-1.44,1.28-2.18.81-1.49,1.41-3.08,2.12-4.62.02-.04.04-.09.06-.13.14.04.28.05.43.02,1.07-.2,2.15-.36,3.23-.52,1.71-.25,3.43-.46,5.15-.63,4.3-.43,8.62-.66,12.94-.54,2.62.07,5.25.28,7.84.71,2.13.35,4.25.87,6.26,1.66.74.29,1.46.62,2.16,1,.93.51,1.82,1.1,2.7,1.7,2.17,1.49,4.2,3.17,6.13,4.96,2.94,2.72,5.61,5.75,8.05,8.93,2.89,3.76,5.46,7.76,7.65,11.97.7,1.34,1.34,2.7,1.95,4.08.9,2.01,1.83,4.04,3.06,5.85-.24-.13-.47-.26-.7-.39-.63-.36-1.25-.75-1.88-1.13-.6-.36-1.21-.7-1.79-1.09-1-.66-1.92-1.44-2.87-2.18-.73-.57-1.47-1.12-2.23-1.65-2.7-1.89-5.57-3.51-8.57-4.85-.08-.04-.18-.04-.26-.01-.08.03-.15.09-.19.17-.08.17,0,.37.16.45,2.92,1.41,5.7,3.08,8.29,5.02.72.54,1.43,1.11,2.13,1.69.94.79,1.87,1.61,2.87,2.33.38.27.78.52,1.17.78.41.27.82.54,1.22.81.41.27.82.55,1.23.82.62.4,1.26.77,1.88,1.17.48.31.96.62,1.45.91.75.44,1.51.88,2.27,1.3.09.06.19.12.28.17.09.05.18.09.28.14.19.11.38.21.57.32.1.06.2.09.31.1.05.02.09.04.14.06.33.14.66.28.99.42.28.11.55.23.82.35.22.09.43.19.64.3,1.1.55,2.31,1.36,2.26,2.74,0,.25-.06.51-.13.75Z"/>
      <path class="cls-1" d="M196.14,235.77s0,.01.02.03c-.02,0-.03,0-.05.01-.05-.08-.06-.1-.1-.14.04.03.09.06.13.09Z"/>
      <path class="cls-1" d="M196.12,235.84s.04,0,.05,0c0,0,0,0,0,0,.02.04.06.11.1.19-.01,0-.03,0-.04-.01-.04-.06-.08-.13-.12-.18Z"/>
      <path class="cls-1" d="M216.63,189.18c-.08-.07-.17-.11-.27-.11-.1,0-.2.04-.27.11-.15.15-.15.4,0,.55.6.59,1.2,1.18,1.81,1.75.15.14.38.13.52-.02.14-.15.13-.38-.02-.51-.61-.57-1.18-1.19-1.77-1.77Z"/>
      <path class="cls-1" d="M109.14,190.78c-.2-.04-.39.09-.43.29-.18.96-.39,1.91-.59,2.87-.04.21.09.41.3.45.21.04.41-.09.45-.3.19-.96.37-1.92.55-2.88.04-.2-.09-.39-.29-.43Z"/>
      <path class="cls-1" d="M104.33,228.98c-.03-.21-.22-.36-.43-.34-.21.03-.36.22-.33.43.16,1.3.42,2.57.75,3.84.05.19.25.31.44.26.2-.05.32-.25.27-.44-.32-1.23-.55-2.48-.7-3.75Z"/>
      <path class="cls-1" d="M126.49,169.04c1.05.45,2.11.91,3.14,1.39.18.09.4,0,.49-.18.09-.18,0-.4-.18-.49-.7-.33-1.39-.66-2.09-.98-.35-.16-.7-.31-1.06-.46-.1-.04-.2-.04-.3,0-.09.04-.17.11-.21.21-.08.2,0,.42.2.51Z"/>
      <path class="cls-1" d="M46.06,86.77c-1.18-.12-2.37-.23-3.56-.22-.4,0-.79.02-1.19.06-.2.02-.35.19-.34.39.02.2.2.35.4.33,1.54-.13,3.07.04,4.61.2.21.02.4-.13.42-.34.02-.21-.13-.4-.35-.42Z"/>
      <path class="cls-1" d="M110.05,147.59c1.82.84,3.6,1.75,5.38,2.67.18.09.4.02.49-.15.09-.18.02-.4-.16-.5-1.19-.62-2.37-1.25-3.57-1.85-.6-.3-1.21-.58-1.82-.86-.1-.05-.21-.05-.3-.01-.09.03-.17.11-.22.2-.09.19,0,.42.19.51Z"/>
      <path class="cls-1" d="M135.16,100.37c.06.19.27.29.46.23.19-.06.3-.27.23-.46-.42-1.25-.78-2.51-1.35-3.7-.04-.1-.12-.16-.22-.2-.09-.03-.2-.03-.3.01-.19.09-.28.32-.19.52.55,1.16.94,2.39,1.35,3.6Z"/>
      <path class="cls-1" d="M111.82,20.2c.19-.1.27-.33.17-.52-.5-1-1-1.99-1.54-2.97-.05-.09-.13-.15-.22-.17-.09-.03-.19-.02-.28.03-.18.1-.24.32-.14.5.53.97,1,1.97,1.49,2.96.1.19.33.27.52.17Z"/>
      <path class="cls-1" d="M153.93,70.27c.21-.02.37-.2.36-.41-.06-.73-.13-1.46-.23-2.18-.03-.2-.21-.34-.41-.32s-.34.21-.32.41c.09.71.13,1.43.18,2.15.02.21.2.37.41.35Z"/>
      <path class="cls-1" d="M249.54,58.71c.58-.76,1.14-1.53,1.72-2.29.12-.16.09-.39-.07-.51-.08-.06-.18-.08-.27-.07-.09.01-.18.06-.24.14-.58.76-1.17,1.5-1.75,2.26-.13.17-.1.41.07.54.17.13.41.09.54-.07Z"/>
      <path class="cls-1" d="M218.12,123.62c.8-1,1.59-2.01,2.39-3.01.13-.16.1-.39-.05-.51-.08-.06-.18-.09-.27-.08-.09.01-.18.05-.25.13-.81,1-1.62,1.99-2.43,2.98-.13.17-.11.41.06.54.17.13.41.11.55-.06Z"/>
      <path class="cls-1" d="M237.72,151.92c-1.74-.28-3.49-.42-5.24-.57-.2-.02-.38.13-.4.33-.02.2.13.38.33.4,1.73.15,3.46.32,5.18.6.21.03.41-.11.44-.32.03-.21-.11-.41-.32-.45Z"/>
      <path class="cls-1" d="M216.92,163.39c-1.62.09-3.24.18-4.86.28-.21.01-.38.2-.36.41.01.21.2.38.41.36,1.62-.1,3.24-.22,4.85-.32.2-.01.35-.19.34-.39-.01-.2-.18-.35-.38-.34Z"/>
      <path class="cls-1" d="M193.61,63.07s-.05-.05-.07-.08c-.04-.07-.08-.14-.14-.19,0-.01,0-.02,0-.03-.16-.56-.73-.79-1.26-.88-.25-.04-.51-.06-.76-.05-.34.01-.68.08-1.01.16-.51.13-1.01.29-1.49.5-.28.12-.56.26-.82.42-.18.11-.34.25-.5.4-.17.14-.32.29-.44.47-.27.4-.31.89.06,1.25.09.08.19.15.29.21.18.09.39.16.6.18.18.02.36,0,.53-.05.16-.01.32,0,.48-.03.2-.03.41-.08.61-.09.32,0,.64.06.96.12.57.11,1.16.23,1.74.09.73-.18,1.49-.73,1.5-1.55,0-.14-.02-.28-.06-.41-.05-.16-.12-.31-.22-.45Z"/>
      <path class="cls-1" d="M111.24,109.88c.71.79,1.4,1.58,2.1,2.38.97,1.11,1.92,2.25,2.77,3.46.57.81,1.05,1.65,1.55,2.51.4.7.82,1.4,1.22,2.1.83,1.45,1.64,2.91,2.31,4.45.29.66.54,1.33.76,2.01.08.23.33.35.56.27.23-.08.36-.33.28-.56-.24-.71-.49-1.4-.79-2.08-.71-1.63-1.58-3.19-2.46-4.73-.37-.64-.74-1.27-1.1-1.91-.5-.88-1-1.75-1.59-2.58-.9-1.28-1.91-2.49-2.94-3.67-.66-.76-1.32-1.51-1.99-2.26-2.9-3.24-5.99-6.34-9.3-9.17-1.49-1.27-3.03-2.48-4.61-3.65-.1-.08-.23-.11-.34-.09-.12.02-.23.08-.31.19-.15.21-.11.5.1.65,1.11.82,2.21,1.66,3.28,2.53,3.77,3.09,7.25,6.52,10.5,10.14Z"/>
      <path class="cls-1" d="M92.74,92.94c-1.41-.5-2.76-1.14-4.13-1.72-.06-.02-.12-.04-.18-.04-.18,0-.35.11-.42.29-.1.24.01.51.25.61,1.39.58,2.77,1.19,4.2,1.7.23.08.48-.04.56-.27.08-.23-.04-.48-.27-.56Z"/>
      <path class="cls-1" d="M126.62,22.2c.46.64.91,1.28,1.37,1.92.46.64.92,1.27,1.35,1.92.67,1.01,1.29,2.04,1.86,3.1,1.97,3.61,3.44,7.45,4.88,11.3.09.24.36.36.6.27.24-.09.36-.36.27-.6-1.46-3.88-2.95-7.77-4.94-11.41-.59-1.08-1.23-2.14-1.91-3.16-.47-.7-.96-1.38-1.46-2.07-.46-.64-.92-1.27-1.38-1.91-2.1-2.92-4.23-5.82-6.64-8.5-.08-.09-.19-.14-.31-.15-.11,0-.23.03-.32.11-.18.16-.2.44-.03.62,2.41,2.7,4.55,5.61,6.66,8.55Z"/>
      <path class="cls-1" d="M139.69,53.26c.04.25.28.42.53.38.25-.04.43-.28.38-.54-.29-1.71-.62-3.4-1.14-5.05-.05-.17-.21-.29-.38-.31-.06,0-.11,0-.17.02-.23.07-.36.32-.29.55.5,1.62.79,3.28,1.06,4.95Z"/>
      <path class="cls-1" d="M205.64,144.34c.17.18.45.18.62.01,2.14-2.03,4.21-4.11,6.29-6.2.18-.18.18-.48,0-.66-.09-.09-.21-.13-.33-.13-.12,0-.24.04-.33.14-2.07,2.08-4.11,4.19-6.24,6.22-.18.17-.18.45-.01.62Z"/>
      <path class="cls-1" d="M166.53,191.51c-.08-.16-.25-.26-.42-.25-.06,0-.11.02-.17.04-.22.11-.31.37-.2.59,2.9,5.98,5.21,12.23,7.74,18.37.1.24.37.35.6.25.24-.1.35-.37.25-.6-2.54-6.16-4.9-12.4-7.81-18.4Z"/>
      <path class="cls-1" d="M177.17,215.3c-.07-.1-.17-.16-.28-.18-.11-.02-.23,0-.33.08-.2.14-.24.42-.1.61.87,1.22,1.73,2.44,2.59,3.66.15.21.44.26.65.11.21-.15.26-.44.11-.65-.87-1.22-1.76-2.42-2.63-3.63Z"/>
    </g>
  </g>
</svg>