<?xml version="1.0" encoding="UTF-8"?>
<svg id="Capa_2" data-name="Capa 2" xmlns="http://www.w3.org/2000/svg" viewBox="0 0 179.72 53.65">
  <defs>
    <style>
      .cls-1 {
        fill: #a63d4c;
      }
    </style>
  </defs>
  <g id="Capa_1-2" data-name="Capa 1">
    <g>
      <g>
        <path class="cls-1" d="M90.31,34.56c9.34,7.38,21.45,4.84,31.43.2,8.91-4.15,16.49-10.48,25.66-14.19,8.15-3.29,18.08-5.07,25.74.33,5.85,4.12,9.4,13.28,3.69,19.09-3.16,3.21-8.17.98-10.7-1.85-3.3-3.7-2.17-11.31,3.29-12.05.88-.12,1.26,1.13.43,1.5-6.41,2.81-3.76,11.46,2.41,12.58,4.63.84,6.33-5.08,6.18-8.56-.21-5.14-4.29-9.33-8.7-11.45-4.54-2.18-9.8-1.89-14.59-.85-19.39,4.2-34.13,24.34-55.31,21.36-3.9-.55-7.51-2.25-10.54-4.73-.83-.68.14-2.03.99-1.35h0Z"/>
        <path class="cls-1" d="M90.19,35.92c1,.09,1.82.42,2.7.92,1.55.87,3.17,1.45,4.8,2.15,3.55,1.52,6.94,2.69,10.82,2.99,6.72.52,13.55-1.34,19.4-4.59,6.93-3.85,11.92-10.36,16.29-16.81,3.1-4.59,5.87-9.38,9.99-13.16,3.17-2.9,7.19-4.75,11.49-3.62,3.11.81,5.3,4.23,4.43,7.39-.92,3.33-4.1,4.32-7.13,2.96-3-1.34-3.21-5.85-1.03-7.94,1.93-1.84,4.82.06,5.66,1.99.27.62-.59,1.14-1.02.61-2.16-2.72-4.63-.98-4.27,1.91.3,2.38,3.21,3.49,5.23,2.66,1.82-.74,2.11-3.14,1.8-4.8-.46-2.46-2.74-3.78-5.02-4.17-4.52-.77-8.62,2.96-11.41,6.02-3.42,3.76-5.9,8.27-8.75,12.44-6.28,9.19-14.08,16.64-25.07,19.5-4.69,1.22-9.67,1.39-14.43.54-2.61-.46-5.07-1.58-7.48-2.65-2.4-1.06-4.72-2.89-7.16-3.71-.37-.13-.22-.69.16-.66h0Z"/>
        <path class="cls-1" d="M119.44,41.36c4-1.5,8.72-5.23,8.49-9.92-.14-2.83-2.5-4.99-5.17-5.44-1.82-.31-3.53.74-4.35,2.34-.6,1.37-.22,2.48,1.14,3.35.74-.06,1.48-.12,2.22-.18,1.41-2.2,1.43-3.06.06-2.56.05.64-.79,1.13-1.22.53-1.04-1.44.36-2.45,1.8-2.4,1.98.06,3.02,2.92,1.8,4.36-1.61,1.91-4.32,2.37-6.27.66-1.95-1.72-.77-4.67.7-6.18,3.97-4.08,9.96,1.04,10.34,5.36.46,5.31-4.91,9.22-9.46,10.32-.14.03-.2-.19-.07-.24h0Z"/>
        <path class="cls-1" d="M118.95,31.34c1.05.3,2.18-.71,2.7-1.5.09-.14.15-.29.21-.45.09-.25-.01-.07.08-.03-.45-.2-.86-.48-.68-1.03.08-.24.32-.42.56-.46.7-.1,1.33.34,1.52,1.01.18.65-.15,1.31-.49,1.85-.35.56-.92,1.08-1.52,1.35-.98.44-1.76.16-2.57-.41-.19-.13-.02-.39.18-.33h0Z"/>
        <path class="cls-1" d="M126.48,39.05c2.59-3.34,7.86-5.31,11.93-5.78,3.15-.36,6.41.89,8.93,2.72,5,3.63,4.35,11.13-2.09,12.63-2.47.57-5.75-.35-7.08-2.63-1.42-2.43-.8-6.36,2.38-6.99,2.99-.59,5.75,1.68,4.61,4.83-.99,2.72-5.83,1.3-4.87-1.61.27-.8,1.55-.67,1.64.17,2.43.02,2.66-.66.7-2.04-.77-.23-1.51-.2-2.24.1-1.71.58-1.87,2.76-1.42,4.19.56,1.81,2.58,2.66,4.28,2.92,4.4.66,8-3.8,6.22-7.89-1.43-3.27-5.54-5.02-8.86-5.37-2.42-.26-4.86.48-7.07,1.39-2.39.99-4.37,2.78-6.74,3.75-.22.09-.46-.17-.3-.38h0Z"/>
        <path class="cls-1" d="M141.45,42.3c.44,0,1,.15,1.39-.13.42-.31.35-.82.08-1.19-.24-.31-.56-.49-.92-.62-.36-.13-.77-.01-1.12-.15-.13-.05-.22-.19-.21-.33.1-.9,1.29-.88,1.93-.72.79.21,1.51.95,1.74,1.72.29.93-.12,1.97-1.03,2.35-.75.32-1.8.13-2.03-.74-.03-.11.09-.19.18-.19h0Z"/>
        <path class="cls-1" d="M92.73,36.68c5.52,1.09,15.34.22,17.77-5.96.14.23.28.45.42.68-6.63-.14-11.22,3.48-16.82,6.3-.58.29-1.09-.58-.58-.96,5.07-3.83,11.09-6.55,17.5-6.33.33.01.52.39.42.68-1.24,3.39-4.87,5.31-8.15,6.3-3.22.97-7.75,1.69-10.74-.22-.21-.14-.07-.52.18-.47h0Z"/>
        <path class="cls-1" d="M93.32,37.26c3.07-1.54,6.44-2.67,9.6-4.05,1.35-.59,6.09-3.09,7.49-1.83.12.11.14.24.06.38-.42.73-1.7.9-2.43,1.17-1.76.65-3.48,1.39-5.2,2.14-2.9,1.28-6.16,3-9.41,2.88-.38-.01-.41-.54-.1-.69h0Z"/>
        <path class="cls-1" d="M110.36,31.98c-1.94.49-3.91,1-5.78,1.69-1.61.59-3.05,1.69-4.73,2.04-.27.06-.39-.26-.28-.46,1.91-3.28,7.4-3.89,10.77-3.93.4,0,.35.57.02.65h0Z"/>
        <path class="cls-1" d="M96.59,37.2c1.59-1.37,3.99-1.6,5.92-2.23,2.52-.83,4.6-2.78,7.2-3.34.36-.08.52.4.27.62-1.76,1.53-4.21,2.45-6.28,3.49-1.99,1-4.72,1.61-6.88,2-.31.06-.46-.35-.24-.54h0Z"/>
        <path class="cls-1" d="M108.85,42.67c1.99,1.19,3.27,3.09,5.13,4.43,2.07,1.48,4.96,2.04,7.41,2.49,2.13.39,7.85.87,8.22,3.82.01.09-.09.2-.18.15-1.46-.73-2.73-1.54-4.31-2.02-2.04-.61-4.21-.71-6.27-1.23-1.99-.5-3.83-1.16-5.59-2.22-1.97-1.19-3.16-3.34-4.8-4.89-.3-.29.02-.75.39-.53h0Z"/>
        <path class="cls-1" d="M129.45,53.62c-1.61-1.18-2.72-2.86-4.16-4.24-1.93-1.85-4.29-2.42-6.83-2.95-2.88-.6-7.42-.9-9.53-3.15-.14-.15-.03-.46.18-.47,1.54-.07,3.08.79,4.54,1.21,2.24.64,4.56,1,6.83,1.54,4.06.97,7.6,3.97,9.22,7.85.06.15-.12.3-.25.2h0Z"/>
        <path class="cls-1" d="M109.46,43.16c3.26,1.31,6.59,2.42,9.93,3.51,2.68.88,6.01,1.89,7.9,4.1.15.17,0,.51-.25.46-3.05-.66-6.05-2.41-8.96-3.57-3.04-1.21-6.06-2.34-8.83-4.12-.21-.14-.02-.47.21-.38h0Z"/>
        <path class="cls-1" d="M127.67,51.54c-1.66-.96-3.12-2.16-4.85-3.01-1.65-.8-3.58-.82-5.07-1.93-.17-.13-.11-.41.11-.44,3.92-.57,7.7,2.3,10.09,5.09.16.19-.1.4-.28.29h0Z"/>
        <path class="cls-1" d="M142.13,24.63c3.24-6.52,4.51-14.76-.79-20.53.37-.16.74-.32,1.12-.49.37,3.34-.34,6.63-.45,9.97-.11,3.29,2.43,6.67,1.2,9.89-.19.5-.91.3-.89-.21.16-3.17-1.44-5.9-1.46-9.03-.02-3.48.92-6.95.35-10.42-.11-.66.7-.93,1.12-.49,5.85,6.21,4.37,14.86.07,21.46-.09.14-.34.01-.27-.15h0Z"/>
        <path class="cls-1" d="M142.24,23.66c.78-3.15.28-6.39,0-9.57-.25-2.73-.73-6.09-.16-8.77.07-.32.44-.37.6-.09,1.67,2.83,1.07,6.94,1.31,10.11.23,2.99.47,5.89-.99,8.6-.24.45-.87.22-.74-.28h0Z"/>
        <path class="cls-1" d="M142.32,6.32c.73,1.89.71,3.73.66,5.73-.06,2.14.75,4.17.68,6.28,0,.22-.28.25-.41.12-3.13-3.17-.76-8.21-1.33-12.01-.04-.24.32-.35.41-.12h0Z"/>
        <path class="cls-1" d="M148.78,20.55c2.58-.5,4.62.91,6.43,2.62,1.36,1.28,2.52,2.62,4.22,3.48,1.34.68,2.78.1,3.93,1.12.09.08.07.24-.06.26-2.09.24-3.96-.21-5.7-1.37-1.31-.88-2.36-2.22-3.48-3.3-1.57-1.5-3.21-2.02-5.32-2.28-.3-.04-.31-.47-.01-.53h0Z"/>
        <path class="cls-1" d="M163.24,28.18c-2.02-.94-2.88-2.92-4.2-4.6-2.3-2.92-6.03-.78-8.66-2.64-.19-.13-.11-.45.12-.48,2.22-.3,5.92-.38,7.87.93,2.33,1.56,3.37,4.31,5.19,6.38.17.2-.06.53-.31.42h0Z"/>
        <path class="cls-1" d="M150.2,20.46c2.24-.19,4.02.41,5.96,1.51,2.18,1.23,4.87,3.16,6.29,5.25.06.1,0,.23-.12.22-1.88-.17-3.17-1.45-4.56-2.62-2.29-1.92-4.53-3.63-7.57-4.09-.15-.02-.17-.26,0-.27h0Z"/>
        <path class="cls-1" d="M161.89,27.21c-1.25-.66-2.27-1.44-3.33-2.37-1.13-.98-2.69-1.8-3.56-3-.12-.16-.04-.41.17-.44,2.86-.41,5.16,3.68,6.99,5.31.22.2.03.66-.27.5h0Z"/>
        <path class="cls-1" d="M172.17,41.09c-6.4-2.51-7.53-10.04-2.15-14.51.29-.24.72.02.69.38-.08,1.05-.6,1.72-1.22,2.55-1.05,1.43-1.53,2.86-1.45,4.65.12,2.66,1.97,5.27,4.3,6.47.27.14.12.57-.17.45h0Z"/>
        <path class="cls-1" d="M167.57,37.68c-1.22-1.64-1.82-3.26-1.71-5.32.09-1.79.89-4.2,2.61-5.02.23-.11.5.1.48.35-.16,1.54-1.15,2.89-1.47,4.42-.35,1.7-.01,3.67.59,5.27.11.3-.29.58-.5.3h0Z"/>
        <path class="cls-1" d="M137.9,43.01c-.02-.57-.06-.98.16-1.53.22-.54.64-.97,1.1-1.31.87-.65,2.08-.78,3.01-.21.73.45,1.29,1.22,1.35,2.09.07.87-.62,1.96-1.59,1.8-.37-.06-.64-.51-.37-.84.25-.29.74-.45.72-.89-.02-.48-.4-.94-.81-1.16-1.26-.67-2.94.97-3.25,2.1-.04.15-.31.13-.32-.03h0Z"/>
        <path class="cls-1" d="M141.5,42.29c.68.01.76-.51,1.16-.96.22-.24.65-.2.71.17.09.62-.3,1.21-.87,1.45-.47.19-1-.04-1.13-.53-.02-.08.06-.13.12-.13h0Z"/>
        <path class="cls-1" d="M168.93,12.88c-1.37,2.6-4.95.54-5.52-1.65-.31-1.22,0-2.52,1.04-3.29.78-.58,2.69-.78,3.07.38.04.13,0,.25-.13.32-.59.3-1.28.08-1.9.38-.65.32-.8,1.15-.7,1.78.22,1.49,2.62,3.23,3.95,1.94.08-.08.24.03.19.14h0Z"/>
        <path class="cls-1" d="M167.24,8.77c-1.35.1-2.88-1.12-3.49.66-.61,1.75,1.5,3.1,2.44,4.17.11.12.05.34-.1.39-1.14.43-2.19-.4-2.95-1.18-.92-.95-1.37-2.47-1.04-3.75.3-1.17,1.15-2.17,2.43-2.18,1.08,0,2.28.63,2.86,1.55.08.13.04.34-.14.35h0Z"/>
        <path class="cls-1" d="M166.31,13.9c-1.13-.09-2.01-.26-2.83-1.12-.68-.73-1.37-1.67-1.27-2.71.02-.25.35-.43.56-.25.52.47.84,1.11,1.24,1.68.55.77,1.51,1.64,2.4,2,.22.09.14.42-.1.4h0Z"/>
      </g>
      <g>
        <path class="cls-1" d="M89.25,34.49c-9.68,6.94-21.66,3.82-31.41-1.28-8.7-4.56-15.97-11.24-24.96-15.38-7.99-3.67-17.82-5.91-25.73-.88-6.03,3.84-10.02,12.83-4.58,18.89,3.01,3.36,8.12,1.37,10.77-1.35,3.47-3.54,2.7-11.2-2.72-12.19-.88-.16-1.31,1.07-.5,1.47,6.27,3.11,3.22,11.63-3,12.45-4.67.62-6.08-5.37-5.77-8.85.46-5.12,4.72-9.12,9.24-11.03,4.63-1.97,9.88-1.43,14.61-.17,19.17,5.11,32.95,25.92,54.24,23.94,3.92-.36,7.6-1.89,10.75-4.23.86-.64-.04-2.03-.93-1.4h0Z"/>
        <path class="cls-1" d="M89.31,35.85c-1,.04-1.84.34-2.74.79-1.59.8-3.24,1.3-4.9,1.92-3.61,1.35-7.06,2.36-10.95,2.48-6.74.2-13.48-1.98-19.16-5.49-6.74-4.17-11.42-10.91-15.48-17.55-2.88-4.73-5.42-9.65-9.36-13.61C23.69,1.34,19.77-.7,15.41.22c-3.15.67-5.49,3.97-4.78,7.17.76,3.37,3.89,4.51,6.98,3.3,3.06-1.2,3.48-5.7,1.4-7.88-1.84-1.93-4.82-.16-5.75,1.73-.3.61.54,1.17.99.66,2.28-2.61,4.67-.76,4.18,2.11-.41,2.36-3.37,3.33-5.35,2.41-1.78-.83-1.96-3.23-1.57-4.87.58-2.44,2.92-3.65,5.21-3.93,4.55-.55,8.47,3.36,11.11,6.55,3.23,3.91,5.51,8.54,8.16,12.84,5.84,9.47,13.28,17.28,24.12,20.66,4.63,1.44,9.59,1.84,14.39,1.22,2.63-.34,5.13-1.34,7.59-2.29,2.44-.95,4.85-2.67,7.33-3.37.38-.11.25-.68-.13-.66h0Z"/>
        <path class="cls-1" d="M59.83,39.91c-3.92-1.69-8.47-5.63-8.01-10.31.27-2.82,2.73-4.86,5.42-5.19,1.83-.23,3.49.9,4.23,2.55.53,1.39.1,2.49-1.29,3.29-.74-.09-1.47-.19-2.21-.28-1.3-2.27-1.28-3.12.06-2.56-.08.64.74,1.16,1.19.59,1.11-1.4-.24-2.47-1.68-2.49-1.98-.03-3.15,2.77-2,4.27,1.52,1.98,4.21,2.57,6.24.95,2.03-1.63.99-4.63-.41-6.21-3.77-4.26-10,.57-10.58,4.87-.71,5.28,4.47,9.44,8.97,10.76.14.04.21-.18.08-.23h0Z"/>
        <path class="cls-1" d="M60.8,29.93c-1.06.25-2.14-.81-2.62-1.62-.09-.15-.14-.3-.19-.46-.08-.25.02-.07-.08-.03.46-.18.89-.43.73-1-.07-.24-.3-.44-.54-.48-.7-.13-1.34.27-1.56.94-.21.64.09,1.32.4,1.87.32.57.86,1.13,1.45,1.43.96.48,1.75.24,2.58-.29.19-.12.04-.39-.17-.34h0Z"/>
        <path class="cls-1" d="M52.91,37.27c-2.43-3.46-7.6-5.67-11.65-6.34-3.13-.51-6.44.59-9.04,2.29-5.16,3.39-4.87,10.91,1.49,12.71,2.44.69,5.76-.08,7.2-2.3,1.53-2.36,1.1-6.32-2.05-7.09-2.96-.73-5.83,1.41-4.83,4.61.86,2.76,5.76,1.57,4.94-1.38-.23-.82-1.51-.74-1.65.09-2.43-.09-2.63-.78-.6-2.07.78-.2,1.52-.13,2.24.21,1.68.66,1.73,2.84,1.22,4.25-.65,1.78-2.7,2.54-4.41,2.71-4.43.45-7.81-4.17-5.84-8.18,1.58-3.2,5.77-4.75,9.1-4.95,2.43-.15,4.83.7,7,1.72,2.34,1.1,4.23,2.98,6.56,4.06.22.1.47-.15.32-.36h0Z"/>
        <path class="cls-1" d="M37.8,39.82c-.44-.03-1.01.1-1.38-.2-.41-.33-.31-.84-.02-1.19.25-.3.59-.46.95-.57.37-.11.77.02,1.13-.1.14-.05.23-.18.22-.33-.06-.9-1.25-.94-1.89-.8-.8.17-1.55.88-1.82,1.63-.33.92.03,1.97.92,2.4.73.35,1.79.21,2.06-.64.03-.11-.08-.19-.17-.2h0Z"/>
        <path class="cls-1" d="M86.73,36.49c-5.57.83-15.33-.5-17.47-6.79-.15.22-.3.44-.45.66,6.62.17,11.04,4.01,16.5,7.08.56.32,1.11-.53.62-.94-4.88-4.06-10.77-7.06-17.18-7.15-.33,0-.54.36-.45.66,1.08,3.45,4.62,5.54,7.84,6.68,3.18,1.12,7.66,2.05,10.74.28.22-.13.1-.52-.16-.48h0Z"/>
        <path class="cls-1" d="M86.12,37.05c-2.99-1.68-6.31-2.98-9.4-4.5-1.32-.65-5.93-3.38-7.39-2.18-.12.1-.15.23-.08.37.39.75,1.66.99,2.37,1.28,1.72.73,3.41,1.55,5.09,2.39,2.84,1.41,6.01,3.28,9.27,3.31.38,0,.43-.52.14-.68h0Z"/>
        <path class="cls-1" d="M69.34,30.96c1.91.58,3.86,1.18,5.7,1.96,1.58.67,2.97,1.83,4.63,2.26.27.07.41-.24.3-.44-1.75-3.36-7.2-4.23-10.58-4.43-.4-.02-.38.55-.05.65h0Z"/>
        <path class="cls-1" d="M82.85,36.83c-1.52-1.44-3.91-1.78-5.81-2.51-2.48-.95-4.46-2.99-7.04-3.68-.36-.1-.54.38-.3.61,1.69,1.62,4.09,2.64,6.11,3.79,1.94,1.09,4.63,1.83,6.77,2.32.31.07.48-.33.26-.53h0Z"/>
        <path class="cls-1" d="M70.35,41.72c-2.04,1.1-3.41,2.93-5.34,4.18-2.13,1.38-5.05,1.81-7.52,2.14-2.14.29-7.89.5-8.39,3.43-.02.09.08.2.18.16,1.5-.66,2.8-1.41,4.4-1.81,2.06-.51,4.24-.51,6.32-.93,2.01-.4,3.89-.98,5.69-1.96,2.02-1.1,3.31-3.19,5.02-4.66.32-.27.02-.75-.36-.55h0Z"/>
        <path class="cls-1" d="M49.26,51.69c1.66-1.1,2.85-2.73,4.35-4.04,2.02-1.76,4.4-2.22,6.96-2.63,2.91-.46,7.45-.55,9.67-2.7.15-.14.05-.45-.16-.47-1.53-.14-3.11.65-4.59,1-2.27.53-4.61.78-6.89,1.22-4.1.78-7.77,3.61-9.58,7.41-.07.15.1.31.24.21h0Z"/>
        <path class="cls-1" d="M69.72,42.18c-3.32,1.15-6.7,2.1-10.09,3.04-2.72.76-6.09,1.6-8.08,3.72-.16.17-.02.51.23.47,3.08-.52,6.16-2.12,9.12-3.14,3.1-1.06,6.16-2.05,9.01-3.7.22-.13.04-.47-.19-.39h0Z"/>
        <path class="cls-1" d="M51.14,49.69c1.7-.88,3.22-2.01,4.98-2.77,1.68-.73,3.62-.65,5.15-1.69.18-.12.13-.41-.09-.45-3.89-.76-7.8,1.94-10.32,4.61-.17.18.08.41.27.31h0Z"/>
        <path class="cls-1" d="M37.96,22.14c-2.93-6.66-3.81-14.96,1.76-20.47-.36-.18-.73-.36-1.09-.54-.52,3.32.03,6.64-.02,9.98-.05,3.3-2.75,6.55-1.66,9.82.17.51.9.35.9-.17,0-3.17,1.72-5.83,1.88-8.95.18-3.48-.59-6.98.14-10.42.14-.66-.66-.96-1.09-.54-6.14,5.93-5.06,14.64-1.08,21.43.09.15.34.02.27-.13h0Z"/>
        <path class="cls-1" d="M37.9,21.16c-.63-3.18.02-6.4.46-9.56.37-2.71,1.02-6.04.57-8.76-.05-.32-.42-.39-.59-.12-1.81,2.75-1.39,6.88-1.78,10.03-.37,2.98-.74,5.86.59,8.64.22.46.86.26.76-.25h0Z"/>
        <path class="cls-1" d="M38.62,3.83c-.82,1.85-.89,3.69-.92,5.69-.04,2.14-.94,4.13-.97,6.24,0,.23.27.26.4.14,3.27-3.02,1.15-8.17,1.9-11.94.05-.24-.3-.36-.4-.14h0Z"/>
        <path class="cls-1" d="M31.5,17.75c-2.56-.62-4.65.69-6.54,2.31-1.42,1.22-2.64,2.49-4.38,3.28-1.37.62-2.78-.03-3.98.94-.09.07-.08.24.05.26,2.08.34,3.96-.02,5.76-1.1,1.35-.81,2.46-2.11,3.63-3.13,1.64-1.43,3.3-1.87,5.42-2.03.31-.02.33-.46.04-.53h0Z"/>
        <path class="cls-1" d="M16.7,24.69c2.06-.84,3.01-2.78,4.41-4.4,2.44-2.81,6.06-.5,8.78-2.23.2-.13.14-.45-.1-.49-2.2-.4-5.89-.66-7.9.56-2.4,1.45-3.57,4.15-5.48,6.13-.18.19.04.53.29.43h0Z"/>
        <path class="cls-1" d="M30.09,17.59c-2.23-.29-4.04.23-6.02,1.23-2.24,1.13-5.02,2.93-6.54,4.95-.07.09-.01.23.11.23,1.88-.08,3.23-1.3,4.68-2.41,2.37-1.81,4.69-3.41,7.75-3.73.15-.02.18-.25.02-.27h0Z"/>
        <path class="cls-1" d="M18.09,23.78c1.28-.6,2.33-1.33,3.44-2.21,1.17-.93,2.77-1.67,3.7-2.83.13-.16.06-.41-.15-.45-2.84-.55-5.32,3.44-7.23,4.98-.23.19-.07.65.25.51h0Z"/>
        <path class="cls-1" d="M7.18,37.16c6.51-2.21,7.99-9.68,2.83-14.39-.28-.26-.72-.01-.71.35.03,1.05.52,1.74,1.09,2.61.98,1.48,1.39,2.93,1.23,4.71-.24,2.65-2.21,5.18-4.6,6.26-.28.13-.15.56.15.46h0Z"/>
        <path class="cls-1" d="M11.93,33.97c1.3-1.58,1.97-3.17,1.96-5.24,0-1.79-.69-4.24-2.37-5.14-.23-.12-.51.08-.5.33.09,1.54,1.02,2.94,1.26,4.48.27,1.72-.16,3.66-.84,5.24-.13.3.27.59.48.32h0Z"/>
        <path class="cls-1" d="M41.32,40.69c.05-.57.1-.98-.09-1.54-.19-.55-.6-1-1.04-1.36-.83-.69-2.04-.88-3-.35-.75.41-1.34,1.16-1.45,2.02-.11.87.52,1.98,1.51,1.87.37-.04.67-.48.41-.82-.23-.3-.72-.49-.67-.93.05-.48.45-.92.87-1.12,1.29-.61,2.89,1.1,3.15,2.25.03.16.3.14.32-.02h0Z"/>
        <path class="cls-1" d="M37.76,39.8c-.68-.02-.73-.54-1.12-1.01-.21-.25-.64-.23-.71.14-.12.61.24,1.23.8,1.49.46.21,1,.01,1.15-.48.02-.08-.05-.13-.12-.14h0Z"/>
        <path class="cls-1" d="M11.74,9.13c1.24,2.66,4.92.77,5.59-1.39.37-1.2.12-2.52-.88-3.33-.75-.61-2.65-.91-3.09.24-.05.13-.01.25.11.32.57.33,1.28.14,1.88.47.64.35.74,1.18.62,1.82-.29,1.47-2.77,3.1-4.04,1.75-.08-.08-.24.02-.19.13h0Z"/>
        <path class="cls-1" d="M13.62,5.11c1.34.16,2.93-.99,3.46.82.52,1.78-1.64,3.03-2.63,4.05-.11.11-.07.33.08.39,1.12.48,2.21-.29,3-1.04.96-.91,1.49-2.4,1.22-3.7-.24-1.18-1.05-2.22-2.32-2.29-1.08-.06-2.31.52-2.93,1.41-.08.12-.06.34.12.36h0Z"/>
        <path class="cls-1" d="M14.31,10.28c1.13-.03,2.03-.16,2.88-.98.72-.69,1.45-1.6,1.4-2.65-.01-.25-.33-.45-.55-.27-.54.45-.89,1.07-1.32,1.62-.59.75-1.59,1.57-2.49,1.88-.22.08-.16.41.07.4h0Z"/>
      </g>
    </g>
  </g>
</svg>