<?xml version="1.0" encoding="UTF-8"?>
<svg id="Capa_2" data-name="Capa 2" xmlns="http://www.w3.org/2000/svg" viewBox="0 0 92.48 38.34">
  <defs>
    <style>
      .cls-1 {
        fill: #a63d4c;
      }
    </style>
  </defs>
  <g id="Capa_1-2" data-name="Capa 1">
    <g>
      <g>
        <path class="cls-1" d="M47.11,28.92c1.08-4.35-4.15-7.45-7.4-8.95-3.8-1.76-8.18-2.38-11.93-.11-3.29,2-6.25,5.67-6.18,9.71.08,4.57,3.58,7.72,7.89,8.6,4.11.83,7.96-1.54,9.14-5.45,1.14-3.77-1.42-8.09-5.38-8.37-3.36-.24-7.74,4-5.06,7.31,2.13,2.64,7.35,2.35,7.12-1.78-.05-.89-1.24-.98-1.61-.27-.83,1.57-2.8,2.6-3.99.37-1.61-3.01,3.19-4.4,5.05-3.76,3.43,1.2,3.07,6.2,1.34,8.52-4.19,5.61-13.52.38-13.17-5.73.31-5.43,6.01-9.66,11.19-9.27,4.9.37,10.72,4.24,11.72,9.13.15.7,1.08.77,1.26.05h0Z"/>
        <path class="cls-1" d="M47.29,28.24c-1.92-7.96-9.43-11.39-17.01-11.6-4.85-.14-9.58.63-14.38-.43-2.28-.5-4.35-1.48-6.2-2.89-1.96-1.49-2.78-3.66-4.24-5.52-.13-.16-.41-.07-.38.14.74,7,9.62,9.92,15.51,10.05,4.87.11,9.73-.62,14.56.29,5.59,1.06,9.17,5.33,11.58,10.16.17.35.65.16.56-.21h0Z"/>
        <path class="cls-1" d="M30.05,17.05c-.31-2.39-2.16-4.59-4-6.05-.96-.76-2.8-2.03-4.09-1.4-1.73.85.02,3.68.74,4.6,1.49,1.91,4.47,3.32,6.88,2.92.13-.02.22-.21.09-.29-1.42-.93-3.1-1.32-4.54-2.24-.92-.58-1.65-1.4-2.13-2.37-.18-.36-.82-1.53-.13-1.43,3.02.42,5.18,4.26,6.78,6.41.13.17.42.07.39-.15h0Z"/>
        <path class="cls-1" d="M29.44,16.53c-.2-1.21-1.35-2.17-2.12-3.08-1.03-1.2-2.2-2.56-3.53-3.4-.96-.6-1.9.55-1.1,1.36,1.09,1.11,2.27,2.14,3.36,3.26.81.83,1.89,2.06,3.12,2.12.14,0,.31-.09.28-.26h0Z"/>
        <path class="cls-1" d="M22.92,17.03c-3.14-.42-6.98.34-9.57,2.22-1.31.96-3.15,2.78-2.04,4.48,1.21,1.85,4.34.68,5.59-.36,1.07-.88,1.85-2.11,2.69-3.2.93-1.22,1.94-1.78,3.19-2.56.16-.1.1-.33-.04-.41-2.77-1.48-5.37,4.07-6.96,5.44-.54.46-4.02,1.51-3.47-.23.3-.96,1.43-1.75,2.2-2.31,2.35-1.72,5.76-1.78,8.44-2.71.17-.06.15-.33-.03-.35h0Z"/>
        <path class="cls-1" d="M21.61,17.43c-2.24-.04-4.07.95-5.94,2.1-1.32.81-3.54,2.01-3.51,3.74,0,.3.3.46.55.46,1.5.03,2.91-1.82,4.08-2.67,1.62-1.18,3.4-2.04,4.92-3.36.12-.1.05-.27-.1-.27h0Z"/>
        <path class="cls-1" d="M12.47,23.88c1.49-.08,2.8-.84,4.03-1.64.92-.6,2.26-1.59,1.95-2.81-.08-.3-.52-.21-.57.06-.04.23-.86.67-1.04.8-.5.39-1.01.77-1.53,1.14-.42.3-2.82,1.4-1.56.28,1.45-1.29,3.72-1.7,4.91-3.28.12-.17.04-.41-.17-.45-1.24-.24-2.53.5-3.57,1.07-1.1.61-2.86,1.57-3.01,2.99-.17,1.52,1.71,1.66,2.69,1.25.74-.31,1.43-.88,2.01-1.44.37-.36.71-.73,1.03-1.13.13-.16.45-.83.64-.9-.02-.19-.04-.38-.06-.57-.99-.07-1.58.76-2.31,1.35-1.17.95-2.6,1.5-3.76,2.46-.35.29-.15.86.32.83h0Z"/>
        <path class="cls-1" d="M16.52,16.73c-1.62-1.16-3.06-2.74-4.08-4.45-.43-.72-.77-1.53-.89-2.36-.23-1.59,1.51-1.37,2.03-.3.75,1.54.78,3.47,1.06,5.13.14.8.33,2.18,1.38,2.26.12,0,.26-.06.27-.19.1-.76-.13-1.45-.27-2.2-.25-1.31-.38-2.63-.67-3.94-.39-1.73-1.29-3.74-3.4-3.3-2.1.44-1.99,2.63-1.38,4.21,1,2.6,3.13,4.56,5.76,5.43.18.06.36-.17.18-.29h0Z"/>
        <path class="cls-1" d="M15.8,16.01c-.53-1.55-.86-3.15-1.3-4.73-.33-1.22-.46-2.71-1.84-3.03-.15-.04-.37.04-.46.17-.75,1.18.09,2.33.55,3.52.61,1.58,1.36,3.07,2.28,4.49.28.43.92.04.77-.42h0Z"/>
        <path class="cls-1" d="M10.38,14.47c-2.11-1.29-4.52-2.55-7.07-1.87C1.75,13,.03,13.9,0,15.7c-.03,2.03,2.65,2.61,4.13,2.3,2.17-.44,4.08-1.9,5.89-3.07.17-.11.04-.33-.13-.33-2.33-.06-6.19,3.49-8.15,1.38-.99-1.07,1.83-1.98,2.5-2.12,1.8-.38,4.29.48,6.02.98.24.07.29-.27.12-.38h0Z"/>
        <path class="cls-1" d="M9.88,14.75c-.87-.99-2.79-.59-3.94-.43-1.47.2-3.65-.05-4.74,1.05-.25.25-.13.64.09.86,1.05,1.04,3,.42,4.3.2,1.24-.22,3.53-.33,4.29-1.44.04-.06.06-.16,0-.23h0Z"/>
        <path class="cls-1" d="M7.04,12.12c.71-1.05-1.36-2.6-2-3.21-1.17-1.1-2.18-2.41-2.77-3.92-.48-1.21.59-1.59,1.64-1.17,1.16.46,1.42,2.6,1.57,3.62.17,1.12.12,4.16,1.52,4.62.09.03.19.02.25-.06.51-.71.21-2.06.1-2.87-.19-1.41-.5-2.85-.96-4.2-.63-1.86-2.98-3.89-4.97-2.35-1.57,1.22-.59,3.27.28,4.62,1.37,2.13,3.52,3.06,5.12,4.91.05.06.16.08.21,0h0Z"/>
        <path class="cls-1" d="M7.1,11.38c-.47-2.84-1.24-7.3-3.98-8.87-.65-.37-1.37.42-1.13,1.06.53,1.35,1.62,2.55,2.34,3.83.78,1.4,1.59,2.75,2.44,4.11.1.15.36.05.33-.13h0Z"/>
        <path class="cls-1" d="M33.23,25.48c-2.12-.18-2.55,1.88-1.92,3.55.3.8.84,1.51,1.62,1.89.93.46,2.16.02,2.19-1.1.01-.33-.33-.66-.64-.7-.27-.03-.54.01-.79.1.05-.02.04,0-.07-.05-.17-.08-.52-.48-.66-.76-.42-.8-.45-1.96.37-2.54.15-.11.1-.38-.1-.4h0Z"/>
        <path class="cls-1" d="M31.46,26.43c-.54-.52-1.47.06-1.87.48-.63.65-.61,1.73-.39,2.53.44,1.57,2.78,3.63,4.39,2.35.39-.31.44-.91.03-1.24-.84-.67-1.95-.76-2.4-1.87-.17-.41-.12-.72.05-1.13.12-.29.5-.83.2-1.12h0Z"/>
        <path class="cls-1" d="M30.3,27.59c-.15.91-.08,1.95.43,2.74.51.79,1.73,1.62,2.63.9.39-.32.45-.92.03-1.26-.44-.35-.92-.36-1.32-.81-.37-.41-.63-1-.71-1.54-.08-.59-.95-.65-1.05-.04h0Z"/>
        <path class="cls-1" d="M34.31,29.42c-.6-.51-.98-2.06-.01-2.41.86-.31,1.88.65,2.44,1.12.87.74.75,2.04,1.43,2.83.05.06.17.09.22,0,.67-1.07-.51-3.16-1.17-4.02-.85-1.11-2.24-2-3.66-1.49-2,.73-2.09,5.41.43,5.02.52-.08.74-.71.32-1.07h0Z"/>
      </g>
      <g>
        <path class="cls-1" d="M46.05,28.94c-1.28-4.3,3.79-7.63,6.96-9.29,3.72-1.94,8.06-2.77,11.91-.67,3.38,1.84,6.51,5.36,6.63,9.41.14,4.57-3.21,7.88-7.48,8.96-4.07,1.03-8.02-1.16-9.39-5.01-1.32-3.71,1.04-8.15,4.98-8.62,3.34-.4,7.92,3.63,5.4,7.06-2,2.73-7.23,2.7-7.2-1.44,0-.9,1.19-1.04,1.6-.35.9,1.53,2.92,2.46,4,.18,1.46-3.08-3.4-4.25-5.22-3.51-3.37,1.36-2.77,6.34-.94,8.57,4.45,5.4,13.53-.26,12.88-6.35-.57-5.41-6.46-9.36-11.61-8.73-4.88.6-10.5,4.74-11.28,9.68-.11.71-1.04.82-1.25.11h0Z"/>
        <path class="cls-1" d="M45.84,28.27c1.54-8.04,8.88-11.82,16.44-12.4,4.84-.37,9.6.17,14.35-1.11,2.25-.61,4.28-1.68,6.06-3.18,1.89-1.58,2.6-3.78,3.97-5.72.12-.17.4-.09.39.12-.41,7.03-9.14,10.37-15.02,10.78-4.86.34-9.75-.16-14.53.98-5.54,1.32-8.9,5.76-11.09,10.7-.16.36-.64.19-.57-.18h0Z"/>
        <path class="cls-1" d="M62.53,16.28c.19-2.4,1.94-4.69,3.71-6.23.92-.8,2.7-2.16,4.01-1.59,1.77.76.16,3.67-.52,4.62-1.4,1.97-4.31,3.53-6.74,3.24-.13-.02-.23-.2-.1-.29,1.37-.99,3.03-1.47,4.43-2.45.89-.63,1.58-1.48,2.02-2.47.16-.37.75-1.56.06-1.43-3,.57-4.98,4.5-6.47,6.72-.12.17-.42.09-.4-.13h0Z"/>
        <path class="cls-1" d="M63.11,15.73c.14-1.22,1.24-2.24,1.97-3.17.97-1.25,2.07-2.66,3.37-3.56.92-.65,1.92.46,1.16,1.3-1.03,1.16-2.16,2.24-3.2,3.41-.77.87-1.79,2.15-3.01,2.27-.14.02-.31-.08-.29-.25h0Z"/>
        <path class="cls-1" d="M69.65,15.92c3.11-.57,6.99,0,9.67,1.76,1.36.89,3.28,2.63,2.25,4.38-1.12,1.9-4.3.88-5.61-.1-1.11-.83-1.95-2.02-2.84-3.07-.99-1.17-2.02-1.68-3.31-2.41-.17-.09-.12-.32.02-.41,2.69-1.61,5.56,3.81,7.21,5.1.56.44,4.09,1.31,3.46-.4-.35-.94-1.51-1.68-2.3-2.2-2.43-1.6-5.84-1.51-8.56-2.3-.18-.05-.16-.32.02-.35h0Z"/>
        <path class="cls-1" d="M70.97,16.26c2.23-.14,4.11.76,6.03,1.82,1.35.74,3.63,1.84,3.69,3.57,0,.3-.27.47-.53.49-1.49.1-2.99-1.68-4.2-2.47-1.68-1.1-3.49-1.88-5.08-3.12-.12-.1-.06-.27.09-.28h0Z"/>
        <path class="cls-1" d="M80.42,22.27c-1.49,0-2.84-.71-4.1-1.45-.95-.56-2.34-1.48-2.08-2.72.06-.31.51-.24.57.03.06.22.89.63,1.07.75.52.36,1.04.72,1.58,1.06.43.28,2.88,1.26,1.57.21-1.51-1.22-3.8-1.52-5.05-3.04-.13-.16-.06-.41.15-.46,1.23-.3,2.55.38,3.61.9,1.13.55,2.93,1.43,3.15,2.84.24,1.51-1.63,1.74-2.63,1.37-.76-.28-1.48-.81-2.07-1.34-.38-.34-.74-.7-1.08-1.08-.13-.15-.49-.8-.69-.87,0-.19.02-.38.03-.57.99-.12,1.62.69,2.37,1.24,1.22.89,2.67,1.37,3.87,2.28.37.28.19.85-.28.85h0Z"/>
        <path class="cls-1" d="M76.03,15.31c1.56-1.24,2.92-2.88,3.87-4.64.4-.74.69-1.56.77-2.4.15-1.6-1.57-1.3-2.04-.21-.67,1.58-.62,3.5-.81,5.18-.1.81-.23,2.2-1.27,2.33-.12.02-.26-.04-.28-.18-.13-.76.06-1.46.16-2.21.19-1.32.25-2.65.48-3.96.3-1.75,1.11-3.8,3.24-3.46,2.12.34,2.11,2.53,1.58,4.14-.88,2.65-2.92,4.7-5.5,5.7-.17.07-.36-.15-.2-.29h0Z"/>
        <path class="cls-1" d="M76.71,14.57c.45-1.58.71-3.19,1.07-4.79.28-1.24.33-2.73,1.7-3.12.15-.04.37.02.46.15.8,1.14.02,2.33-.38,3.54-.53,1.61-1.21,3.13-2.07,4.59-.26.44-.92.09-.78-.38h0Z"/>
        <path class="cls-1" d="M82.06,12.76c2.05-1.39,4.39-2.76,6.97-2.21,1.57.34,3.34,1.15,3.45,2.95.12,2.02-2.52,2.73-4.02,2.5-2.19-.34-4.16-1.71-6.03-2.78-.17-.1-.05-.33.11-.34,2.32-.17,6.35,3.19,8.21.99.94-1.12-1.92-1.89-2.59-2-1.82-.29-4.26.69-5.96,1.27-.23.08-.3-.26-.13-.37h0Z"/>
        <path class="cls-1" d="M82.57,13.02c.82-1.03,2.75-.72,3.92-.62,1.48.13,3.64-.22,4.79.82.26.24.16.64-.05.86-1,1.09-2.98.56-4.28.4-1.25-.16-3.54-.16-4.36-1.24-.05-.06-.07-.16-.01-.23h0Z"/>
        <path class="cls-1" d="M85.28,10.26c-.75-1.01,1.24-2.67,1.84-3.3,1.11-1.16,2.06-2.52,2.58-4.05.42-1.23-.66-1.56-1.69-1.09-1.14.52-1.29,2.67-1.4,3.7-.12,1.13.08,4.16-1.3,4.68-.09.03-.19.03-.25-.05-.54-.69-.31-2.05-.24-2.86.12-1.42.36-2.88.75-4.24.54-1.88,2.79-4.03,4.85-2.58,1.63,1.14.75,3.23-.06,4.63-1.26,2.19-3.37,3.22-4.88,5.15-.05.06-.15.09-.21.02h0Z"/>
        <path class="cls-1" d="M85.18,9.53c.34-2.85.9-7.35,3.56-9.05.63-.4,1.39.36,1.18,1-.46,1.38-1.5,2.63-2.16,3.94-.72,1.43-1.46,2.82-2.24,4.22-.09.16-.36.07-.34-.11h0Z"/>
        <path class="cls-1" d="M59.75,24.85c2.11-.28,2.64,1.75,2.09,3.46-.26.82-.77,1.55-1.53,1.97-.9.5-2.16.12-2.24-1-.03-.33.3-.67.61-.72.26-.05.54-.01.8.06-.05-.01-.04,0,.06-.06.16-.09.49-.51.62-.79.38-.82.35-1.98-.5-2.52-.15-.1-.12-.38.08-.4h0Z"/>
        <path class="cls-1" d="M61.57,25.71c.51-.55,1.47,0,1.89.39.66.62.7,1.7.51,2.51-.36,1.59-2.61,3.76-4.27,2.56-.41-.29-.48-.89-.09-1.24.81-.71,1.91-.85,2.31-1.99.15-.42.08-.73-.1-1.12-.13-.29-.54-.81-.25-1.11h0Z"/>
        <path class="cls-1" d="M62.78,26.81c.2.9.18,1.94-.3,2.76-.47.81-1.65,1.7-2.58,1.03-.41-.3-.49-.9-.09-1.25.42-.37.9-.41,1.28-.87.35-.43.58-1.03.64-1.57.05-.59.92-.7,1.05-.09h0Z"/>
        <path class="cls-1" d="M58.86,28.84c.57-.54.88-2.1-.11-2.41-.87-.27-1.85.74-2.38,1.24-.84.78-.66,2.07-1.3,2.9-.05.06-.16.09-.22.02-.72-1.04.36-3.18.98-4.07.8-1.15,2.14-2.11,3.58-1.66,2.03.63,2.34,5.3-.19,5.04-.52-.06-.77-.67-.37-1.05h0Z"/>
      </g>
    </g>
  </g>
</svg>