<?xml version="1.0" encoding="UTF-8"?>
<svg id="Capa_2" data-name="Capa 2" xmlns="http://www.w3.org/2000/svg" viewBox="0 0 206.81 21.48">
  <defs>
    <style>
      .cls-1 {
        fill: #c8777b;
      }
    </style>
  </defs>
  <g id="Capa_1-2" data-name="Capa 1">
    <g>
      <g>
        <path class="cls-1" d="M182.73,9.56c-27.94-.43-40.93-.13-68.88-.16-.91,0-.91,1.41,0,1.41,28.12.03,41.25.17,69.38.16,1.12,0,1.12-1.73,0-1.73-13.88,0-27.77,0-41.65,0-14.06,0-13.17-.3-27.23.11-.96.03-.96,1.46,0,1.49,13.87.41,12.78.11,26.65.11,14.08,0,28.15,0,42.23.01,1.12,0,1.12-1.73,0-1.73-28.12,0-41.25.13-69.38.16-.91,0-.91,1.41,0,1.41,27.95-.03,40.93.27,68.88-.16.7-.01.7-1.08,0-1.09h0Z"/>
        <path class="cls-1" d="M205.54,9.56c-3.47-.16-6.97-.13-10.44-.16-.91,0-.91,1.41,0,1.41,3.5.03,7,.16,10.5.16,1.12,0,1.12-1.73,0-1.73-3.42,0-7.04-.3-10.44.12-.96.12-.96,1.37,0,1.49,3.4.42,7.02.11,10.44.12,1.12,0,1.12-1.73,0-1.73-3.5,0-7,.13-10.5.16-.91,0-.91,1.42,0,1.41,3.47-.03,6.97,0,10.44-.16.7-.03.7-1.05,0-1.09h0Z"/>
        <path class="cls-1" d="M120.04,9.88c-4.55-1.02-10.72-.88-13.87,3.15-1.7,2.17-1.55,5.15.4,7.11,2.14,2.14,5.26,1.5,7.3-.37,1.32-1.21,2.56-3.11,1.86-4.94-.69-1.79-3.06-2.43-4.62-1.47-.5.31-.46,1.17.17,1.31,1.49.33,3.51.38,2.23,2.42-.61.98-1.5,1.9-2.59,2.32-1.58.6-3.11-.28-3.85-1.69-.99-1.89.44-3.78,1.97-4.79,3.34-2.18,7.35-1.54,10.99-2.61.21-.06.23-.4,0-.45h0Z"/>
        <path class="cls-1" d="M117.67,9.86c-3.27-.6-7.41.43-9.99-2.18-2.28-2.31-.48-6,2.56-6.03,2.69-.03,3.13,4.74.2,2.79-.89-.59-1.84.72-1.12,1.45,2,2.01,5.33.77,4.98-2.18-.42-3.56-4.37-4.6-7.12-2.9-2.84,1.76-2.56,6.4,0,8.25,2.84,2.05,7.18,1.95,10.48,1.31.25-.05.25-.45,0-.5h0Z"/>
        <rect class="cls-1" x="186.1" y="7.1" width="5.75" height="5.75" transform="translate(48.29 136.55) rotate(-45)"/>
        <circle class="cls-1" cx="194.54" cy="10.17" r="2.06"/>
        <circle class="cls-1" cx="183.54" cy="10.17" r="2.06"/>
        <path class="cls-1" d="M206.27,9.89c-1.83-.43-3.82,1.01-4.84,2.44-.97,1.37-2.04,3.95-.76,5.45.08.09.23.04.26-.07.15-.57.12-1.15.23-1.73.16-.82.57-1.6.99-2.31.97-1.66,2.43-2.27,4.11-2.97.35-.14.44-.69,0-.8h0Z"/>
        <path class="cls-1" d="M200.99,17.67c.1-1.63.04-3.22.46-4.82.22-.83.62-1.48,1.46-1.75.39-.12.83-.39.67-.86-.07-.2-.22-.4-.45-.45-3.57-.66-4.02,6.02-2.52,7.98.12.16.36.11.37-.1h0Z"/>
        <path class="cls-1" d="M206.76,9.94c-.83-1.17-2.25-1.87-3.21-2.98-.67-.79-1.17-1.76-1.52-2.73-.28-.77-.23-1.58-.53-2.34-.1-.24-.5-.39-.64-.08-.7,1.61.28,3.7,1.15,5.09.87,1.41,2.68,3.5,4.47,3.54.23,0,.42-.29.28-.49h0Z"/>
        <path class="cls-1" d="M200.95,1.98c-.82,1.73-.81,3.52-.34,5.37.28,1.1,1.67,3.9,3.19,3,.1-.06.17-.2.13-.32-.17-.49-.54-.68-.94-1-.72-.58-1.08-1.5-1.32-2.35-.4-1.38-.43-3.15-.26-4.58.03-.24-.36-.34-.46-.12h0Z"/>
        <path class="cls-1" d="M204.64,9.5c-.81-.73-1.34-1.69-1.81-2.66-.16-.32-1.07-1.69-1.53-1.01-.5.74.29,1.92.66,2.57.52.92,1.23,1.53,2.2,1.93.47.19.83-.51.48-.83h0Z"/>
      </g>
      <g>
        <path class="cls-1" d="M24.08,11.92c27.94.43,40.93.13,68.88.16.91,0,.91-1.41,0-1.41-28.12-.03-41.25-.17-69.38-.16-1.12,0-1.12,1.73,0,1.73,13.88,0,27.77,0,41.65,0,14.06,0,13.17.3,27.23-.11.96-.03.96-1.46,0-1.49-13.87-.41-12.78-.11-26.65-.11-14.08,0-28.15,0-42.23-.01-1.12,0-1.12,1.73,0,1.73,28.12,0,41.25-.13,69.38-.16.91,0,.91-1.41,0-1.41-27.95.03-40.93-.27-68.88.16-.7.01-.7,1.08,0,1.09h0Z"/>
        <path class="cls-1" d="M1.27,11.92c3.47.16,6.97.13,10.44.16.91,0,.91-1.41,0-1.41-3.5-.03-7-.16-10.5-.16-1.12,0-1.12,1.73,0,1.73,3.42,0,7.04.3,10.44-.12.96-.12.96-1.37,0-1.49-3.4-.42-7.02-.11-10.44-.12-1.12,0-1.12,1.73,0,1.73,3.5,0,7-.13,10.5-.16.91,0,.91-1.42,0-1.41-3.47.03-6.97,0-10.44.16-.7.03-.7,1.05,0,1.09h0Z"/>
        <path class="cls-1" d="M86.77,11.6c4.55,1.02,10.72.88,13.87-3.15,1.7-2.17,1.55-5.15-.4-7.11-2.14-2.14-5.26-1.5-7.3.37-1.32,1.21-2.56,3.11-1.86,4.94.69,1.79,3.06,2.43,4.62,1.47.5-.31.46-1.17-.17-1.31-1.49-.33-3.51-.38-2.23-2.42.61-.98,1.5-1.9,2.59-2.32,1.58-.6,3.11.28,3.85,1.69.99,1.89-.44,3.78-1.97,4.79-3.34,2.18-7.35,1.54-10.99,2.61-.21.06-.23.4,0,.45h0Z"/>
        <path class="cls-1" d="M89.14,11.62c3.27.6,7.41-.43,9.99,2.18,2.28,2.31.48,6-2.56,6.03-2.69.03-3.13-4.74-.2-2.79.89.59,1.84-.72,1.12-1.45-2-2.01-5.33-.77-4.98,2.18.42,3.56,4.37,4.6,7.12,2.9,2.84-1.76,2.56-6.4,0-8.25-2.84-2.05-7.18-1.95-10.48-1.31-.25.05-.25.45,0,.5h0Z"/>
        <rect class="cls-1" x="14.95" y="8.63" width="5.75" height="5.75" transform="translate(-2.91 15.98) rotate(-45)"/>
        <circle class="cls-1" cx="12.27" cy="11.31" r="2.06"/>
        <circle class="cls-1" cx="23.27" cy="11.31" r="2.06"/>
        <path class="cls-1" d="M.53,11.59c1.83.43,3.82-1.01,4.84-2.44.97-1.37,2.04-3.95.76-5.45-.08-.09-.23-.04-.26.07-.15.57-.12,1.15-.23,1.73-.16.82-.57,1.6-.99,2.31-.97,1.66-2.43,2.27-4.11,2.97-.35.14-.44.69,0,.8h0Z"/>
        <path class="cls-1" d="M5.82,3.81c-.1,1.63-.04,3.22-.46,4.82-.22.83-.62,1.48-1.46,1.75-.39.12-.83.39-.67.86.07.2.22.4.45.45,3.57.66,4.02-6.02,2.52-7.98-.12-.16-.36-.11-.37.1h0Z"/>
        <path class="cls-1" d="M.05,11.54c.83,1.17,2.25,1.87,3.21,2.98.67.79,1.17,1.76,1.52,2.73.28.77.23,1.58.53,2.34.1.24.5.39.64.08.7-1.61-.28-3.7-1.15-5.09-.87-1.41-2.68-3.5-4.47-3.54-.23,0-.42.29-.28.49H.05Z"/>
        <path class="cls-1" d="M5.86,19.5c.82-1.73.81-3.52.34-5.37-.28-1.1-1.67-3.9-3.19-3-.1.06-.17.2-.13.32.17.49.54.68.94,1,.72.58,1.08,1.5,1.32,2.35.4,1.38.43,3.15.26,4.58-.03.24.36.34.46.12h0Z"/>
        <path class="cls-1" d="M2.17,11.98c.81.73,1.34,1.69,1.81,2.66.16.32,1.07,1.69,1.53,1.01.5-.74-.29-1.92-.66-2.57-.52-.92-1.23-1.53-2.2-1.93-.47-.19-.83.51-.48.83h0Z"/>
      </g>
    </g>
  </g>
</svg>