<?xml version="1.0" encoding="UTF-8"?>
<svg id="Capa_2" data-name="Capa 2" xmlns="http://www.w3.org/2000/svg" viewBox="0 0 111.3 17.87">
  <defs>
    <style>
      .cls-1 {
        fill: #ffcdd4;
      }
    </style>
  </defs>
  <g id="Capa_1-2" data-name="Capa 1">
    <g>
      <g>
        <path class="cls-1" d="M1.14,9.14c5.65-4.42,15.04-.16,21.17,1.33,4.74,1.15,9.45,2.32,14.36,2.39,2.13.03,4.25-.29,6.32-.77,1.48-.35,2.94-.58,3.62-2.06.09-.2-.09-.38-.29-.29-8.8,4.05-19.13.89-27.92-1.61-5.08-1.44-13.84-4.53-18.19.07-.6.64.28,1.45.94.94h0Z"/>
        <path class="cls-1" d="M10.92,11.57c6.36-.62,12.15,3.02,18.29,4.1,5.24.93,13.12,1.66,16.95-2.88.11-.13-.03-.32-.18-.24-3.35,1.76-6.37,2.47-10.17,2.33-3.54-.12-7.13-.81-10.56-1.69-4.44-1.13-9.88-4.25-14.4-1.89-.12.06-.07.28.07.26h0Z"/>
      </g>
      <g>
        <path class="cls-1" d="M110.15,9.14c-5.65-4.42-15.04-.16-21.16,1.33-4.74,1.15-9.46,2.32-14.36,2.39-2.13.03-4.25-.29-6.32-.77-1.48-.35-2.94-.58-3.62-2.06-.09-.2.09-.38.29-.29,8.8,4.05,19.13.89,27.92-1.61,5.08-1.44,13.84-4.53,18.19.07.6.64-.28,1.45-.94.94h0Z"/>
        <path class="cls-1" d="M100.37,11.57c-6.36-.62-12.15,3.02-18.29,4.1-5.24.93-13.12,1.66-16.95-2.88-.11-.13.03-.32.18-.24,3.35,1.76,6.37,2.47,10.16,2.33,3.54-.12,7.13-.81,10.56-1.69,4.44-1.13,9.88-4.25,14.4-1.89.12.06.07.28-.07.26h0Z"/>
      </g>
      <path class="cls-1" d="M58.87.8c-1.4.87-2.48,2.24-3.23,3.71-.74-1.47-1.83-2.83-3.23-3.71-3.62-2.12-6,.25-5.62,4,.25,2.5,1.88,5,3.38,6.88.88,1,4.25,5.88,5.38,6.12.03,0,.05.03.08.05v.03s.02,0,.02-.01c0,0,.02,0,.02.01v-.03s.05-.05.08-.05c1.12-.25,4.5-5.12,5.38-6.12,1.5-1.88,3.12-4.38,3.38-6.88.38-3.75-2-6.12-5.62-4Z"/>
    </g>
  </g>
</svg>